<ttFont>
<head>
    <!-- Most of this table will be recalculated by the compiler -->
    <tableVersion value="1.0"/>
    <fontRevision value="0.00099"/>
    <checkSumAdjustment value="0x27473c6f"/>
    <magicNumber value="0x5f0f3cf5"/>
    <flags value="00000000 00001011"/>
    <unitsPerEm value="1024"/>
    <created value="Mon Nov 25 16:52:04 2024"/>
    <modified value="Thu Nov 28 08:16:20 2024"/>
    <xMin value="-219"/>
    <yMin value="-257"/>
    <xMax value="886"/>
    <yMax value="1008"/>
    <macStyle value="00000000 00000000"/>
    <lowestRecPPEM value="8"/>
    <fontDirectionHint value="2"/>
    <indexToLocFormat value="0"/>
    <glyphDataFormat value="0"/>
  </head>
    <TTGlyph name=".notdef" xMin="34" yMin="0" xMax="306" yMax="682">
      <contour>
        <pt x="34" y="0" on="1"/>
        <pt x="34" y="682" on="1"/>
        <pt x="306" y="682" on="1"/>
        <pt x="306" y="0" on="1"/>
      </contour>
      <contour>
        <pt x="68" y="34" on="1"/>
        <pt x="272" y="34" on="1"/>
        <pt x="272" y="648" on="1"/>
        <pt x="68" y="648" on="1"/>
      </contour>
    </TTGlyph>
    <TTGlyph name="A" xMin="50" yMin="-35" xMax="457" yMax="813">
      <contour>
        <pt x="149" y="458" on="1"/>
        <pt x="149" y="475" on="0"/>
        <pt x="149" y="491" on="1"/>
        <pt x="149" y="566" on="0"/>
        <pt x="209" y="710" on="0"/>
        <pt x="260" y="769" on="1"/>
        <pt x="283" y="794" on="0"/>
        <pt x="297" y="804" on="1"/>
        <pt x="309" y="813" on="0"/>
        <pt x="321" y="813" on="1"/>
        <pt x="332" y="813" on="0"/>
        <pt x="340" y="805" on="1"/>
        <pt x="346" y="799" on="0"/>
        <pt x="348" y="791" on="1"/>
        <pt x="349" y="786" on="0"/>
        <pt x="349" y="779" on="1"/>
        <pt x="349" y="776" on="0"/>
        <pt x="349" y="774" on="1"/>
        <pt x="358" y="711" on="0"/>
        <pt x="391" y="528" on="1"/>
        <pt x="391" y="528" on="0"/>
        <pt x="391" y="527" on="1"/>
        <pt x="412" y="374" on="1"/>
        <pt x="412" y="373" on="0"/>
        <pt x="412" y="372" on="1"/>
        <pt x="418" y="232" on="1"/>
        <pt x="419" y="216" on="0"/>
        <pt x="424" y="131" on="0"/>
        <pt x="427" y="109" on="1"/>
        <pt x="438" y="70" on="0"/>
        <pt x="444" y="42" on="1"/>
        <pt x="452" y="18" on="0"/>
        <pt x="455" y="5" on="1"/>
        <pt x="457" y="-3" on="0"/>
        <pt x="457" y="-8" on="1"/>
        <pt x="457" y="-11" on="0"/>
        <pt x="456" y="-15" on="1"/>
        <pt x="454" y="-22" on="0"/>
        <pt x="449" y="-27" on="1"/>
        <pt x="442" y="-35" on="0"/>
        <pt x="431" y="-35" on="1"/>
        <pt x="414" y="-35" on="0"/>
        <pt x="404" y="-15" on="1"/>
        <pt x="400" y="-8" on="0"/>
        <pt x="397" y="2" on="1"/>
        <pt x="387" y="26" on="0"/>
        <pt x="384" y="49" on="1"/>
        <pt x="374" y="73" on="0"/>
        <pt x="360" y="157" on="0"/>
        <pt x="357" y="168" on="1"/>
        <pt x="351" y="182" on="0"/>
        <pt x="319" y="282" on="0"/>
        <pt x="306" y="304" on="1"/>
        <pt x="305" y="305" on="0"/>
        <pt x="304" y="306" on="1"/>
        <pt x="281" y="356" on="0"/>
        <pt x="206" y="387" on="1"/>
        <pt x="208" y="369" on="0"/>
        <pt x="217" y="303" on="0"/>
        <pt x="219" y="288" on="1"/>
        <pt x="226" y="227" on="0"/>
        <pt x="226" y="197" on="1"/>
        <pt x="226" y="173" on="0"/>
        <pt x="223" y="152" on="1"/>
        <pt x="219" y="52" on="0"/>
        <pt x="159" y="-8" on="1"/>
        <pt x="151" y="-17" on="0"/>
        <pt x="141" y="-24" on="1"/>
        <pt x="134" y="-29" on="0"/>
        <pt x="126" y="-29" on="1"/>
        <pt x="120" y="-29" on="1"/>
        <pt x="110" y="-29" on="0"/>
        <pt x="95" y="-14" on="0"/>
        <pt x="95" y="-4" on="1"/>
        <pt x="95" y="5" on="0"/>
        <pt x="108" y="20" on="0"/>
        <pt x="117" y="21" on="1"/>
        <pt x="142" y="43" on="0"/>
        <pt x="172" y="116" on="0"/>
        <pt x="173" y="156" on="1"/>
        <pt x="173" y="158" on="0"/>
        <pt x="173" y="159" on="1"/>
        <pt x="176" y="176" on="0"/>
        <pt x="176" y="196" on="1"/>
        <pt x="176" y="223" on="0"/>
        <pt x="167" y="296" on="1"/>
        <pt x="166" y="308" on="0"/>
        <pt x="155" y="383" on="0"/>
        <pt x="153" y="405" on="1"/>
        <pt x="128" y="412" on="0"/>
        <pt x="120" y="412" on="1"/>
        <pt x="114" y="412" on="0"/>
        <pt x="109" y="415" on="1"/>
        <pt x="104" y="417" on="0"/>
        <pt x="98" y="423" on="1"/>
        <pt x="71" y="427" on="1"/>
        <pt x="62" y="429" on="0"/>
        <pt x="50" y="443" on="0"/>
        <pt x="50" y="452" on="1"/>
        <pt x="50" y="462" on="0"/>
        <pt x="65" y="477" on="0"/>
        <pt x="75" y="477" on="1"/>
        <pt x="77" y="477" on="0"/>
        <pt x="79" y="477" on="1"/>
        <pt x="115" y="471" on="1"/>
        <pt x="124" y="469" on="0"/>
        <pt x="131" y="461" on="1"/>
        <pt x="139" y="460" on="0"/>
      </contour>
      <contour>
        <pt x="199" y="479" on="1"/>
        <pt x="199" y="461" on="0"/>
        <pt x="200" y="442" on="1"/>
        <pt x="274" y="417" on="0"/>
        <pt x="315" y="376" on="1"/>
        <pt x="336" y="355" on="0"/>
        <pt x="349" y="329" on="1"/>
        <pt x="358" y="315" on="0"/>
        <pt x="365" y="297" on="1"/>
        <pt x="362" y="369" on="1"/>
        <pt x="341" y="520" on="1"/>
        <pt x="336" y="559" on="0"/>
        <pt x="309" y="707" on="0"/>
        <pt x="304" y="742" on="1"/>
        <pt x="301" y="739" on="0"/>
        <pt x="298" y="736" on="1"/>
        <pt x="252" y="684" on="0"/>
        <pt x="199" y="555" on="0"/>
        <pt x="199" y="490" on="1"/>
        <pt x="199" y="489" on="0"/>
        <pt x="199" y="481" on="0"/>
      </contour>
    </TTGlyph>
    <TTGlyph name="B" xMin="50" yMin="-20" xMax="493" yMax="799">
      <contour>
        <pt x="275" y="739" on="1"/>
        <pt x="274" y="739" on="0"/>
        <pt x="271" y="739" on="0"/>
        <pt x="270" y="739" on="1"/>
        <pt x="262" y="739" on="0"/>
        <pt x="241" y="742" on="0"/>
        <pt x="218" y="747" on="0"/>
        <pt x="212" y="748" on="1"/>
        <pt x="209" y="749" on="0"/>
        <pt x="205" y="749" on="1"/>
        <pt x="185" y="749" on="0"/>
        <pt x="153" y="715" on="0"/>
        <pt x="148" y="694" on="1"/>
        <pt x="148" y="693" on="0"/>
        <pt x="141" y="665" on="1"/>
        <pt x="126" y="606" on="1"/>
        <pt x="109" y="497" on="1"/>
        <pt x="100" y="294" on="1"/>
        <pt x="112" y="178" on="1"/>
        <pt x="140" y="76" on="0"/>
        <pt x="164" y="14" on="1"/>
        <pt x="166" y="10" on="0"/>
        <pt x="166" y="5" on="1"/>
        <pt x="166" y="-5" on="0"/>
        <pt x="151" y="-20" on="0"/>
        <pt x="141" y="-20" on="1"/>
        <pt x="124" y="-20" on="0"/>
        <pt x="118" y="-4" on="1"/>
        <pt x="93" y="61" on="0"/>
        <pt x="63" y="166" on="1"/>
        <pt x="62" y="168" on="0"/>
        <pt x="62" y="170" on="1"/>
        <pt x="50" y="290" on="1"/>
        <pt x="50" y="292" on="0"/>
        <pt x="50" y="293" on="1"/>
        <pt x="50" y="294" on="0"/>
        <pt x="50" y="294" on="1"/>
        <pt x="59" y="501" on="1"/>
        <pt x="59" y="503" on="0"/>
        <pt x="59" y="504" on="1"/>
        <pt x="77" y="615" on="1"/>
        <pt x="77" y="616" on="0"/>
        <pt x="78" y="617" on="1"/>
        <pt x="93" y="680" on="0"/>
        <pt x="94" y="683" on="1"/>
        <pt x="97" y="694" on="0"/>
        <pt x="98" y="699" on="1"/>
        <pt x="98" y="701" on="0"/>
        <pt x="99" y="704" on="1"/>
        <pt x="107" y="740" on="0"/>
        <pt x="134" y="767" on="1"/>
        <pt x="166" y="799" on="0"/>
        <pt x="206" y="799" on="1"/>
        <pt x="217" y="799" on="0"/>
        <pt x="263" y="790" on="0"/>
        <pt x="269" y="789" on="1"/>
        <pt x="272" y="789" on="0"/>
        <pt x="276" y="789" on="1"/>
        <pt x="292" y="789" on="0"/>
        <pt x="317" y="776" on="1"/>
        <pt x="329" y="768" on="0"/>
        <pt x="334" y="768" on="1"/>
        <pt x="388" y="758" on="0"/>
        <pt x="427" y="719" on="1"/>
        <pt x="484" y="662" on="0"/>
        <pt x="484" y="578" on="1"/>
        <pt x="484" y="575" on="0"/>
        <pt x="483" y="571" on="1"/>
        <pt x="471" y="528" on="0"/>
        <pt x="435" y="491" on="1"/>
        <pt x="378" y="435" on="0"/>
        <pt x="302" y="425" on="1"/>
        <pt x="388" y="371" on="0"/>
        <pt x="426" y="333" on="1"/>
        <pt x="493" y="266" on="0"/>
        <pt x="493" y="194" on="1"/>
        <pt x="493" y="105" on="0"/>
        <pt x="443" y="56" on="1"/>
        <pt x="395" y="7" on="0"/>
        <pt x="309" y="7" on="1"/>
        <pt x="289" y="7" on="0"/>
        <pt x="253" y="20" on="0"/>
        <pt x="214" y="41" on="0"/>
        <pt x="204" y="45" on="1"/>
        <pt x="193" y="49" on="0"/>
        <pt x="190" y="59" on="1"/>
        <pt x="157" y="149" on="1"/>
        <pt x="155" y="153" on="0"/>
        <pt x="155" y="157" on="1"/>
        <pt x="152" y="226" on="1"/>
        <pt x="152" y="226" on="0"/>
        <pt x="152" y="227" on="1"/>
        <pt x="152" y="237" on="0"/>
        <pt x="167" y="252" on="0"/>
        <pt x="187" y="252" on="0"/>
        <pt x="195" y="245" on="1"/>
        <pt x="202" y="238" on="0"/>
        <pt x="202" y="228" on="1"/>
        <pt x="205" y="163" on="1"/>
        <pt x="233" y="87" on="1"/>
        <pt x="240" y="84" on="0"/>
        <pt x="254" y="76" on="1"/>
        <pt x="292" y="57" on="0"/>
        <pt x="309" y="57" on="1"/>
        <pt x="374" y="57" on="0"/>
        <pt x="408" y="91" on="1"/>
        <pt x="443" y="126" on="0"/>
        <pt x="443" y="194" on="1"/>
        <pt x="443" y="245" on="0"/>
        <pt x="391" y="297" on="1"/>
        <pt x="357" y="332" on="0"/>
        <pt x="278" y="381" on="1"/>
        <pt x="238" y="407" on="0"/>
        <pt x="227" y="417" on="1"/>
        <pt x="218" y="426" on="0"/>
        <pt x="216" y="437" on="1"/>
        <pt x="204" y="446" on="0"/>
        <pt x="204" y="460" on="1"/>
        <pt x="204" y="479" on="0"/>
        <pt x="226" y="490" on="1"/>
        <pt x="231" y="492" on="0"/>
        <pt x="239" y="495" on="0"/>
        <pt x="243" y="495" on="1"/>
        <pt x="252" y="495" on="0"/>
        <pt x="266" y="483" on="0"/>
        <pt x="268" y="474" on="1"/>
        <pt x="272" y="473" on="0"/>
        <pt x="277" y="473" on="1"/>
        <pt x="309" y="473" on="0"/>
        <pt x="375" y="502" on="0"/>
        <pt x="399" y="527" on="1"/>
        <pt x="425" y="552" on="0"/>
        <pt x="434" y="581" on="1"/>
        <pt x="433" y="633" on="0"/>
        <pt x="372" y="710" on="0"/>
        <pt x="326" y="718" on="1"/>
        <pt x="312" y="721" on="0"/>
        <pt x="292" y="732" on="1"/>
        <pt x="279" y="739" on="0"/>
      </contour>
    </TTGlyph>
    <TTGlyph name="C" xMin="49" yMin="-28" xMax="436" yMax="805">
      <contour>
        <pt x="418" y="686" on="1"/>
        <pt x="418" y="676" on="0"/>
        <pt x="403" y="661" on="0"/>
        <pt x="393" y="661" on="1"/>
        <pt x="384" y="661" on="0"/>
        <pt x="369" y="674" on="0"/>
        <pt x="368" y="683" on="1"/>
        <pt x="365" y="712" on="0"/>
        <pt x="352" y="725" on="1"/>
        <pt x="348" y="729" on="0"/>
        <pt x="344" y="730" on="1"/>
        <pt x="333" y="733" on="0"/>
        <pt x="302" y="751" on="0"/>
        <pt x="296" y="753" on="1"/>
        <pt x="291" y="755" on="0"/>
        <pt x="289" y="755" on="1"/>
        <pt x="240" y="755" on="0"/>
        <pt x="212" y="727" on="1"/>
        <pt x="186" y="701" on="0"/>
        <pt x="158" y="616" on="1"/>
        <pt x="134" y="542" on="0"/>
        <pt x="113" y="513" on="1"/>
        <pt x="100" y="387" on="1"/>
        <pt x="104" y="248" on="1"/>
        <pt x="112" y="195" on="1"/>
        <pt x="119" y="164" on="0"/>
        <pt x="125" y="152" on="1"/>
        <pt x="130" y="144" on="0"/>
        <pt x="139" y="119" on="1"/>
        <pt x="161" y="63" on="0"/>
        <pt x="176" y="49" on="1"/>
        <pt x="182" y="43" on="0"/>
        <pt x="185" y="43" on="1"/>
        <pt x="199" y="43" on="1"/>
        <pt x="204" y="43" on="0"/>
        <pt x="209" y="41" on="1"/>
        <pt x="251" y="23" on="0"/>
        <pt x="295" y="23" on="1"/>
        <pt x="318" y="23" on="0"/>
        <pt x="331" y="29" on="1"/>
        <pt x="342" y="34" on="0"/>
        <pt x="363" y="53" on="1"/>
        <pt x="367" y="57" on="0"/>
        <pt x="370" y="59" on="1"/>
        <pt x="384" y="97" on="1"/>
        <pt x="386" y="153" on="1"/>
        <pt x="386" y="163" on="0"/>
        <pt x="393" y="170" on="1"/>
        <pt x="401" y="177" on="0"/>
        <pt x="421" y="177" on="0"/>
        <pt x="436" y="162" on="0"/>
        <pt x="436" y="152" on="1"/>
        <pt x="436" y="152" on="0"/>
        <pt x="436" y="151" on="1"/>
        <pt x="434" y="91" on="1"/>
        <pt x="434" y="87" on="0"/>
        <pt x="432" y="83" on="1"/>
        <pt x="414" y="35" on="1"/>
        <pt x="412" y="29" on="0"/>
        <pt x="407" y="25" on="1"/>
        <pt x="403" y="22" on="0"/>
        <pt x="386" y="7" on="0"/>
        <pt x="377" y="-1" on="0"/>
        <pt x="361" y="-12" on="0"/>
        <pt x="353" y="-16" on="1"/>
        <pt x="329" y="-27" on="0"/>
        <pt x="295" y="-27" on="1"/>
        <pt x="243" y="-27" on="0"/>
        <pt x="194" y="-7" on="1"/>
        <pt x="185" y="-7" on="1"/>
        <pt x="161" y="-7" on="0"/>
        <pt x="141" y="13" on="1"/>
        <pt x="119" y="35" on="0"/>
        <pt x="93" y="101" on="1"/>
        <pt x="84" y="122" on="0"/>
        <pt x="81" y="128" on="1"/>
        <pt x="71" y="146" on="0"/>
        <pt x="63" y="184" on="1"/>
        <pt x="62" y="185" on="0"/>
        <pt x="62" y="186" on="1"/>
        <pt x="54" y="242" on="1"/>
        <pt x="54" y="244" on="0"/>
        <pt x="54" y="245" on="1"/>
        <pt x="50" y="387" on="1"/>
        <pt x="50" y="388" on="0"/>
        <pt x="50" y="388" on="1"/>
        <pt x="50" y="389" on="0"/>
        <pt x="50" y="391" on="1"/>
        <pt x="64" y="525" on="1"/>
        <pt x="65" y="532" on="0"/>
        <pt x="69" y="537" on="1"/>
        <pt x="88" y="561" on="0"/>
        <pt x="111" y="632" on="1"/>
        <pt x="121" y="665" on="0"/>
        <pt x="132" y="694" on="0"/>
        <pt x="159" y="745" on="0"/>
        <pt x="176" y="762" on="1"/>
        <pt x="219" y="805" on="0"/>
        <pt x="289" y="805" on="1"/>
        <pt x="307" y="805" on="0"/>
        <pt x="338" y="788" on="1"/>
        <pt x="353" y="780" on="0"/>
        <pt x="358" y="778" on="1"/>
        <pt x="375" y="773" on="0"/>
        <pt x="387" y="760" on="1"/>
        <pt x="412" y="736" on="0"/>
        <pt x="418" y="689" on="1"/>
        <pt x="418" y="688" on="0"/>
      </contour>
    </TTGlyph>
    <TTGlyph name="D" xMin="50" yMin="-27" xMax="454" yMax="787">
      <contour>
        <pt x="191" y="103" on="1"/>
        <pt x="248" y="99" on="0"/>
        <pt x="255" y="99" on="1"/>
        <pt x="287" y="99" on="0"/>
        <pt x="310" y="123" on="1"/>
        <pt x="338" y="150" on="0"/>
        <pt x="373" y="244" on="1"/>
        <pt x="385" y="277" on="0"/>
        <pt x="391" y="292" on="1"/>
        <pt x="403" y="423" on="1"/>
        <pt x="322" y="659" on="1"/>
        <pt x="310" y="696" on="0"/>
        <pt x="237" y="737" on="0"/>
        <pt x="189" y="737" on="1"/>
        <pt x="143" y="737" on="0"/>
        <pt x="120" y="714" on="1"/>
        <pt x="105" y="699" on="0"/>
        <pt x="99" y="673" on="1"/>
        <pt x="98" y="665" on="0"/>
        <pt x="84" y="653" on="0"/>
        <pt x="75" y="653" on="1"/>
        <pt x="65" y="653" on="0"/>
        <pt x="50" y="668" on="0"/>
        <pt x="50" y="678" on="1"/>
        <pt x="50" y="681" on="0"/>
        <pt x="51" y="683" on="1"/>
        <pt x="59" y="724" on="0"/>
        <pt x="85" y="750" on="1"/>
        <pt x="122" y="787" on="0"/>
        <pt x="189" y="787" on="1"/>
        <pt x="280" y="787" on="0"/>
        <pt x="333" y="733" on="1"/>
        <pt x="358" y="709" on="0"/>
        <pt x="370" y="675" on="1"/>
        <pt x="452" y="435" on="1"/>
        <pt x="453" y="431" on="0"/>
        <pt x="453" y="426" on="1"/>
        <pt x="453" y="425" on="0"/>
        <pt x="453" y="424" on="1"/>
        <pt x="440" y="283" on="1"/>
        <pt x="440" y="279" on="0"/>
        <pt x="438" y="276" on="1"/>
        <pt x="432" y="261" on="0"/>
        <pt x="420" y="227" on="1"/>
        <pt x="406" y="191" on="0"/>
        <pt x="394" y="159" on="0"/>
        <pt x="363" y="105" on="0"/>
        <pt x="346" y="87" on="1"/>
        <pt x="307" y="49" on="0"/>
        <pt x="255" y="49" on="1"/>
        <pt x="252" y="49" on="0"/>
        <pt x="185" y="53" on="1"/>
        <pt x="178" y="15" on="0"/>
        <pt x="161" y="-15" on="1"/>
        <pt x="153" y="-27" on="0"/>
        <pt x="139" y="-27" on="1"/>
        <pt x="135" y="-27" on="0"/>
        <pt x="131" y="-26" on="1"/>
        <pt x="126" y="-24" on="0"/>
        <pt x="100" y="-18" on="0"/>
        <pt x="93" y="-15" on="1"/>
        <pt x="80" y="-10" on="0"/>
        <pt x="73" y="-2" on="1"/>
        <pt x="60" y="11" on="0"/>
        <pt x="60" y="29" on="1"/>
        <pt x="60" y="31" on="0"/>
        <pt x="60" y="32" on="1"/>
        <pt x="63" y="62" on="0"/>
        <pt x="81" y="80" on="1"/>
        <pt x="101" y="100" on="0"/>
        <pt x="141" y="104" on="1"/>
        <pt x="141" y="112" on="0"/>
        <pt x="141" y="122" on="1"/>
        <pt x="141" y="166" on="0"/>
        <pt x="116" y="358" on="0"/>
        <pt x="116" y="403" on="1"/>
        <pt x="116" y="405" on="0"/>
        <pt x="116" y="408" on="1"/>
        <pt x="116" y="676" on="1"/>
        <pt x="116" y="686" on="0"/>
        <pt x="131" y="701" on="0"/>
        <pt x="151" y="701" on="0"/>
        <pt x="166" y="686" on="0"/>
        <pt x="166" y="676" on="1"/>
        <pt x="166" y="408" on="1"/>
        <pt x="166" y="405" on="0"/>
        <pt x="166" y="403" on="1"/>
        <pt x="166" y="360" on="0"/>
        <pt x="191" y="168" on="0"/>
        <pt x="191" y="123" on="1"/>
        <pt x="191" y="113" on="0"/>
      </contour>
      <contour>
        <pt x="126" y="28" on="1"/>
        <pt x="130" y="39" on="0"/>
        <pt x="134" y="52" on="1"/>
        <pt x="121" y="49" on="0"/>
        <pt x="116" y="44" on="1"/>
        <pt x="112" y="40" on="0"/>
        <pt x="110" y="32" on="1"/>
        <pt x="115" y="30" on="0"/>
      </contour>
    </TTGlyph>
    <TTGlyph name="E" xMin="50" yMin="-23" xMax="423" yMax="795">
      <contour>
        <pt x="54" y="578" on="1"/>
        <pt x="54" y="581" on="0"/>
        <pt x="53" y="592" on="0"/>
        <pt x="53" y="595" on="1"/>
        <pt x="53" y="663" on="0"/>
        <pt x="101" y="728" on="1"/>
        <pt x="109" y="742" on="0"/>
        <pt x="122" y="755" on="1"/>
        <pt x="155" y="788" on="0"/>
        <pt x="205" y="795" on="1"/>
        <pt x="206" y="795" on="0"/>
        <pt x="208" y="795" on="1"/>
        <pt x="225" y="795" on="0"/>
        <pt x="286" y="789" on="0"/>
        <pt x="300" y="789" on="1"/>
        <pt x="318" y="789" on="0"/>
        <pt x="346" y="773" on="1"/>
        <pt x="360" y="765" on="0"/>
        <pt x="364" y="765" on="1"/>
        <pt x="373" y="764" on="0"/>
        <pt x="387" y="750" on="0"/>
        <pt x="387" y="740" on="1"/>
        <pt x="387" y="730" on="0"/>
        <pt x="372" y="715" on="0"/>
        <pt x="362" y="715" on="1"/>
        <pt x="361" y="715" on="0"/>
        <pt x="360" y="715" on="1"/>
        <pt x="345" y="716" on="0"/>
        <pt x="321" y="730" on="1"/>
        <pt x="305" y="739" on="0"/>
        <pt x="300" y="739" on="1"/>
        <pt x="284" y="739" on="0"/>
        <pt x="224" y="745" on="0"/>
        <pt x="210" y="745" on="1"/>
        <pt x="163" y="738" on="0"/>
        <pt x="144" y="702" on="1"/>
        <pt x="143" y="701" on="0"/>
        <pt x="142" y="699" on="1"/>
        <pt x="103" y="647" on="0"/>
        <pt x="103" y="595" on="1"/>
        <pt x="104" y="587" on="0"/>
        <pt x="104" y="568" on="0"/>
        <pt x="101" y="531" on="0"/>
        <pt x="101" y="522" on="1"/>
        <pt x="101" y="486" on="0"/>
        <pt x="120" y="473" on="1"/>
        <pt x="123" y="470" on="0"/>
        <pt x="128" y="466" on="0"/>
        <pt x="134" y="459" on="0"/>
        <pt x="136" y="457" on="1"/>
        <pt x="145" y="457" on="0"/>
        <pt x="165" y="451" on="0"/>
        <pt x="168" y="451" on="1"/>
        <pt x="178" y="449" on="0"/>
        <pt x="194" y="442" on="1"/>
        <pt x="205" y="437" on="0"/>
        <pt x="210" y="437" on="1"/>
        <pt x="238" y="437" on="1"/>
        <pt x="248" y="437" on="0"/>
        <pt x="263" y="422" on="0"/>
        <pt x="263" y="412" on="1"/>
        <pt x="263" y="403" on="0"/>
        <pt x="252" y="390" on="0"/>
        <pt x="244" y="388" on="1"/>
        <pt x="226" y="383" on="0"/>
        <pt x="180" y="356" on="0"/>
        <pt x="162" y="339" on="1"/>
        <pt x="153" y="329" on="0"/>
        <pt x="146" y="320" on="1"/>
        <pt x="144" y="317" on="0"/>
        <pt x="141" y="314" on="1"/>
        <pt x="135" y="309" on="0"/>
        <pt x="129" y="304" on="1"/>
        <pt x="100" y="275" on="0"/>
        <pt x="100" y="229" on="1"/>
        <pt x="100" y="226" on="0"/>
        <pt x="101" y="215" on="0"/>
        <pt x="101" y="212" on="1"/>
        <pt x="101" y="207" on="0"/>
        <pt x="100" y="188" on="0"/>
        <pt x="100" y="184" on="1"/>
        <pt x="100" y="147" on="0"/>
        <pt x="111" y="129" on="1"/>
        <pt x="113" y="126" on="0"/>
        <pt x="114" y="123" on="1"/>
        <pt x="122" y="97" on="0"/>
        <pt x="143" y="76" on="1"/>
        <pt x="186" y="32" on="0"/>
        <pt x="254" y="31" on="1"/>
        <pt x="258" y="31" on="0"/>
        <pt x="261" y="30" on="1"/>
        <pt x="271" y="27" on="0"/>
        <pt x="281" y="27" on="1"/>
        <pt x="312" y="27" on="0"/>
        <pt x="340" y="55" on="1"/>
        <pt x="346" y="61" on="0"/>
        <pt x="352" y="69" on="1"/>
        <pt x="371" y="93" on="1"/>
        <pt x="377" y="107" on="0"/>
        <pt x="380" y="110" on="1"/>
        <pt x="388" y="117" on="0"/>
        <pt x="408" y="117" on="0"/>
        <pt x="423" y="102" on="0"/>
        <pt x="423" y="92" on="1"/>
        <pt x="423" y="86" on="0"/>
        <pt x="420" y="81" on="1"/>
        <pt x="413" y="67" on="0"/>
        <pt x="412" y="65" on="1"/>
        <pt x="383" y="28" on="0"/>
        <pt x="375" y="20" on="1"/>
        <pt x="333" y="-23" on="0"/>
        <pt x="280" y="-23" on="1"/>
        <pt x="265" y="-23" on="0"/>
        <pt x="250" y="-19" on="1"/>
        <pt x="164" y="-16" on="0"/>
        <pt x="107" y="41" on="1"/>
        <pt x="79" y="69" on="0"/>
        <pt x="67" y="106" on="1"/>
        <pt x="50" y="136" on="0"/>
        <pt x="50" y="181" on="1"/>
        <pt x="50" y="188" on="0"/>
        <pt x="51" y="211" on="1"/>
        <pt x="50" y="220" on="0"/>
        <pt x="50" y="228" on="1"/>
        <pt x="50" y="295" on="0"/>
        <pt x="94" y="339" on="1"/>
        <pt x="100" y="346" on="0"/>
        <pt x="108" y="351" on="1"/>
        <pt x="128" y="379" on="0"/>
        <pt x="160" y="401" on="1"/>
        <pt x="154" y="402" on="0"/>
        <pt x="144" y="405" on="1"/>
        <pt x="138" y="407" on="0"/>
        <pt x="136" y="407" on="1"/>
        <pt x="134" y="407" on="0"/>
        <pt x="132" y="407" on="1"/>
        <pt x="124" y="407" on="0"/>
        <pt x="111" y="413" on="0"/>
        <pt x="105" y="418" on="0"/>
        <pt x="93" y="430" on="0"/>
        <pt x="91" y="432" on="1"/>
        <pt x="84" y="437" on="0"/>
        <pt x="78" y="442" on="1"/>
        <pt x="51" y="470" on="0"/>
        <pt x="51" y="519" on="1"/>
        <pt x="51" y="530" on="0"/>
        <pt x="54" y="569" on="0"/>
      </contour>
    </TTGlyph>
    <TTGlyph name="F" xMin="50" yMin="-20" xMax="532" yMax="829">
      <contour>
        <pt x="103" y="399" on="1"/>
        <pt x="93" y="399" on="0"/>
        <pt x="78" y="414" on="0"/>
        <pt x="78" y="434" on="0"/>
        <pt x="93" y="449" on="0"/>
        <pt x="103" y="449" on="1"/>
        <pt x="111" y="449" on="1"/>
        <pt x="128" y="449" on="0"/>
        <pt x="164" y="442" on="0"/>
        <pt x="206" y="431" on="0"/>
        <pt x="216" y="429" on="1"/>
        <pt x="300" y="425" on="1"/>
        <pt x="310" y="425" on="0"/>
        <pt x="317" y="418" on="1"/>
        <pt x="324" y="410" on="0"/>
        <pt x="324" y="390" on="0"/>
        <pt x="309" y="375" on="0"/>
        <pt x="299" y="375" on="1"/>
        <pt x="298" y="375" on="0"/>
        <pt x="298" y="375" on="1"/>
        <pt x="212" y="379" on="1"/>
        <pt x="210" y="379" on="0"/>
        <pt x="208" y="379" on="1"/>
        <pt x="198" y="381" on="0"/>
        <pt x="157" y="392" on="0"/>
        <pt x="124" y="399" on="0"/>
        <pt x="111" y="399" on="1"/>
      </contour>
      <contour>
        <pt x="161" y="286" on="1"/>
        <pt x="161" y="327" on="0"/>
        <pt x="170" y="489" on="0"/>
        <pt x="170" y="529" on="1"/>
        <pt x="170" y="539" on="0"/>
        <pt x="170" y="549" on="1"/>
        <pt x="168" y="567" on="0"/>
        <pt x="167" y="637" on="0"/>
        <pt x="167" y="651" on="1"/>
        <pt x="140" y="662" on="0"/>
        <pt x="108" y="707" on="1"/>
        <pt x="95" y="725" on="0"/>
        <pt x="90" y="729" on="1"/>
        <pt x="82" y="737" on="0"/>
        <pt x="82" y="748" on="1"/>
        <pt x="82" y="748" on="0"/>
        <pt x="82" y="749" on="1"/>
        <pt x="84" y="805" on="1"/>
        <pt x="84" y="815" on="0"/>
        <pt x="91" y="822" on="1"/>
        <pt x="99" y="829" on="0"/>
        <pt x="109" y="829" on="1"/>
        <pt x="119" y="829" on="0"/>
        <pt x="126" y="822" on="1"/>
        <pt x="176" y="774" on="1"/>
        <pt x="177" y="773" on="0"/>
        <pt x="178" y="772" on="1"/>
        <pt x="203" y="743" on="0"/>
        <pt x="211" y="698" on="1"/>
        <pt x="222" y="700" on="0"/>
        <pt x="233" y="706" on="1"/>
        <pt x="253" y="716" on="0"/>
        <pt x="297" y="745" on="1"/>
        <pt x="326" y="764" on="0"/>
        <pt x="350" y="780" on="0"/>
        <pt x="400" y="803" on="0"/>
        <pt x="421" y="807" on="1"/>
        <pt x="431" y="808" on="0"/>
        <pt x="440" y="808" on="1"/>
        <pt x="476" y="808" on="0"/>
        <pt x="497" y="787" on="1"/>
        <pt x="513" y="771" on="0"/>
        <pt x="515" y="748" on="1"/>
        <pt x="521" y="739" on="0"/>
        <pt x="525" y="718" on="1"/>
        <pt x="527" y="707" on="0"/>
        <pt x="529" y="705" on="1"/>
        <pt x="532" y="699" on="0"/>
        <pt x="532" y="692" on="1"/>
        <pt x="532" y="682" on="0"/>
        <pt x="517" y="667" on="0"/>
        <pt x="507" y="667" on="1"/>
        <pt x="493" y="667" on="0"/>
        <pt x="485" y="679" on="1"/>
        <pt x="480" y="689" on="0"/>
        <pt x="476" y="708" on="1"/>
        <pt x="473" y="722" on="0"/>
        <pt x="471" y="725" on="1"/>
        <pt x="466" y="731" on="0"/>
        <pt x="466" y="748" on="0"/>
        <pt x="462" y="752" on="1"/>
        <pt x="455" y="758" on="0"/>
        <pt x="439" y="758" on="1"/>
        <pt x="434" y="758" on="0"/>
        <pt x="429" y="757" on="1"/>
        <pt x="397" y="752" on="0"/>
        <pt x="325" y="703" on="1"/>
        <pt x="278" y="672" on="0"/>
        <pt x="255" y="661" on="1"/>
        <pt x="234" y="651" on="0"/>
        <pt x="217" y="647" on="1"/>
        <pt x="217" y="637" on="0"/>
        <pt x="218" y="569" on="0"/>
        <pt x="220" y="552" on="1"/>
        <pt x="220" y="549" on="0"/>
        <pt x="220" y="529" on="1"/>
        <pt x="220" y="488" on="0"/>
        <pt x="211" y="326" on="0"/>
        <pt x="211" y="286" on="1"/>
        <pt x="211" y="261" on="0"/>
        <pt x="212" y="239" on="1"/>
        <pt x="212" y="239" on="0"/>
        <pt x="212" y="238" on="1"/>
        <pt x="212" y="235" on="0"/>
        <pt x="211" y="233" on="1"/>
        <pt x="209" y="222" on="0"/>
        <pt x="209" y="197" on="1"/>
        <pt x="209" y="185" on="0"/>
        <pt x="211" y="134" on="0"/>
        <pt x="211" y="121" on="1"/>
        <pt x="211" y="92" on="0"/>
        <pt x="207" y="71" on="1"/>
        <pt x="201" y="27" on="0"/>
        <pt x="178" y="5" on="1"/>
        <pt x="154" y="-19" on="0"/>
        <pt x="115" y="-19" on="1"/>
        <pt x="113" y="-19" on="0"/>
        <pt x="103" y="-19" on="1"/>
        <pt x="76" y="-18" on="0"/>
        <pt x="63" y="-10" on="1"/>
        <pt x="50" y="-2" on="0"/>
        <pt x="50" y="12" on="1"/>
        <pt x="50" y="22" on="0"/>
        <pt x="65" y="37" on="0"/>
        <pt x="75" y="37" on="1"/>
        <pt x="82" y="37" on="0"/>
        <pt x="87" y="34" on="1"/>
        <pt x="91" y="32" on="0"/>
        <pt x="106" y="31" on="1"/>
        <pt x="115" y="31" on="0"/>
        <pt x="116" y="31" on="1"/>
        <pt x="134" y="31" on="0"/>
        <pt x="143" y="40" on="1"/>
        <pt x="154" y="51" on="0"/>
        <pt x="158" y="79" on="1"/>
        <pt x="161" y="96" on="0"/>
        <pt x="161" y="122" on="1"/>
        <pt x="161" y="135" on="0"/>
        <pt x="159" y="187" on="0"/>
        <pt x="159" y="200" on="1"/>
        <pt x="159" y="224" on="0"/>
        <pt x="162" y="240" on="1"/>
        <pt x="161" y="262" on="0"/>
      </contour>
    </TTGlyph>
    <TTGlyph name="G" xMin="50" yMin="-22" xMax="515" yMax="799">
      <contour>
        <pt x="324" y="255" on="0"/>
        <pt x="324" y="251" on="0"/>
        <pt x="326" y="237" on="0"/>
        <pt x="326" y="233" on="1"/>
        <pt x="326" y="224" on="0"/>
        <pt x="342" y="201" on="1"/>
        <pt x="368" y="162" on="0"/>
        <pt x="368" y="135" on="1"/>
        <pt x="368" y="136" on="0"/>
        <pt x="369" y="136" on="0"/>
        <pt x="369" y="135" on="1"/>
        <pt x="369" y="122" on="0"/>
        <pt x="346" y="45" on="0"/>
        <pt x="329" y="28" on="1"/>
        <pt x="285" y="-20" on="0"/>
        <pt x="214" y="-22" on="1"/>
        <pt x="213" y="-22" on="0"/>
        <pt x="213" y="-22" on="1"/>
        <pt x="208" y="-22" on="0"/>
        <pt x="204" y="-20" on="1"/>
        <pt x="179" y="-10" on="0"/>
        <pt x="158" y="11" on="1"/>
        <pt x="104" y="64" on="0"/>
        <pt x="79" y="190" on="1"/>
        <pt x="62" y="278" on="0"/>
        <pt x="54" y="444" on="1"/>
        <pt x="53" y="471" on="0"/>
        <pt x="52" y="482" on="1"/>
        <pt x="50" y="502" on="0"/>
        <pt x="50" y="523" on="1"/>
        <pt x="50" y="586" on="0"/>
        <pt x="90" y="699" on="0"/>
        <pt x="129" y="738" on="1"/>
        <pt x="190" y="799" on="0"/>
        <pt x="281" y="799" on="1"/>
        <pt x="304" y="799" on="0"/>
        <pt x="328" y="795" on="1"/>
        <pt x="339" y="794" on="0"/>
        <pt x="361" y="790" on="0"/>
        <pt x="384" y="779" on="0"/>
        <pt x="399" y="772" on="0"/>
        <pt x="422" y="755" on="0"/>
        <pt x="431" y="749" on="0"/>
        <pt x="455" y="729" on="0"/>
        <pt x="457" y="727" on="1"/>
        <pt x="466" y="720" on="0"/>
        <pt x="466" y="708" on="1"/>
        <pt x="466" y="698" on="0"/>
        <pt x="451" y="683" on="0"/>
        <pt x="441" y="683" on="1"/>
        <pt x="432" y="683" on="0"/>
        <pt x="425" y="689" on="1"/>
        <pt x="383" y="723" on="0"/>
        <pt x="366" y="732" on="1"/>
        <pt x="343" y="744" on="0"/>
        <pt x="324" y="745" on="1"/>
        <pt x="322" y="745" on="0"/>
        <pt x="321" y="745" on="1"/>
        <pt x="299" y="749" on="0"/>
        <pt x="280" y="749" on="1"/>
        <pt x="210" y="749" on="0"/>
        <pt x="164" y="703" on="1"/>
        <pt x="133" y="672" on="0"/>
        <pt x="100" y="576" on="0"/>
        <pt x="100" y="522" on="1"/>
        <pt x="100" y="504" on="0"/>
        <pt x="102" y="487" on="1"/>
        <pt x="102" y="484" on="0"/>
        <pt x="104" y="446" on="1"/>
        <pt x="111" y="284" on="0"/>
        <pt x="128" y="200" on="1"/>
        <pt x="151" y="89" on="0"/>
        <pt x="193" y="46" on="1"/>
        <pt x="205" y="35" on="0"/>
        <pt x="218" y="28" on="1"/>
        <pt x="265" y="32" on="0"/>
        <pt x="293" y="62" on="1"/>
        <pt x="293" y="62" on="0"/>
        <pt x="293" y="63" on="1"/>
        <pt x="318" y="87" on="0"/>
        <pt x="318" y="135" on="1"/>
        <pt x="318" y="147" on="0"/>
        <pt x="300" y="173" on="1"/>
        <pt x="276" y="209" on="0"/>
        <pt x="276" y="233" on="1"/>
        <pt x="276" y="236" on="0"/>
        <pt x="274" y="249" on="0"/>
        <pt x="274" y="253" on="1"/>
        <pt x="274" y="276" on="0"/>
        <pt x="291" y="293" on="1"/>
        <pt x="314" y="316" on="0"/>
        <pt x="353" y="316" on="1"/>
        <pt x="364" y="316" on="0"/>
        <pt x="405" y="319" on="0"/>
        <pt x="426" y="319" on="0"/>
        <pt x="434" y="317" on="1"/>
        <pt x="458" y="314" on="0"/>
        <pt x="471" y="301" on="1"/>
        <pt x="488" y="284" on="0"/>
        <pt x="488" y="254" on="1"/>
        <pt x="488" y="221" on="0"/>
        <pt x="464" y="166" on="1"/>
        <pt x="444" y="120" on="0"/>
        <pt x="444" y="98" on="1"/>
        <pt x="444" y="96" on="0"/>
        <pt x="452" y="88" on="1"/>
        <pt x="455" y="85" on="0"/>
        <pt x="456" y="84" on="1"/>
        <pt x="491" y="81" on="1"/>
        <pt x="501" y="80" on="0"/>
        <pt x="514" y="66" on="0"/>
        <pt x="514" y="56" on="1"/>
        <pt x="514" y="46" on="0"/>
        <pt x="499" y="31" on="0"/>
        <pt x="489" y="31" on="1"/>
        <pt x="488" y="31" on="0"/>
        <pt x="487" y="31" on="1"/>
        <pt x="441" y="35" on="1"/>
        <pt x="429" y="36" on="0"/>
        <pt x="422" y="46" on="1"/>
        <pt x="421" y="48" on="0"/>
        <pt x="415" y="54" on="1"/>
        <pt x="394" y="76" on="0"/>
        <pt x="394" y="98" on="1"/>
        <pt x="394" y="131" on="0"/>
        <pt x="418" y="186" on="1"/>
        <pt x="438" y="232" on="0"/>
        <pt x="438" y="254" on="1"/>
        <pt x="436" y="265" on="1"/>
        <pt x="434" y="267" on="0"/>
        <pt x="428" y="268" on="1"/>
        <pt x="423" y="268" on="0"/>
        <pt x="416" y="268" on="1"/>
        <pt x="407" y="268" on="0"/>
        <pt x="364" y="266" on="0"/>
        <pt x="353" y="266" on="1"/>
        <pt x="335" y="266" on="0"/>
        <pt x="326" y="257" on="1"/>
      </contour>
    </TTGlyph>
    <TTGlyph name="H" xMin="50" yMin="-21" xMax="772" yMax="817">
      <contour>
        <pt x="538" y="515" on="1"/>
        <pt x="531" y="577" on="0"/>
        <pt x="531" y="605" on="1"/>
        <pt x="531" y="617" on="0"/>
        <pt x="532" y="629" on="1"/>
        <pt x="532" y="662" on="0"/>
        <pt x="545" y="716" on="1"/>
        <pt x="551" y="744" on="0"/>
        <pt x="559" y="764" on="1"/>
        <pt x="568" y="785" on="0"/>
        <pt x="579" y="796" on="1"/>
        <pt x="592" y="809" on="0"/>
        <pt x="609" y="809" on="1"/>
        <pt x="621" y="809" on="0"/>
        <pt x="629" y="801" on="1"/>
        <pt x="634" y="796" on="0"/>
        <pt x="639" y="781" on="0"/>
        <pt x="640" y="753" on="1"/>
        <pt x="646" y="719" on="0"/>
        <pt x="646" y="686" on="1"/>
        <pt x="646" y="612" on="0"/>
        <pt x="615" y="547" on="1"/>
        <pt x="604" y="524" on="0"/>
        <pt x="589" y="502" on="1"/>
        <pt x="590" y="500" on="0"/>
        <pt x="590" y="499" on="1"/>
        <pt x="604" y="452" on="0"/>
        <pt x="605" y="331" on="1"/>
        <pt x="606" y="270" on="0"/>
        <pt x="611" y="203" on="0"/>
        <pt x="633" y="119" on="0"/>
        <pt x="654" y="98" on="1"/>
        <pt x="668" y="85" on="0"/>
        <pt x="686" y="77" on="1"/>
        <pt x="698" y="72" on="0"/>
        <pt x="751" y="45" on="1"/>
        <pt x="760" y="42" on="0"/>
        <pt x="765" y="38" on="1"/>
        <pt x="772" y="30" on="0"/>
        <pt x="772" y="10" on="0"/>
        <pt x="757" y="-5" on="0"/>
        <pt x="747" y="-5" on="1"/>
        <pt x="743" y="-5" on="0"/>
        <pt x="733" y="-2" on="1"/>
        <pt x="731" y="-1" on="0"/>
        <pt x="707" y="11" on="0"/>
        <pt x="675" y="27" on="0"/>
        <pt x="668" y="31" on="1"/>
        <pt x="640" y="42" on="0"/>
        <pt x="619" y="63" on="1"/>
        <pt x="581" y="100" on="0"/>
        <pt x="567" y="170" on="1"/>
        <pt x="557" y="220" on="0"/>
        <pt x="556" y="330" on="1"/>
        <pt x="554" y="413" on="0"/>
        <pt x="549" y="450" on="1"/>
        <pt x="530" y="429" on="0"/>
        <pt x="479" y="382" on="0"/>
        <pt x="443" y="352" on="0"/>
        <pt x="377" y="299" on="0"/>
        <pt x="364" y="288" on="1"/>
        <pt x="367" y="217" on="0"/>
        <pt x="367" y="177" on="1"/>
        <pt x="367" y="132" on="0"/>
        <pt x="362" y="99" on="1"/>
        <pt x="352" y="34" on="0"/>
        <pt x="322" y="4" on="1"/>
        <pt x="297" y="-21" on="0"/>
        <pt x="261" y="-21" on="1"/>
        <pt x="213" y="-21" on="0"/>
        <pt x="177" y="15" on="1"/>
        <pt x="151" y="42" on="0"/>
        <pt x="151" y="75" on="1"/>
        <pt x="151" y="84" on="0"/>
        <pt x="153" y="92" on="1"/>
        <pt x="169" y="156" on="0"/>
        <pt x="252" y="259" on="0"/>
        <pt x="313" y="311" on="1"/>
        <pt x="304" y="480" on="0"/>
        <pt x="304" y="531" on="1"/>
        <pt x="304" y="569" on="0"/>
        <pt x="306" y="603" on="1"/>
        <pt x="304" y="621" on="0"/>
        <pt x="304" y="644" on="1"/>
        <pt x="304" y="676" on="0"/>
        <pt x="308" y="705" on="1"/>
        <pt x="267" y="707" on="0"/>
        <pt x="204" y="739" on="1"/>
        <pt x="147" y="767" on="0"/>
        <pt x="113" y="767" on="1"/>
        <pt x="108" y="767" on="0"/>
        <pt x="100" y="764" on="1"/>
        <pt x="100" y="718" on="1"/>
        <pt x="110" y="671" on="1"/>
        <pt x="110" y="668" on="0"/>
        <pt x="110" y="666" on="1"/>
        <pt x="110" y="656" on="0"/>
        <pt x="95" y="641" on="0"/>
        <pt x="85" y="641" on="1"/>
        <pt x="76" y="641" on="0"/>
        <pt x="62" y="653" on="0"/>
        <pt x="60" y="661" on="1"/>
        <pt x="50" y="711" on="1"/>
        <pt x="50" y="714" on="0"/>
        <pt x="50" y="716" on="1"/>
        <pt x="50" y="782" on="1"/>
        <pt x="50" y="790" on="0"/>
        <pt x="61" y="804" on="0"/>
        <pt x="68" y="806" on="1"/>
        <pt x="72" y="807" on="0"/>
        <pt x="88" y="813" on="0"/>
        <pt x="104" y="817" on="0"/>
        <pt x="113" y="817" on="1"/>
        <pt x="135" y="817" on="0"/>
        <pt x="180" y="805" on="0"/>
        <pt x="205" y="794" on="0"/>
        <pt x="227" y="783" on="1"/>
        <pt x="284" y="755" on="0"/>
        <pt x="317" y="755" on="1"/>
        <pt x="318" y="755" on="0"/>
        <pt x="320" y="755" on="1"/>
        <pt x="332" y="787" on="0"/>
        <pt x="354" y="795" on="1"/>
        <pt x="358" y="797" on="0"/>
        <pt x="363" y="797" on="1"/>
        <pt x="373" y="797" on="0"/>
        <pt x="388" y="782" on="0"/>
        <pt x="388" y="772" on="1"/>
        <pt x="388" y="737" on="0"/>
        <pt x="361" y="718" on="1"/>
        <pt x="354" y="686" on="0"/>
        <pt x="354" y="643" on="1"/>
        <pt x="354" y="622" on="0"/>
        <pt x="356" y="607" on="1"/>
        <pt x="356" y="605" on="0"/>
        <pt x="356" y="604" on="1"/>
        <pt x="356" y="603" on="0"/>
        <pt x="356" y="603" on="1"/>
        <pt x="354" y="569" on="0"/>
        <pt x="354" y="532" on="1"/>
        <pt x="354" y="473" on="0"/>
        <pt x="361" y="350" on="1"/>
        <pt x="456" y="426" on="0"/>
        <pt x="490" y="461" on="1"/>
        <pt x="518" y="488" on="0"/>
      </contour>
      <contour>
        <pt x="581" y="605" on="1"/>
        <pt x="581" y="601" on="0"/>
        <pt x="581" y="597" on="1"/>
        <pt x="596" y="639" on="0"/>
        <pt x="596" y="685" on="1"/>
        <pt x="596" y="698" on="0"/>
        <pt x="595" y="711" on="1"/>
        <pt x="594" y="708" on="0"/>
        <pt x="593" y="705" on="1"/>
        <pt x="582" y="655" on="0"/>
        <pt x="582" y="628" on="1"/>
        <pt x="582" y="624" on="0"/>
        <pt x="581" y="609" on="0"/>
      </contour>
      <contour>
        <pt x="315" y="247" on="1"/>
        <pt x="303" y="235" on="0"/>
        <pt x="292" y="224" on="1"/>
        <pt x="220" y="153" on="0"/>
        <pt x="201" y="80" on="1"/>
        <pt x="201" y="77" on="0"/>
        <pt x="201" y="74" on="1"/>
        <pt x="201" y="56" on="0"/>
        <pt x="242" y="30" on="0"/>
        <pt x="261" y="29" on="1"/>
        <pt x="277" y="29" on="0"/>
        <pt x="287" y="39" on="1"/>
        <pt x="305" y="58" on="0"/>
        <pt x="312" y="106" on="1"/>
        <pt x="317" y="136" on="0"/>
        <pt x="317" y="177" on="1"/>
        <pt x="317" y="200" on="0"/>
      </contour>
    </TTGlyph>
    <TTGlyph name="I" xMin="50" yMin="-30" xMax="277" yMax="849">
      <contour>
        <pt x="228" y="824" on="1"/>
        <pt x="228" y="823" on="0"/>
        <pt x="228" y="818" on="0"/>
        <pt x="228" y="817" on="1"/>
        <pt x="228" y="707" on="0"/>
        <pt x="252" y="489" on="1"/>
        <pt x="276" y="262" on="0"/>
        <pt x="276" y="144" on="1"/>
        <pt x="276" y="103" on="0"/>
        <pt x="245" y="26" on="0"/>
        <pt x="220" y="1" on="1"/>
        <pt x="197" y="-22" on="0"/>
        <pt x="172" y="-28" on="1"/>
        <pt x="164" y="-30" on="0"/>
        <pt x="156" y="-30" on="1"/>
        <pt x="125" y="-30" on="0"/>
        <pt x="102" y="-6" on="1"/>
        <pt x="86" y="10" on="0"/>
        <pt x="74" y="36" on="1"/>
        <pt x="73" y="38" on="0"/>
        <pt x="73" y="40" on="1"/>
        <pt x="61" y="90" on="1"/>
        <pt x="60" y="93" on="0"/>
        <pt x="60" y="96" on="1"/>
        <pt x="60" y="106" on="0"/>
        <pt x="75" y="121" on="0"/>
        <pt x="85" y="121" on="1"/>
        <pt x="94" y="121" on="0"/>
        <pt x="107" y="110" on="0"/>
        <pt x="109" y="102" on="1"/>
        <pt x="121" y="54" on="1"/>
        <pt x="128" y="38" on="0"/>
        <pt x="137" y="29" on="1"/>
        <pt x="146" y="20" on="0"/>
        <pt x="155" y="20" on="1"/>
        <pt x="157" y="20" on="0"/>
        <pt x="160" y="21" on="1"/>
        <pt x="172" y="23" on="0"/>
        <pt x="184" y="36" on="1"/>
        <pt x="202" y="54" on="0"/>
        <pt x="226" y="114" on="0"/>
        <pt x="226" y="144" on="1"/>
        <pt x="226" y="197" on="0"/>
        <pt x="218" y="322" on="0"/>
        <pt x="210" y="409" on="0"/>
        <pt x="194" y="554" on="0"/>
        <pt x="191" y="587" on="1"/>
        <pt x="105" y="587" on="1"/>
        <pt x="96" y="587" on="0"/>
        <pt x="89" y="593" on="1"/>
        <pt x="64" y="615" on="0"/>
        <pt x="55" y="644" on="1"/>
        <pt x="50" y="659" on="0"/>
        <pt x="50" y="676" on="1"/>
        <pt x="50" y="697" on="0"/>
        <pt x="57" y="719" on="1"/>
        <pt x="71" y="762" on="0"/>
        <pt x="107" y="798" on="1"/>
        <pt x="152" y="843" on="0"/>
        <pt x="200" y="849" on="1"/>
        <pt x="201" y="849" on="0"/>
        <pt x="203" y="849" on="1"/>
        <pt x="213" y="849" on="0"/>
        <pt x="228" y="834" on="0"/>
      </contour>
      <contour>
        <pt x="100" y="677" on="1"/>
        <pt x="100" y="667" on="0"/>
        <pt x="103" y="659" on="1"/>
        <pt x="106" y="647" on="0"/>
        <pt x="115" y="637" on="1"/>
        <pt x="186" y="637" on="1"/>
        <pt x="179" y="721" on="0"/>
        <pt x="178" y="790" on="1"/>
        <pt x="159" y="779" on="0"/>
        <pt x="143" y="763" on="1"/>
        <pt x="115" y="735" on="0"/>
        <pt x="105" y="703" on="1"/>
        <pt x="100" y="689" on="0"/>
      </contour>
    </TTGlyph>
    <TTGlyph name="J" xMin="50" yMin="-23" xMax="366" yMax="818">
      <contour>
        <pt x="268" y="299" on="1"/>
        <pt x="270" y="103" on="0"/>
        <pt x="270" y="84" on="1"/>
        <pt x="270" y="80" on="0"/>
        <pt x="269" y="75" on="0"/>
        <pt x="268" y="69" on="0"/>
        <pt x="268" y="67" on="1"/>
        <pt x="264" y="38" on="0"/>
        <pt x="238" y="11" on="1"/>
        <pt x="204" y="-23" on="0"/>
        <pt x="165" y="-23" on="1"/>
        <pt x="150" y="-23" on="0"/>
        <pt x="134" y="-14" on="1"/>
        <pt x="119" y="-6" on="0"/>
        <pt x="104" y="9" on="1"/>
        <pt x="86" y="26" on="0"/>
        <pt x="76" y="46" on="1"/>
        <pt x="66" y="64" on="0"/>
        <pt x="66" y="80" on="1"/>
        <pt x="66" y="89" on="0"/>
        <pt x="70" y="100" on="1"/>
        <pt x="73" y="110" on="0"/>
        <pt x="81" y="123" on="1"/>
        <pt x="95" y="149" on="0"/>
        <pt x="123" y="189" on="1"/>
        <pt x="157" y="237" on="0"/>
        <pt x="218" y="316" on="1"/>
        <pt x="218" y="352" on="0"/>
        <pt x="218" y="382" on="1"/>
        <pt x="218" y="425" on="0"/>
        <pt x="206" y="483" on="1"/>
        <pt x="204" y="481" on="0"/>
        <pt x="201" y="478" on="1"/>
        <pt x="179" y="456" on="0"/>
        <pt x="159" y="456" on="1"/>
        <pt x="154" y="456" on="0"/>
        <pt x="150" y="457" on="1"/>
        <pt x="120" y="458" on="0"/>
        <pt x="96" y="483" on="1"/>
        <pt x="77" y="502" on="0"/>
        <pt x="64" y="532" on="1"/>
        <pt x="50" y="565" on="0"/>
        <pt x="50" y="594" on="1"/>
        <pt x="50" y="633" on="0"/>
        <pt x="89" y="672" on="1"/>
        <pt x="96" y="679" on="0"/>
        <pt x="126" y="705" on="0"/>
        <pt x="132" y="712" on="1"/>
        <pt x="154" y="734" on="0"/>
        <pt x="154" y="748" on="1"/>
        <pt x="154" y="757" on="0"/>
        <pt x="157" y="768" on="1"/>
        <pt x="158" y="771" on="0"/>
        <pt x="158" y="772" on="1"/>
        <pt x="158" y="781" on="0"/>
        <pt x="158" y="786" on="1"/>
        <pt x="158" y="802" on="0"/>
        <pt x="165" y="810" on="1"/>
        <pt x="173" y="817" on="0"/>
        <pt x="183" y="817" on="1"/>
        <pt x="205" y="817" on="0"/>
        <pt x="209" y="790" on="1"/>
        <pt x="210" y="786" on="0"/>
        <pt x="212" y="763" on="0"/>
        <pt x="215" y="745" on="0"/>
        <pt x="215" y="742" on="1"/>
        <pt x="216" y="739" on="0"/>
        <pt x="216" y="736" on="1"/>
        <pt x="216" y="733" on="0"/>
        <pt x="216" y="720" on="0"/>
        <pt x="216" y="717" on="1"/>
        <pt x="216" y="662" on="0"/>
        <pt x="241" y="555" on="1"/>
        <pt x="268" y="443" on="0"/>
        <pt x="268" y="382" on="1"/>
        <pt x="268" y="382" on="0"/>
        <pt x="268" y="380" on="0"/>
        <pt x="268" y="379" on="1"/>
        <pt x="288" y="404" on="0"/>
        <pt x="294" y="414" on="1"/>
        <pt x="317" y="482" on="1"/>
        <pt x="323" y="499" on="0"/>
        <pt x="341" y="499" on="1"/>
        <pt x="351" y="499" on="0"/>
        <pt x="366" y="484" on="0"/>
        <pt x="366" y="474" on="1"/>
        <pt x="366" y="470" on="0"/>
        <pt x="365" y="466" on="1"/>
        <pt x="341" y="394" on="1"/>
        <pt x="340" y="391" on="0"/>
        <pt x="337" y="388" on="1"/>
        <pt x="331" y="379" on="0"/>
      </contour>
      <contour>
        <pt x="220" y="85" on="1"/>
        <pt x="220" y="135" on="0"/>
        <pt x="219" y="235" on="1"/>
        <pt x="192" y="199" on="0"/>
        <pt x="177" y="178" on="1"/>
        <pt x="129" y="112" on="0"/>
        <pt x="118" y="86" on="1"/>
        <pt x="116" y="80" on="1"/>
        <pt x="117" y="76" on="0"/>
        <pt x="120" y="69" on="1"/>
        <pt x="134" y="44" on="0"/>
        <pt x="156" y="31" on="1"/>
        <pt x="162" y="27" on="0"/>
        <pt x="165" y="27" on="1"/>
        <pt x="183" y="27" on="0"/>
        <pt x="203" y="47" on="1"/>
        <pt x="216" y="60" on="0"/>
        <pt x="218" y="72" on="1"/>
        <pt x="218" y="75" on="0"/>
      </contour>
      <contour>
        <pt x="167" y="676" on="1"/>
        <pt x="161" y="669" on="0"/>
        <pt x="131" y="643" on="0"/>
        <pt x="124" y="636" on="1"/>
        <pt x="100" y="612" on="0"/>
        <pt x="100" y="594" on="1"/>
        <pt x="100" y="576" on="0"/>
        <pt x="110" y="551" on="1"/>
        <pt x="119" y="530" on="0"/>
        <pt x="131" y="518" on="1"/>
        <pt x="142" y="507" on="0"/>
        <pt x="153" y="507" on="1"/>
        <pt x="155" y="507" on="0"/>
        <pt x="158" y="507" on="1"/>
        <pt x="161" y="509" on="0"/>
        <pt x="166" y="514" on="1"/>
        <pt x="182" y="530" on="0"/>
        <pt x="195" y="533" on="1"/>
        <pt x="171" y="632" on="0"/>
      </contour>
    </TTGlyph>
    <TTGlyph name="K" xMin="50" yMin="-29" xMax="842" yMax="801">
      <contour>
        <pt x="228" y="739" on="1"/>
        <pt x="171" y="717" on="0"/>
        <pt x="123" y="717" on="1"/>
        <pt x="75" y="717" on="1"/>
        <pt x="65" y="717" on="0"/>
        <pt x="50" y="732" on="0"/>
        <pt x="50" y="752" on="0"/>
        <pt x="65" y="767" on="0"/>
        <pt x="75" y="767" on="1"/>
        <pt x="123" y="767" on="1"/>
        <pt x="147" y="767" on="0"/>
        <pt x="204" y="783" on="0"/>
        <pt x="221" y="790" on="1"/>
        <pt x="237" y="798" on="1"/>
        <pt x="243" y="801" on="0"/>
        <pt x="249" y="801" on="1"/>
        <pt x="258" y="801" on="0"/>
        <pt x="273" y="788" on="0"/>
        <pt x="274" y="779" on="1"/>
        <pt x="288" y="667" on="0"/>
        <pt x="288" y="523" on="1"/>
        <pt x="288" y="404" on="0"/>
        <pt x="278" y="297" on="1"/>
        <pt x="345" y="417" on="0"/>
        <pt x="422" y="494" on="1"/>
        <pt x="456" y="528" on="0"/>
        <pt x="494" y="556" on="1"/>
        <pt x="498" y="559" on="0"/>
        <pt x="508" y="569" on="1"/>
        <pt x="519" y="580" on="0"/>
        <pt x="548" y="612" on="1"/>
        <pt x="588" y="654" on="0"/>
        <pt x="607" y="674" on="1"/>
        <pt x="635" y="701" on="0"/>
        <pt x="653" y="714" on="1"/>
        <pt x="663" y="722" on="0"/>
        <pt x="672" y="726" on="1"/>
        <pt x="682" y="731" on="0"/>
        <pt x="691" y="731" on="1"/>
        <pt x="707" y="731" on="0"/>
        <pt x="714" y="716" on="1"/>
        <pt x="736" y="666" on="0"/>
        <pt x="736" y="618" on="1"/>
        <pt x="736" y="591" on="0"/>
        <pt x="729" y="566" on="1"/>
        <pt x="714" y="514" on="0"/>
        <pt x="674" y="473" on="1"/>
        <pt x="629" y="429" on="0"/>
        <pt x="500" y="381" on="0"/>
        <pt x="433" y="381" on="1"/>
        <pt x="424" y="381" on="0"/>
        <pt x="416" y="382" on="1"/>
        <pt x="414" y="374" on="0"/>
        <pt x="414" y="366" on="1"/>
        <pt x="414" y="344" on="0"/>
        <pt x="424" y="317" on="1"/>
        <pt x="449" y="247" on="0"/>
        <pt x="519" y="177" on="1"/>
        <pt x="573" y="123" on="0"/>
        <pt x="705" y="55" on="0"/>
        <pt x="767" y="55" on="1"/>
        <pt x="770" y="55" on="0"/>
        <pt x="771" y="56" on="1"/>
        <pt x="775" y="60" on="0"/>
        <pt x="781" y="74" on="1"/>
        <pt x="797" y="113" on="0"/>
        <pt x="817" y="113" on="1"/>
        <pt x="827" y="113" on="0"/>
        <pt x="842" y="98" on="0"/>
        <pt x="842" y="88" on="1"/>
        <pt x="842" y="77" on="0"/>
        <pt x="834" y="70" on="1"/>
        <pt x="832" y="68" on="0"/>
        <pt x="827" y="55" on="1"/>
        <pt x="817" y="31" on="0"/>
        <pt x="807" y="21" on="1"/>
        <pt x="791" y="5" on="0"/>
        <pt x="767" y="5" on="1"/>
        <pt x="692" y="5" on="0"/>
        <pt x="544" y="81" on="0"/>
        <pt x="483" y="142" on="1"/>
        <pt x="406" y="220" on="0"/>
        <pt x="377" y="300" on="1"/>
        <pt x="368" y="324" on="0"/>
        <pt x="365" y="345" on="1"/>
        <pt x="316" y="270" on="0"/>
        <pt x="253" y="139" on="1"/>
        <pt x="228" y="29" on="0"/>
        <pt x="187" y="-12" on="1"/>
        <pt x="179" y="-20" on="0"/>
        <pt x="171" y="-25" on="1"/>
        <pt x="164" y="-29" on="0"/>
        <pt x="157" y="-29" on="1"/>
        <pt x="147" y="-29" on="0"/>
        <pt x="132" y="-14" on="0"/>
        <pt x="132" y="-4" on="1"/>
        <pt x="132" y="2" on="0"/>
        <pt x="135" y="7" on="1"/>
        <pt x="141" y="20" on="0"/>
        <pt x="206" y="156" on="1"/>
        <pt x="238" y="302" on="0"/>
        <pt x="238" y="523" on="1"/>
        <pt x="238" y="641" on="0"/>
      </contour>
      <contour>
        <pt x="686" y="618" on="1"/>
        <pt x="686" y="643" on="0"/>
        <pt x="678" y="670" on="1"/>
        <pt x="664" y="659" on="0"/>
        <pt x="643" y="638" on="1"/>
        <pt x="627" y="622" on="0"/>
        <pt x="558" y="548" on="0"/>
        <pt x="543" y="533" on="1"/>
        <pt x="531" y="521" on="0"/>
        <pt x="524" y="516" on="1"/>
        <pt x="475" y="480" on="0"/>
        <pt x="432" y="431" on="1"/>
        <pt x="515" y="431" on="0"/>
        <pt x="662" y="512" on="0"/>
        <pt x="680" y="579" on="1"/>
        <pt x="686" y="598" on="0"/>
      </contour>
    </TTGlyph>
    <TTGlyph name="L" xMin="50" yMin="-18" xMax="609" yMax="807">
      <contour>
        <pt x="210" y="154" on="1"/>
        <pt x="218" y="207" on="0"/>
        <pt x="218" y="253" on="1"/>
        <pt x="218" y="290" on="0"/>
        <pt x="196" y="425" on="0"/>
        <pt x="194" y="443" on="1"/>
        <pt x="194" y="444" on="0"/>
        <pt x="194" y="445" on="1"/>
        <pt x="193" y="468" on="0"/>
        <pt x="184" y="525" on="1"/>
        <pt x="177" y="578" on="0"/>
        <pt x="174" y="603" on="1"/>
        <pt x="159" y="601" on="0"/>
        <pt x="144" y="601" on="1"/>
        <pt x="131" y="601" on="0"/>
        <pt x="125" y="604" on="1"/>
        <pt x="113" y="611" on="0"/>
        <pt x="102" y="621" on="1"/>
        <pt x="78" y="646" on="0"/>
        <pt x="65" y="690" on="1"/>
        <pt x="56" y="720" on="0"/>
        <pt x="50" y="779" on="1"/>
        <pt x="50" y="781" on="0"/>
        <pt x="50" y="782" on="1"/>
        <pt x="50" y="792" on="0"/>
        <pt x="65" y="807" on="0"/>
        <pt x="75" y="807" on="1"/>
        <pt x="84" y="807" on="0"/>
        <pt x="99" y="794" on="0"/>
        <pt x="100" y="785" on="1"/>
        <pt x="106" y="730" on="0"/>
        <pt x="113" y="704" on="1"/>
        <pt x="124" y="666" on="0"/>
        <pt x="144" y="651" on="1"/>
        <pt x="158" y="651" on="0"/>
        <pt x="172" y="653" on="1"/>
        <pt x="172" y="662" on="0"/>
        <pt x="172" y="670" on="1"/>
        <pt x="176" y="738" on="0"/>
        <pt x="210" y="772" on="1"/>
        <pt x="244" y="805" on="0"/>
        <pt x="304" y="805" on="1"/>
        <pt x="323" y="805" on="0"/>
        <pt x="331" y="798" on="1"/>
        <pt x="335" y="793" on="0"/>
        <pt x="337" y="787" on="1"/>
        <pt x="343" y="768" on="0"/>
        <pt x="343" y="749" on="1"/>
        <pt x="343" y="729" on="0"/>
        <pt x="336" y="710" on="1"/>
        <pt x="312" y="644" on="0"/>
        <pt x="224" y="614" on="1"/>
        <pt x="226" y="586" on="0"/>
        <pt x="234" y="532" on="1"/>
        <pt x="243" y="473" on="0"/>
        <pt x="244" y="448" on="1"/>
        <pt x="246" y="431" on="0"/>
        <pt x="268" y="293" on="0"/>
        <pt x="268" y="253" on="1"/>
        <pt x="268" y="184" on="0"/>
        <pt x="255" y="116" on="1"/>
        <pt x="261" y="110" on="0"/>
        <pt x="284" y="86" on="0"/>
        <pt x="290" y="80" on="1"/>
        <pt x="314" y="56" on="0"/>
        <pt x="354" y="33" on="0"/>
        <pt x="378" y="33" on="1"/>
        <pt x="381" y="33" on="0"/>
        <pt x="384" y="33" on="1"/>
        <pt x="443" y="36" on="0"/>
        <pt x="477" y="46" on="1"/>
        <pt x="512" y="57" on="0"/>
        <pt x="531" y="76" on="1"/>
        <pt x="557" y="101" on="0"/>
        <pt x="558" y="148" on="1"/>
        <pt x="537" y="168" on="1"/>
        <pt x="530" y="176" on="0"/>
        <pt x="530" y="196" on="0"/>
        <pt x="545" y="211" on="0"/>
        <pt x="565" y="211" on="0"/>
        <pt x="573" y="204" on="1"/>
        <pt x="601" y="176" on="1"/>
        <pt x="608" y="168" on="0"/>
        <pt x="608" y="152" on="1"/>
        <pt x="608" y="82" on="0"/>
        <pt x="567" y="40" on="1"/>
        <pt x="539" y="12" on="0"/>
        <pt x="492" y="-2" on="1"/>
        <pt x="452" y="-14" on="0"/>
        <pt x="386" y="-17" on="1"/>
        <pt x="382" y="-17" on="0"/>
        <pt x="378" y="-17" on="1"/>
        <pt x="348" y="-17" on="0"/>
        <pt x="292" y="10" on="0"/>
        <pt x="263" y="36" on="0"/>
        <pt x="240" y="60" on="1"/>
        <pt x="228" y="29" on="0"/>
        <pt x="211" y="12" on="1"/>
        <pt x="192" y="-7" on="0"/>
        <pt x="167" y="-7" on="1"/>
        <pt x="165" y="-7" on="0"/>
        <pt x="163" y="-7" on="1"/>
        <pt x="122" y="0" on="0"/>
        <pt x="67" y="77" on="0"/>
        <pt x="60" y="121" on="1"/>
        <pt x="58" y="130" on="0"/>
        <pt x="58" y="139" on="1"/>
        <pt x="58" y="157" on="0"/>
        <pt x="69" y="168" on="1"/>
        <pt x="80" y="179" on="0"/>
        <pt x="99" y="181" on="1"/>
        <pt x="102" y="181" on="0"/>
        <pt x="106" y="181" on="1"/>
        <pt x="115" y="181" on="0"/>
        <pt x="129" y="179" on="1"/>
        <pt x="130" y="179" on="0"/>
        <pt x="130" y="179" on="1"/>
        <pt x="172" y="179" on="0"/>
      </contour>
      <contour>
        <pt x="293" y="749" on="1"/>
        <pt x="293" y="752" on="0"/>
        <pt x="293" y="755" on="1"/>
        <pt x="262" y="753" on="0"/>
        <pt x="245" y="736" on="1"/>
        <pt x="225" y="716" on="0"/>
        <pt x="222" y="667" on="1"/>
        <pt x="252" y="679" on="0"/>
        <pt x="270" y="697" on="1"/>
        <pt x="283" y="711" on="0"/>
        <pt x="289" y="727" on="1"/>
        <pt x="293" y="738" on="0"/>
      </contour>
      <contour>
        <pt x="127" y="129" on="1"/>
        <pt x="125" y="129" on="0"/>
        <pt x="123" y="129" on="1"/>
        <pt x="116" y="131" on="0"/>
        <pt x="109" y="131" on="1"/>
        <pt x="110" y="130" on="0"/>
        <pt x="110" y="129" on="1"/>
        <pt x="113" y="102" on="0"/>
        <pt x="146" y="49" on="0"/>
        <pt x="169" y="43" on="1"/>
        <pt x="172" y="44" on="0"/>
        <pt x="176" y="48" on="1"/>
        <pt x="184" y="56" on="0"/>
        <pt x="192" y="75" on="1"/>
        <pt x="196" y="85" on="0"/>
        <pt x="200" y="99" on="1"/>
        <pt x="165" y="129" on="0"/>
        <pt x="130" y="129" on="1"/>
        <pt x="130" y="129" on="0"/>
        <pt x="128" y="129" on="0"/>
      </contour>
    </TTGlyph>
    <TTGlyph name="M" xMin="50" yMin="-29" xMax="740" yMax="837">
      <contour>
        <pt x="438" y="376" on="1"/>
        <pt x="438" y="375" on="0"/>
        <pt x="438" y="373" on="0"/>
        <pt x="438" y="372" on="1"/>
        <pt x="438" y="362" on="0"/>
        <pt x="423" y="347" on="0"/>
        <pt x="413" y="347" on="1"/>
        <pt x="398" y="347" on="0"/>
        <pt x="391" y="360" on="1"/>
        <pt x="386" y="369" on="0"/>
        <pt x="355" y="429" on="0"/>
        <pt x="342" y="454" on="0"/>
        <pt x="315" y="507" on="0"/>
        <pt x="299" y="543" on="0"/>
        <pt x="280" y="591" on="0"/>
        <pt x="272" y="613" on="1"/>
        <pt x="272" y="588" on="0"/>
        <pt x="271" y="541" on="1"/>
        <pt x="270" y="482" on="0"/>
        <pt x="269" y="428" on="0"/>
        <pt x="263" y="318" on="0"/>
        <pt x="252" y="255" on="0"/>
        <pt x="230" y="160" on="0"/>
        <pt x="199" y="93" on="0"/>
        <pt x="152" y="17" on="0"/>
        <pt x="121" y="-15" on="1"/>
        <pt x="114" y="-23" on="0"/>
        <pt x="92" y="-23" on="0"/>
        <pt x="83" y="-13" on="1"/>
        <pt x="70" y="0" on="0"/>
        <pt x="61" y="25" on="1"/>
        <pt x="52" y="49" on="0"/>
        <pt x="50" y="72" on="1"/>
        <pt x="50" y="73" on="0"/>
        <pt x="50" y="74" on="1"/>
        <pt x="50" y="84" on="0"/>
        <pt x="65" y="99" on="0"/>
        <pt x="75" y="99" on="1"/>
        <pt x="85" y="99" on="0"/>
        <pt x="99" y="86" on="0"/>
        <pt x="100" y="76" on="1"/>
        <pt x="101" y="61" on="0"/>
        <pt x="107" y="44" on="1"/>
        <pt x="133" y="77" on="0"/>
        <pt x="172" y="150" on="0"/>
        <pt x="196" y="236" on="0"/>
        <pt x="211" y="308" on="0"/>
        <pt x="218" y="414" on="0"/>
        <pt x="220" y="481" on="0"/>
        <pt x="221" y="542" on="1"/>
        <pt x="223" y="727" on="0"/>
        <pt x="238" y="816" on="1"/>
        <pt x="240" y="825" on="0"/>
        <pt x="254" y="837" on="0"/>
        <pt x="263" y="837" on="1"/>
        <pt x="273" y="837" on="0"/>
        <pt x="288" y="822" on="0"/>
        <pt x="288" y="812" on="1"/>
        <pt x="288" y="811" on="0"/>
        <pt x="288" y="807" on="0"/>
        <pt x="288" y="806" on="1"/>
        <pt x="288" y="720" on="0"/>
        <pt x="347" y="553" on="0"/>
        <pt x="400" y="451" on="1"/>
        <pt x="417" y="520" on="0"/>
        <pt x="474" y="684" on="0"/>
        <pt x="503" y="742" on="1"/>
        <pt x="524" y="786" on="0"/>
        <pt x="541" y="802" on="1"/>
        <pt x="554" y="816" on="0"/>
        <pt x="569" y="816" on="1"/>
        <pt x="582" y="816" on="0"/>
        <pt x="591" y="806" on="1"/>
        <pt x="600" y="798" on="0"/>
        <pt x="603" y="783" on="1"/>
        <pt x="606" y="770" on="0"/>
        <pt x="606" y="748" on="1"/>
        <pt x="606" y="705" on="0"/>
        <pt x="603" y="532" on="0"/>
        <pt x="603" y="490" on="1"/>
        <pt x="603" y="355" on="0"/>
        <pt x="616" y="269" on="1"/>
        <pt x="637" y="135" on="0"/>
        <pt x="696" y="56" on="1"/>
        <pt x="734" y="12" on="1"/>
        <pt x="740" y="5" on="0"/>
        <pt x="740" y="-4" on="1"/>
        <pt x="740" y="-14" on="0"/>
        <pt x="725" y="-29" on="0"/>
        <pt x="715" y="-29" on="1"/>
        <pt x="704" y="-29" on="0"/>
        <pt x="696" y="-20" on="1"/>
        <pt x="658" y="24" on="1"/>
        <pt x="658" y="24" on="0"/>
        <pt x="657" y="25" on="1"/>
        <pt x="596" y="105" on="0"/>
        <pt x="553" y="328" on="0"/>
        <pt x="553" y="488" on="1"/>
        <pt x="553" y="531" on="0"/>
        <pt x="556" y="697" on="0"/>
        <pt x="556" y="736" on="1"/>
        <pt x="552" y="728" on="0"/>
        <pt x="548" y="720" on="1"/>
        <pt x="522" y="668" on="0"/>
        <pt x="467" y="512" on="0"/>
        <pt x="451" y="449" on="1"/>
        <pt x="438" y="398" on="0"/>
      </contour>
    </TTGlyph>
    <TTGlyph name="N" xMin="50" yMin="-33" xMax="606" yMax="797">
      <contour>
        <pt x="206" y="172" on="1"/>
        <pt x="206" y="164" on="0"/>
        <pt x="207" y="131" on="0"/>
        <pt x="207" y="122" on="1"/>
        <pt x="207" y="88" on="0"/>
        <pt x="203" y="62" on="1"/>
        <pt x="195" y="15" on="0"/>
        <pt x="147" y="-33" on="0"/>
        <pt x="109" y="-33" on="1"/>
        <pt x="107" y="-33" on="0"/>
        <pt x="105" y="-33" on="1"/>
        <pt x="89" y="-30" on="0"/>
        <pt x="78" y="-19" on="1"/>
        <pt x="64" y="-4" on="0"/>
        <pt x="56" y="33" on="1"/>
        <pt x="53" y="47" on="0"/>
        <pt x="52" y="51" on="1"/>
        <pt x="50" y="55" on="0"/>
        <pt x="50" y="60" on="1"/>
        <pt x="50" y="70" on="0"/>
        <pt x="65" y="85" on="0"/>
        <pt x="75" y="85" on="1"/>
        <pt x="92" y="85" on="0"/>
        <pt x="98" y="69" on="1"/>
        <pt x="101" y="61" on="0"/>
        <pt x="108" y="29" on="0"/>
        <pt x="110" y="23" on="1"/>
        <pt x="111" y="19" on="0"/>
        <pt x="113" y="17" on="1"/>
        <pt x="127" y="18" on="0"/>
        <pt x="135" y="27" on="1"/>
        <pt x="148" y="39" on="0"/>
        <pt x="153" y="70" on="1"/>
        <pt x="157" y="91" on="0"/>
        <pt x="157" y="124" on="1"/>
        <pt x="157" y="132" on="0"/>
        <pt x="156" y="164" on="0"/>
        <pt x="156" y="171" on="1"/>
        <pt x="155" y="195" on="0"/>
        <pt x="147" y="308" on="0"/>
        <pt x="142" y="393" on="0"/>
        <pt x="142" y="430" on="1"/>
        <pt x="142" y="537" on="0"/>
        <pt x="189" y="704" on="0"/>
        <pt x="251" y="771" on="1"/>
        <pt x="263" y="785" on="0"/>
        <pt x="274" y="790" on="1"/>
        <pt x="282" y="794" on="0"/>
        <pt x="290" y="794" on="1"/>
        <pt x="303" y="794" on="0"/>
        <pt x="312" y="785" on="1"/>
        <pt x="319" y="778" on="0"/>
        <pt x="322" y="767" on="1"/>
        <pt x="324" y="759" on="0"/>
        <pt x="324" y="748" on="1"/>
        <pt x="324" y="737" on="0"/>
        <pt x="317" y="677" on="0"/>
        <pt x="317" y="668" on="1"/>
        <pt x="317" y="667" on="0"/>
        <pt x="317" y="666" on="1"/>
        <pt x="330" y="611" on="0"/>
        <pt x="330" y="539" on="1"/>
        <pt x="330" y="502" on="0"/>
        <pt x="321" y="355" on="0"/>
        <pt x="321" y="320" on="1"/>
        <pt x="321" y="235" on="0"/>
        <pt x="341" y="180" on="1"/>
        <pt x="341" y="179" on="0"/>
        <pt x="341" y="178" on="1"/>
        <pt x="344" y="169" on="0"/>
        <pt x="363" y="123" on="1"/>
        <pt x="373" y="190" on="0"/>
        <pt x="401" y="320" on="0"/>
        <pt x="444" y="464" on="0"/>
        <pt x="471" y="553" on="0"/>
        <pt x="529" y="724" on="0"/>
        <pt x="539" y="756" on="1"/>
        <pt x="541" y="760" on="0"/>
        <pt x="543" y="763" on="1"/>
        <pt x="561" y="787" on="1"/>
        <pt x="568" y="797" on="0"/>
        <pt x="581" y="797" on="1"/>
        <pt x="591" y="797" on="0"/>
        <pt x="606" y="782" on="0"/>
        <pt x="606" y="772" on="1"/>
        <pt x="606" y="764" on="0"/>
        <pt x="601" y="757" on="1"/>
        <pt x="585" y="736" on="1"/>
        <pt x="576" y="707" on="0"/>
        <pt x="521" y="543" on="0"/>
        <pt x="497" y="467" on="0"/>
        <pt x="453" y="320" on="0"/>
        <pt x="430" y="217" on="0"/>
        <pt x="406" y="80" on="0"/>
        <pt x="400" y="16" on="1"/>
        <pt x="399" y="6" on="0"/>
        <pt x="385" y="-7" on="0"/>
        <pt x="375" y="-7" on="1"/>
        <pt x="365" y="-7" on="0"/>
        <pt x="357" y="0" on="1"/>
        <pt x="350" y="7" on="0"/>
        <pt x="350" y="17" on="1"/>
        <pt x="348" y="25" on="0"/>
        <pt x="343" y="39" on="1"/>
        <pt x="337" y="56" on="0"/>
        <pt x="319" y="99" on="1"/>
        <pt x="297" y="152" on="0"/>
        <pt x="293" y="165" on="1"/>
        <pt x="271" y="228" on="0"/>
        <pt x="271" y="318" on="1"/>
        <pt x="271" y="355" on="0"/>
        <pt x="280" y="502" on="0"/>
        <pt x="280" y="538" on="1"/>
        <pt x="280" y="606" on="0"/>
        <pt x="269" y="653" on="1"/>
        <pt x="267" y="661" on="0"/>
        <pt x="267" y="669" on="1"/>
        <pt x="267" y="679" on="0"/>
        <pt x="271" y="718" on="1"/>
        <pt x="227" y="662" on="0"/>
        <pt x="193" y="520" on="0"/>
        <pt x="193" y="428" on="1"/>
        <pt x="193" y="393" on="0"/>
        <pt x="197" y="309" on="0"/>
        <pt x="205" y="196" on="0"/>
        <pt x="206" y="173" on="1"/>
        <pt x="206" y="173" on="0"/>
      </contour>
    </TTGlyph>
    <TTGlyph name="O" xMin="50" yMin="-23" xMax="509" yMax="794">
      <contour>
        <pt x="323" y="27" on="1"/>
        <pt x="335" y="27" on="0"/>
        <pt x="350" y="41" on="1"/>
        <pt x="367" y="59" on="0"/>
        <pt x="384" y="93" on="1"/>
        <pt x="404" y="133" on="0"/>
        <pt x="421" y="190" on="1"/>
        <pt x="437" y="243" on="0"/>
        <pt x="458" y="354" on="0"/>
        <pt x="458" y="375" on="1"/>
        <pt x="451" y="478" on="0"/>
        <pt x="403" y="588" on="1"/>
        <pt x="402" y="501" on="0"/>
        <pt x="348" y="447" on="1"/>
        <pt x="340" y="439" on="0"/>
        <pt x="331" y="432" on="1"/>
        <pt x="324" y="427" on="0"/>
        <pt x="315" y="427" on="1"/>
        <pt x="305" y="427" on="0"/>
        <pt x="290" y="442" on="0"/>
        <pt x="290" y="452" on="1"/>
        <pt x="290" y="464" on="0"/>
        <pt x="300" y="472" on="1"/>
        <pt x="353" y="512" on="0"/>
        <pt x="353" y="592" on="1"/>
        <pt x="353" y="628" on="0"/>
        <pt x="329" y="693" on="0"/>
        <pt x="308" y="714" on="1"/>
        <pt x="278" y="744" on="0"/>
        <pt x="239" y="744" on="1"/>
        <pt x="228" y="744" on="0"/>
        <pt x="216" y="741" on="1"/>
        <pt x="184" y="735" on="0"/>
        <pt x="161" y="712" on="1"/>
        <pt x="138" y="689" on="0"/>
        <pt x="112" y="617" on="0"/>
        <pt x="112" y="578" on="1"/>
        <pt x="112" y="532" on="1"/>
        <pt x="112" y="532" on="0"/>
        <pt x="112" y="531" on="1"/>
        <pt x="111" y="502" on="0"/>
        <pt x="100" y="333" on="0"/>
        <pt x="100" y="289" on="1"/>
        <pt x="100" y="262" on="0"/>
        <pt x="102" y="238" on="1"/>
        <pt x="110" y="123" on="0"/>
        <pt x="169" y="64" on="1"/>
        <pt x="183" y="50" on="0"/>
        <pt x="199" y="39" on="1"/>
        <pt x="203" y="39" on="1"/>
        <pt x="223" y="39" on="0"/>
        <pt x="304" y="27" on="0"/>
      </contour>
      <contour>
        <pt x="62" y="532" on="1"/>
        <pt x="62" y="578" on="1"/>
        <pt x="62" y="684" on="0"/>
        <pt x="125" y="747" on="1"/>
        <pt x="160" y="782" on="0"/>
        <pt x="207" y="791" on="1"/>
        <pt x="223" y="794" on="0"/>
        <pt x="238" y="794" on="1"/>
        <pt x="299" y="794" on="0"/>
        <pt x="343" y="750" on="1"/>
        <pt x="353" y="740" on="0"/>
        <pt x="361" y="729" on="1"/>
        <pt x="365" y="731" on="0"/>
        <pt x="369" y="731" on="1"/>
        <pt x="384" y="731" on="0"/>
        <pt x="391" y="719" on="1"/>
        <pt x="497" y="544" on="0"/>
        <pt x="508" y="378" on="1"/>
        <pt x="508" y="377" on="0"/>
        <pt x="508" y="376" on="1"/>
        <pt x="508" y="348" on="0"/>
        <pt x="487" y="235" on="0"/>
        <pt x="469" y="176" on="1"/>
        <pt x="451" y="114" on="0"/>
        <pt x="429" y="71" on="1"/>
        <pt x="408" y="29" on="0"/>
        <pt x="385" y="6" on="1"/>
        <pt x="356" y="-23" on="0"/>
        <pt x="323" y="-23" on="1"/>
        <pt x="300" y="-23" on="0"/>
        <pt x="256" y="-16" on="1"/>
        <pt x="219" y="-11" on="0"/>
        <pt x="203" y="-11" on="1"/>
        <pt x="191" y="-11" on="1"/>
        <pt x="184" y="-11" on="0"/>
        <pt x="178" y="-7" on="1"/>
        <pt x="154" y="9" on="0"/>
        <pt x="134" y="28" on="1"/>
        <pt x="62" y="101" on="0"/>
        <pt x="52" y="235" on="1"/>
        <pt x="50" y="260" on="0"/>
        <pt x="50" y="290" on="1"/>
        <pt x="50" y="335" on="0"/>
        <pt x="61" y="503" on="0"/>
      </contour>
    </TTGlyph>
    <TTGlyph name="P" xMin="50" yMin="-28" xMax="632" yMax="881">
      <contour>
        <pt x="377" y="447" on="1"/>
        <pt x="420" y="447" on="0"/>
        <pt x="514" y="489" on="0"/>
        <pt x="582" y="569" on="0"/>
        <pt x="582" y="614" on="1"/>
        <pt x="582" y="710" on="0"/>
        <pt x="527" y="765" on="1"/>
        <pt x="461" y="831" on="0"/>
        <pt x="333" y="831" on="1"/>
        <pt x="251" y="831" on="0"/>
        <pt x="215" y="823" on="1"/>
        <pt x="181" y="816" on="0"/>
        <pt x="163" y="798" on="1"/>
        <pt x="137" y="772" on="0"/>
        <pt x="134" y="709" on="1"/>
        <pt x="134" y="700" on="0"/>
        <pt x="134" y="691" on="1"/>
        <pt x="134" y="618" on="0"/>
        <pt x="160" y="558" on="1"/>
        <pt x="162" y="553" on="0"/>
        <pt x="162" y="548" on="1"/>
        <pt x="162" y="538" on="0"/>
        <pt x="147" y="523" on="0"/>
        <pt x="137" y="523" on="1"/>
        <pt x="121" y="523" on="0"/>
        <pt x="114" y="538" on="1"/>
        <pt x="84" y="608" on="0"/>
        <pt x="84" y="691" on="1"/>
        <pt x="84" y="789" on="0"/>
        <pt x="128" y="833" on="1"/>
        <pt x="158" y="864" on="0"/>
        <pt x="252" y="881" on="0"/>
        <pt x="333" y="881" on="1"/>
        <pt x="481" y="881" on="0"/>
        <pt x="562" y="800" on="1"/>
        <pt x="632" y="730" on="0"/>
        <pt x="632" y="614" on="1"/>
        <pt x="632" y="541" on="0"/>
        <pt x="572" y="481" on="1"/>
        <pt x="533" y="442" on="0"/>
        <pt x="428" y="397" on="0"/>
        <pt x="377" y="397" on="1"/>
        <pt x="330" y="397" on="0"/>
        <pt x="296" y="431" on="1"/>
        <pt x="270" y="457" on="0"/>
        <pt x="244" y="532" on="0"/>
        <pt x="244" y="570" on="1"/>
        <pt x="244" y="571" on="0"/>
        <pt x="244" y="574" on="0"/>
        <pt x="244" y="575" on="1"/>
        <pt x="244" y="584" on="0"/>
        <pt x="245" y="590" on="1"/>
        <pt x="248" y="604" on="0"/>
        <pt x="256" y="613" on="1"/>
        <pt x="266" y="623" on="0"/>
        <pt x="281" y="623" on="1"/>
        <pt x="291" y="623" on="0"/>
        <pt x="306" y="608" on="0"/>
        <pt x="306" y="598" on="1"/>
        <pt x="306" y="584" on="0"/>
        <pt x="294" y="577" on="1"/>
        <pt x="294" y="575" on="0"/>
        <pt x="294" y="573" on="1"/>
        <pt x="294" y="572" on="0"/>
        <pt x="294" y="570" on="0"/>
        <pt x="294" y="570" on="1"/>
        <pt x="294" y="542" on="0"/>
        <pt x="314" y="484" on="0"/>
        <pt x="331" y="467" on="1"/>
        <pt x="351" y="447" on="0"/>
      </contour>
      <contour>
        <pt x="210" y="173" on="1"/>
        <pt x="210" y="175" on="0"/>
        <pt x="210" y="183" on="0"/>
        <pt x="210" y="185" on="1"/>
        <pt x="210" y="216" on="0"/>
        <pt x="207" y="286" on="0"/>
        <pt x="203" y="371" on="0"/>
        <pt x="202" y="394" on="1"/>
        <pt x="202" y="394" on="0"/>
        <pt x="202" y="395" on="1"/>
        <pt x="200" y="671" on="1"/>
        <pt x="200" y="681" on="0"/>
        <pt x="215" y="696" on="0"/>
        <pt x="235" y="696" on="0"/>
        <pt x="250" y="681" on="0"/>
        <pt x="250" y="671" on="1"/>
        <pt x="252" y="396" on="1"/>
        <pt x="253" y="373" on="0"/>
        <pt x="257" y="287" on="0"/>
        <pt x="260" y="217" on="0"/>
        <pt x="260" y="185" on="1"/>
        <pt x="260" y="183" on="0"/>
        <pt x="260" y="173" on="0"/>
        <pt x="260" y="171" on="1"/>
        <pt x="260" y="117" on="0"/>
        <pt x="254" y="80" on="1"/>
        <pt x="243" y="23" on="0"/>
        <pt x="216" y="-4" on="1"/>
        <pt x="193" y="-28" on="0"/>
        <pt x="159" y="-28" on="1"/>
        <pt x="128" y="-28" on="0"/>
        <pt x="106" y="-6" on="1"/>
        <pt x="96" y="5" on="0"/>
        <pt x="82" y="28" on="1"/>
        <pt x="71" y="45" on="0"/>
        <pt x="59" y="58" on="0"/>
        <pt x="58" y="66" on="1"/>
        <pt x="50" y="140" on="1"/>
        <pt x="50" y="142" on="0"/>
        <pt x="50" y="143" on="1"/>
        <pt x="50" y="153" on="0"/>
        <pt x="65" y="168" on="0"/>
        <pt x="75" y="168" on="1"/>
        <pt x="84" y="168" on="0"/>
        <pt x="99" y="155" on="0"/>
        <pt x="100" y="146" on="1"/>
        <pt x="107" y="80" on="1"/>
        <pt x="113" y="73" on="0"/>
        <pt x="135" y="36" on="0"/>
        <pt x="142" y="30" on="1"/>
        <pt x="149" y="22" on="0"/>
        <pt x="159" y="22" on="1"/>
        <pt x="172" y="22" on="0"/>
        <pt x="181" y="31" on="1"/>
        <pt x="197" y="47" on="0"/>
        <pt x="204" y="89" on="1"/>
        <pt x="210" y="121" on="0"/>
      </contour>
    </TTGlyph>
    <TTGlyph name="Q" xMin="50" yMin="-166" xMax="473" yMax="776">
      <contour>
        <pt x="229" y="724" on="1"/>
        <pt x="184" y="724" on="0"/>
        <pt x="157" y="696" on="1"/>
        <pt x="126" y="665" on="0"/>
        <pt x="112" y="598" on="1"/>
        <pt x="102" y="545" on="0"/>
        <pt x="101" y="436" on="1"/>
        <pt x="101" y="432" on="0"/>
        <pt x="100" y="405" on="0"/>
        <pt x="100" y="397" on="1"/>
        <pt x="100" y="300" on="0"/>
        <pt x="124" y="213" on="1"/>
        <pt x="151" y="119" on="0"/>
        <pt x="198" y="71" on="1"/>
        <pt x="237" y="32" on="0"/>
        <pt x="289" y="28" on="1"/>
        <pt x="288" y="32" on="0"/>
        <pt x="288" y="35" on="1"/>
        <pt x="288" y="48" on="0"/>
        <pt x="299" y="55" on="1"/>
        <pt x="370" y="106" on="0"/>
        <pt x="401" y="224" on="1"/>
        <pt x="422" y="302" on="0"/>
        <pt x="422" y="395" on="1"/>
        <pt x="422" y="420" on="0"/>
        <pt x="420" y="444" on="1"/>
        <pt x="420" y="445" on="0"/>
        <pt x="420" y="446" on="1"/>
        <pt x="420" y="447" on="0"/>
        <pt x="420" y="448" on="1"/>
        <pt x="422" y="467" on="0"/>
        <pt x="422" y="487" on="1"/>
        <pt x="422" y="546" on="0"/>
        <pt x="408" y="596" on="1"/>
        <pt x="392" y="658" on="0"/>
        <pt x="358" y="691" on="1"/>
        <pt x="324" y="725" on="0"/>
        <pt x="274" y="725" on="1"/>
        <pt x="262" y="725" on="0"/>
        <pt x="249" y="723" on="1"/>
        <pt x="247" y="723" on="0"/>
        <pt x="245" y="723" on="1"/>
        <pt x="243" y="723" on="0"/>
        <pt x="232" y="724" on="0"/>
      </contour>
      <contour>
        <pt x="386" y="-59" on="1"/>
        <pt x="386" y="-52" on="0"/>
        <pt x="379" y="-41" on="1"/>
        <pt x="377" y="-39" on="0"/>
        <pt x="350" y="-9" on="1"/>
        <pt x="327" y="-22" on="0"/>
        <pt x="300" y="-22" on="1"/>
        <pt x="221" y="-22" on="0"/>
        <pt x="163" y="36" on="1"/>
        <pt x="106" y="93" on="0"/>
        <pt x="76" y="200" on="1"/>
        <pt x="50" y="293" on="0"/>
        <pt x="50" y="396" on="1"/>
        <pt x="50" y="408" on="0"/>
        <pt x="50" y="419" on="1"/>
        <pt x="50" y="424" on="0"/>
        <pt x="51" y="472" on="0"/>
        <pt x="52" y="489" on="0"/>
        <pt x="53" y="531" on="0"/>
        <pt x="56" y="556" on="0"/>
        <pt x="60" y="592" on="0"/>
        <pt x="63" y="608" on="1"/>
        <pt x="80" y="690" on="0"/>
        <pt x="121" y="731" on="1"/>
        <pt x="164" y="774" on="0"/>
        <pt x="230" y="774" on="1"/>
        <pt x="237" y="774" on="0"/>
        <pt x="245" y="773" on="1"/>
        <pt x="259" y="775" on="0"/>
        <pt x="273" y="775" on="1"/>
        <pt x="345" y="775" on="0"/>
        <pt x="394" y="726" on="1"/>
        <pt x="436" y="684" on="0"/>
        <pt x="457" y="609" on="1"/>
        <pt x="472" y="552" on="0"/>
        <pt x="472" y="488" on="1"/>
        <pt x="472" y="466" on="0"/>
        <pt x="470" y="446" on="1"/>
        <pt x="472" y="420" on="0"/>
        <pt x="472" y="395" on="1"/>
        <pt x="472" y="294" on="0"/>
        <pt x="423" y="117" on="0"/>
        <pt x="377" y="60" on="1"/>
        <pt x="381" y="50" on="0"/>
        <pt x="381" y="39" on="1"/>
        <pt x="381" y="35" on="0"/>
        <pt x="381" y="32" on="1"/>
        <pt x="385" y="26" on="0"/>
        <pt x="396" y="15" on="1"/>
        <pt x="409" y="1" on="0"/>
        <pt x="421" y="-12" on="0"/>
        <pt x="436" y="-44" on="0"/>
        <pt x="436" y="-59" on="1"/>
        <pt x="436" y="-76" on="0"/>
        <pt x="423" y="-107" on="0"/>
        <pt x="412" y="-121" on="0"/>
        <pt x="402" y="-133" on="1"/>
        <pt x="389" y="-147" on="0"/>
        <pt x="385" y="-154" on="1"/>
        <pt x="378" y="-166" on="0"/>
        <pt x="363" y="-166" on="1"/>
        <pt x="291" y="-166" on="1"/>
        <pt x="281" y="-166" on="0"/>
        <pt x="266" y="-151" on="0"/>
        <pt x="266" y="-131" on="0"/>
        <pt x="281" y="-116" on="0"/>
        <pt x="291" y="-116" on="1"/>
        <pt x="350" y="-116" on="1"/>
        <pt x="355" y="-110" on="0"/>
        <pt x="365" y="-99" on="1"/>
        <pt x="386" y="-75" on="0"/>
        <pt x="386" y="-61" on="1"/>
        <pt x="386" y="-61" on="0"/>
        <pt x="386" y="-60" on="0"/>
      </contour>
    </TTGlyph>
    <TTGlyph name="R" xMin="50" yMin="-41" xMax="625" yMax="811">
      <contour>
        <pt x="119" y="513" on="0"/>
        <pt x="99" y="513" on="0"/>
        <pt x="84" y="528" on="0"/>
        <pt x="84" y="538" on="1"/>
        <pt x="84" y="539" on="0"/>
        <pt x="84" y="540" on="1"/>
        <pt x="90" y="625" on="0"/>
        <pt x="102" y="674" on="1"/>
        <pt x="119" y="737" on="0"/>
        <pt x="153" y="771" on="1"/>
        <pt x="194" y="811" on="0"/>
        <pt x="257" y="811" on="1"/>
        <pt x="270" y="811" on="0"/>
        <pt x="285" y="809" on="1"/>
        <pt x="411" y="808" on="0"/>
        <pt x="481" y="739" on="1"/>
        <pt x="550" y="670" on="0"/>
        <pt x="550" y="548" on="1"/>
        <pt x="550" y="486" on="0"/>
        <pt x="493" y="429" on="1"/>
        <pt x="446" y="382" on="0"/>
        <pt x="388" y="364" on="1"/>
        <pt x="392" y="335" on="0"/>
        <pt x="399" y="204" on="0"/>
        <pt x="406" y="171" on="1"/>
        <pt x="413" y="130" on="0"/>
        <pt x="443" y="61" on="0"/>
        <pt x="460" y="44" on="1"/>
        <pt x="477" y="27" on="0"/>
        <pt x="495" y="27" on="1"/>
        <pt x="508" y="27" on="0"/>
        <pt x="525" y="44" on="1"/>
        <pt x="531" y="50" on="0"/>
        <pt x="558" y="82" on="0"/>
        <pt x="566" y="89" on="1"/>
        <pt x="576" y="112" on="1"/>
        <pt x="583" y="127" on="0"/>
        <pt x="599" y="127" on="1"/>
        <pt x="609" y="127" on="0"/>
        <pt x="624" y="112" on="0"/>
        <pt x="624" y="102" on="1"/>
        <pt x="624" y="97" on="0"/>
        <pt x="622" y="92" on="1"/>
        <pt x="610" y="64" on="1"/>
        <pt x="609" y="61" on="0"/>
        <pt x="596" y="49" on="1"/>
        <pt x="590" y="43" on="0"/>
        <pt x="567" y="16" on="0"/>
        <pt x="560" y="9" on="1"/>
        <pt x="528" y="-23" on="0"/>
        <pt x="495" y="-23" on="1"/>
        <pt x="456" y="-23" on="0"/>
        <pt x="425" y="8" on="1"/>
        <pt x="400" y="33" on="0"/>
        <pt x="382" y="76" on="1"/>
        <pt x="364" y="119" on="0"/>
        <pt x="349" y="206" on="0"/>
        <pt x="345" y="272" on="1"/>
        <pt x="342" y="327" on="0"/>
        <pt x="338" y="355" on="1"/>
        <pt x="337" y="355" on="0"/>
        <pt x="335" y="355" on="1"/>
        <pt x="327" y="355" on="0"/>
        <pt x="321" y="359" on="1"/>
        <pt x="290" y="381" on="0"/>
        <pt x="250" y="458" on="0"/>
        <pt x="250" y="499" on="1"/>
        <pt x="250" y="504" on="0"/>
        <pt x="250" y="508" on="1"/>
        <pt x="251" y="525" on="0"/>
        <pt x="261" y="534" on="1"/>
        <pt x="270" y="543" on="0"/>
        <pt x="283" y="543" on="1"/>
        <pt x="294" y="543" on="0"/>
        <pt x="305" y="536" on="1"/>
        <pt x="311" y="531" on="0"/>
        <pt x="318" y="524" on="1"/>
        <pt x="335" y="508" on="0"/>
        <pt x="350" y="483" on="1"/>
        <pt x="361" y="464" on="0"/>
        <pt x="365" y="452" on="1"/>
        <pt x="372" y="434" on="0"/>
        <pt x="378" y="413" on="1"/>
        <pt x="423" y="429" on="0"/>
        <pt x="458" y="464" on="1"/>
        <pt x="500" y="506" on="0"/>
        <pt x="500" y="548" on="1"/>
        <pt x="500" y="649" on="0"/>
        <pt x="445" y="704" on="1"/>
        <pt x="390" y="759" on="0"/>
        <pt x="283" y="759" on="1"/>
        <pt x="281" y="759" on="0"/>
        <pt x="279" y="759" on="1"/>
        <pt x="267" y="761" on="0"/>
        <pt x="255" y="761" on="1"/>
        <pt x="214" y="761" on="0"/>
        <pt x="189" y="735" on="1"/>
        <pt x="164" y="711" on="0"/>
        <pt x="151" y="661" on="1"/>
        <pt x="139" y="617" on="0"/>
        <pt x="134" y="536" on="1"/>
        <pt x="133" y="527" on="0"/>
        <pt x="127" y="520" on="1"/>
      </contour>
      <contour>
        <pt x="310" y="453" on="1"/>
        <pt x="313" y="445" on="0"/>
        <pt x="317" y="438" on="1"/>
        <pt x="316" y="442" on="0"/>
      </contour>
      <contour>
        <pt x="224" y="640" on="1"/>
        <pt x="230" y="601" on="0"/>
        <pt x="261" y="446" on="0"/>
        <pt x="280" y="318" on="0"/>
        <pt x="280" y="258" on="1"/>
        <pt x="280" y="246" on="0"/>
        <pt x="282" y="196" on="0"/>
        <pt x="282" y="181" on="1"/>
        <pt x="282" y="81" on="0"/>
        <pt x="261" y="27" on="1"/>
        <pt x="250" y="0" on="0"/>
        <pt x="234" y="-17" on="1"/>
        <pt x="209" y="-41" on="0"/>
        <pt x="175" y="-41" on="1"/>
        <pt x="157" y="-41" on="0"/>
        <pt x="136" y="-32" on="1"/>
        <pt x="96" y="-14" on="0"/>
        <pt x="76" y="19" on="1"/>
        <pt x="65" y="19" on="0"/>
        <pt x="50" y="34" on="0"/>
        <pt x="50" y="43" on="1"/>
        <pt x="50" y="53" on="0"/>
        <pt x="56" y="61" on="1"/>
        <pt x="82" y="93" on="0"/>
        <pt x="98" y="107" on="1"/>
        <pt x="98" y="108" on="0"/>
        <pt x="99" y="109" on="1"/>
        <pt x="106" y="114" on="0"/>
        <pt x="114" y="114" on="1"/>
        <pt x="125" y="114" on="0"/>
        <pt x="139" y="99" on="0"/>
        <pt x="139" y="88" on="1"/>
        <pt x="139" y="81" on="0"/>
        <pt x="135" y="74" on="1"/>
        <pt x="134" y="73" on="0"/>
        <pt x="129" y="68" on="1"/>
        <pt x="125" y="62" on="0"/>
        <pt x="115" y="52" on="1"/>
        <pt x="119" y="41" on="0"/>
        <pt x="143" y="20" on="0"/>
        <pt x="156" y="14" on="1"/>
        <pt x="167" y="9" on="0"/>
        <pt x="175" y="9" on="1"/>
        <pt x="189" y="9" on="0"/>
        <pt x="198" y="19" on="1"/>
        <pt x="219" y="39" on="0"/>
        <pt x="227" y="100" on="1"/>
        <pt x="232" y="134" on="0"/>
        <pt x="232" y="182" on="1"/>
        <pt x="232" y="197" on="0"/>
        <pt x="230" y="246" on="0"/>
        <pt x="230" y="258" on="1"/>
        <pt x="230" y="315" on="0"/>
        <pt x="211" y="443" on="0"/>
        <pt x="180" y="597" on="0"/>
        <pt x="174" y="636" on="1"/>
        <pt x="174" y="638" on="0"/>
        <pt x="174" y="642" on="0"/>
        <pt x="176" y="658" on="1"/>
        <pt x="178" y="666" on="0"/>
        <pt x="192" y="679" on="0"/>
        <pt x="201" y="679" on="1"/>
        <pt x="211" y="679" on="0"/>
        <pt x="226" y="664" on="0"/>
        <pt x="226" y="654" on="1"/>
        <pt x="226" y="652" on="0"/>
      </contour>
    </TTGlyph>
    <TTGlyph name="S" xMin="50" yMin="-49" xMax="532" yMax="809">
      <contour>
        <pt x="180" y="678" on="1"/>
        <pt x="180" y="579" on="0"/>
        <pt x="254" y="505" on="1"/>
        <pt x="266" y="493" on="0"/>
        <pt x="281" y="481" on="1"/>
        <pt x="316" y="548" on="0"/>
        <pt x="350" y="652" on="0"/>
        <pt x="350" y="716" on="1"/>
        <pt x="350" y="736" on="0"/>
        <pt x="341" y="745" on="1"/>
        <pt x="327" y="759" on="0"/>
        <pt x="287" y="759" on="1"/>
        <pt x="234" y="759" on="0"/>
        <pt x="215" y="755" on="1"/>
        <pt x="199" y="752" on="0"/>
        <pt x="193" y="746" on="1"/>
        <pt x="188" y="741" on="0"/>
        <pt x="185" y="730" on="1"/>
        <pt x="180" y="713" on="0"/>
      </contour>
      <contour>
        <pt x="303" y="151" on="1"/>
        <pt x="313" y="151" on="0"/>
        <pt x="320" y="144" on="1"/>
        <pt x="329" y="136" on="0"/>
        <pt x="343" y="134" on="1"/>
        <pt x="346" y="136" on="0"/>
        <pt x="349" y="139" on="1"/>
        <pt x="355" y="145" on="0"/>
        <pt x="355" y="152" on="1"/>
        <pt x="355" y="157" on="0"/>
        <pt x="353" y="163" on="1"/>
        <pt x="349" y="171" on="0"/>
        <pt x="341" y="179" on="1"/>
        <pt x="319" y="202" on="0"/>
        <pt x="294" y="202" on="1"/>
        <pt x="284" y="202" on="0"/>
        <pt x="279" y="196" on="1"/>
        <pt x="270" y="187" on="0"/>
        <pt x="270" y="162" on="1"/>
        <pt x="270" y="127" on="0"/>
        <pt x="287" y="78" on="1"/>
        <pt x="303" y="33" on="0"/>
        <pt x="323" y="13" on="1"/>
        <pt x="335" y="1" on="0"/>
        <pt x="347" y="1" on="1"/>
        <pt x="394" y="1" on="0"/>
        <pt x="432" y="39" on="1"/>
        <pt x="455" y="62" on="0"/>
        <pt x="482" y="124" on="0"/>
        <pt x="482" y="154" on="1"/>
        <pt x="482" y="243" on="0"/>
        <pt x="413" y="312" on="1"/>
        <pt x="404" y="321" on="0"/>
        <pt x="383" y="340" on="0"/>
        <pt x="356" y="361" on="0"/>
        <pt x="339" y="374" on="0"/>
        <pt x="304" y="399" on="0"/>
        <pt x="298" y="404" on="1"/>
        <pt x="259" y="325" on="0"/>
        <pt x="243" y="262" on="1"/>
        <pt x="241" y="253" on="0"/>
        <pt x="233" y="218" on="0"/>
        <pt x="232" y="216" on="1"/>
        <pt x="237" y="225" on="0"/>
        <pt x="244" y="232" on="1"/>
        <pt x="264" y="252" on="0"/>
        <pt x="294" y="252" on="1"/>
        <pt x="339" y="252" on="0"/>
        <pt x="376" y="215" on="1"/>
        <pt x="397" y="194" on="0"/>
        <pt x="403" y="170" on="1"/>
        <pt x="405" y="162" on="0"/>
        <pt x="405" y="153" on="1"/>
        <pt x="405" y="124" on="0"/>
        <pt x="384" y="103" on="1"/>
        <pt x="375" y="94" on="0"/>
        <pt x="361" y="86" on="1"/>
        <pt x="356" y="83" on="0"/>
        <pt x="349" y="83" on="1"/>
        <pt x="328" y="83" on="0"/>
        <pt x="308" y="93" on="1"/>
        <pt x="295" y="100" on="0"/>
        <pt x="286" y="108" on="1"/>
        <pt x="278" y="115" on="0"/>
        <pt x="278" y="126" on="1"/>
        <pt x="278" y="136" on="0"/>
        <pt x="293" y="151" on="0"/>
      </contour>
      <contour>
        <pt x="130" y="678" on="1"/>
        <pt x="130" y="754" on="0"/>
        <pt x="158" y="781" on="1"/>
        <pt x="175" y="799" on="0"/>
        <pt x="206" y="804" on="1"/>
        <pt x="229" y="809" on="0"/>
        <pt x="287" y="809" on="1"/>
        <pt x="348" y="809" on="0"/>
        <pt x="376" y="781" on="1"/>
        <pt x="400" y="757" on="0"/>
        <pt x="400" y="716" on="1"/>
        <pt x="400" y="664" on="0"/>
        <pt x="374" y="561" on="0"/>
        <pt x="347" y="499" on="0"/>
        <pt x="321" y="449" on="1"/>
        <pt x="331" y="442" on="0"/>
        <pt x="349" y="428" on="1"/>
        <pt x="375" y="409" on="0"/>
        <pt x="399" y="391" on="0"/>
        <pt x="445" y="352" on="0"/>
        <pt x="469" y="325" on="0"/>
        <pt x="503" y="280" on="0"/>
        <pt x="519" y="238" on="0"/>
        <pt x="532" y="184" on="0"/>
        <pt x="532" y="154" on="1"/>
        <pt x="532" y="113" on="0"/>
        <pt x="498" y="34" on="0"/>
        <pt x="468" y="4" on="1"/>
        <pt x="415" y="-49" on="0"/>
        <pt x="347" y="-49" on="1"/>
        <pt x="315" y="-49" on="0"/>
        <pt x="288" y="-22" on="1"/>
        <pt x="259" y="6" on="0"/>
        <pt x="240" y="61" on="1"/>
        <pt x="220" y="119" on="0"/>
        <pt x="220" y="162" on="1"/>
        <pt x="220" y="166" on="0"/>
        <pt x="220" y="170" on="1"/>
        <pt x="192" y="68" on="0"/>
        <pt x="140" y="17" on="1"/>
        <pt x="121" y="-2" on="0"/>
        <pt x="98" y="-16" on="1"/>
        <pt x="92" y="-31" on="0"/>
        <pt x="75" y="-31" on="1"/>
        <pt x="65" y="-31" on="0"/>
        <pt x="50" y="-16" on="0"/>
        <pt x="50" y="-6" on="1"/>
        <pt x="50" y="0" on="1"/>
        <pt x="50" y="15" on="0"/>
        <pt x="64" y="22" on="1"/>
        <pt x="87" y="34" on="0"/>
        <pt x="105" y="52" on="1"/>
        <pt x="113" y="61" on="0"/>
        <pt x="128" y="80" on="0"/>
        <pt x="142" y="104" on="0"/>
        <pt x="151" y="123" on="0"/>
        <pt x="163" y="155" on="0"/>
        <pt x="169" y="172" on="0"/>
        <pt x="179" y="211" on="0"/>
        <pt x="183" y="225" on="0"/>
        <pt x="193" y="268" on="0"/>
        <pt x="195" y="274" on="1"/>
        <pt x="212" y="345" on="0"/>
        <pt x="258" y="435" on="1"/>
        <pt x="199" y="483" on="0"/>
        <pt x="130" y="598" on="0"/>
      </contour>
    </TTGlyph>
    <TTGlyph name="T" xMin="50" yMin="-27" xMax="472" yMax="809">
      <contour>
        <pt x="145" y="650" on="1"/>
        <pt x="145" y="640" on="0"/>
        <pt x="130" y="625" on="0"/>
        <pt x="120" y="625" on="1"/>
        <pt x="109" y="625" on="0"/>
        <pt x="96" y="638" on="1"/>
        <pt x="64" y="670" on="0"/>
        <pt x="51" y="742" on="1"/>
        <pt x="50" y="750" on="0"/>
        <pt x="50" y="757" on="1"/>
        <pt x="50" y="779" on="0"/>
        <pt x="63" y="793" on="1"/>
        <pt x="80" y="809" on="0"/>
        <pt x="120" y="809" on="1"/>
        <pt x="144" y="809" on="0"/>
        <pt x="177" y="797" on="1"/>
        <pt x="199" y="788" on="0"/>
        <pt x="247" y="764" on="1"/>
        <pt x="320" y="726" on="0"/>
        <pt x="351" y="721" on="1"/>
        <pt x="360" y="719" on="0"/>
        <pt x="368" y="719" on="1"/>
        <pt x="375" y="719" on="0"/>
        <pt x="380" y="720" on="1"/>
        <pt x="387" y="762" on="1"/>
        <pt x="391" y="782" on="0"/>
        <pt x="413" y="804" on="0"/>
        <pt x="444" y="804" on="0"/>
        <pt x="456" y="792" on="1"/>
        <pt x="465" y="783" on="0"/>
        <pt x="470" y="767" on="1"/>
        <pt x="471" y="764" on="0"/>
        <pt x="471" y="760" on="1"/>
        <pt x="471" y="756" on="0"/>
        <pt x="470" y="751" on="1"/>
        <pt x="454" y="708" on="0"/>
        <pt x="426" y="687" on="1"/>
        <pt x="425" y="684" on="1"/>
        <pt x="425" y="30" on="1"/>
        <pt x="425" y="23" on="0"/>
        <pt x="420" y="14" on="1"/>
        <pt x="413" y="2" on="0"/>
        <pt x="403" y="-11" on="0"/>
        <pt x="381" y="-27" on="0"/>
        <pt x="368" y="-27" on="1"/>
        <pt x="353" y="-27" on="0"/>
        <pt x="338" y="-17" on="1"/>
        <pt x="294" y="12" on="0"/>
        <pt x="284" y="19" on="1"/>
        <pt x="273" y="27" on="0"/>
        <pt x="273" y="40" on="1"/>
        <pt x="273" y="74" on="1"/>
        <pt x="273" y="84" on="0"/>
        <pt x="288" y="99" on="0"/>
        <pt x="308" y="99" on="0"/>
        <pt x="323" y="84" on="0"/>
        <pt x="323" y="74" on="1"/>
        <pt x="323" y="53" on="1"/>
        <pt x="326" y="51" on="0"/>
        <pt x="366" y="25" on="1"/>
        <pt x="366" y="25" on="0"/>
        <pt x="367" y="24" on="1"/>
        <pt x="370" y="28" on="0"/>
        <pt x="375" y="37" on="1"/>
        <pt x="375" y="670" on="1"/>
        <pt x="371" y="669" on="0"/>
        <pt x="366" y="669" on="1"/>
        <pt x="355" y="669" on="0"/>
        <pt x="342" y="671" on="1"/>
        <pt x="305" y="678" on="0"/>
        <pt x="173" y="745" on="0"/>
        <pt x="159" y="750" on="1"/>
        <pt x="135" y="759" on="0"/>
        <pt x="120" y="759" on="1"/>
        <pt x="108" y="759" on="0"/>
        <pt x="100" y="757" on="1"/>
        <pt x="100" y="755" on="0"/>
        <pt x="101" y="750" on="1"/>
        <pt x="112" y="689" on="0"/>
        <pt x="136" y="669" on="1"/>
        <pt x="145" y="662" on="0"/>
      </contour>
    </TTGlyph>
    <TTGlyph name="U" xMin="50" yMin="-26" xMax="773" yMax="806">
      <contour>
        <pt x="283" y="386" on="1"/>
        <pt x="283" y="435" on="0"/>
        <pt x="305" y="625" on="0"/>
        <pt x="305" y="673" on="1"/>
        <pt x="305" y="708" on="0"/>
        <pt x="287" y="726" on="1"/>
        <pt x="280" y="733" on="0"/>
        <pt x="274" y="733" on="1"/>
        <pt x="270" y="733" on="0"/>
        <pt x="265" y="728" on="1"/>
        <pt x="258" y="722" on="0"/>
        <pt x="253" y="708" on="1"/>
        <pt x="248" y="693" on="0"/>
        <pt x="237" y="682" on="1"/>
        <pt x="215" y="661" on="0"/>
        <pt x="181" y="661" on="1"/>
        <pt x="126" y="661" on="0"/>
        <pt x="84" y="703" on="1"/>
        <pt x="54" y="732" on="0"/>
        <pt x="50" y="768" on="1"/>
        <pt x="50" y="769" on="0"/>
        <pt x="50" y="771" on="1"/>
        <pt x="50" y="781" on="0"/>
        <pt x="65" y="796" on="0"/>
        <pt x="75" y="796" on="1"/>
        <pt x="84" y="796" on="0"/>
        <pt x="99" y="783" on="0"/>
        <pt x="100" y="774" on="1"/>
        <pt x="102" y="756" on="0"/>
        <pt x="119" y="739" on="1"/>
        <pt x="147" y="711" on="0"/>
        <pt x="181" y="711" on="1"/>
        <pt x="195" y="711" on="0"/>
        <pt x="201" y="717" on="1"/>
        <pt x="205" y="721" on="0"/>
        <pt x="207" y="726" on="1"/>
        <pt x="216" y="750" on="0"/>
        <pt x="250" y="783" on="0"/>
        <pt x="275" y="783" on="1"/>
        <pt x="279" y="783" on="0"/>
        <pt x="284" y="782" on="1"/>
        <pt x="305" y="779" on="0"/>
        <pt x="322" y="762" on="1"/>
        <pt x="355" y="729" on="0"/>
        <pt x="355" y="673" on="1"/>
        <pt x="355" y="624" on="0"/>
        <pt x="334" y="433" on="0"/>
        <pt x="334" y="385" on="1"/>
        <pt x="334" y="368" on="0"/>
        <pt x="336" y="327" on="1"/>
        <pt x="343" y="217" on="0"/>
        <pt x="356" y="152" on="1"/>
        <pt x="366" y="105" on="0"/>
        <pt x="379" y="75" on="1"/>
        <pt x="390" y="49" on="0"/>
        <pt x="403" y="36" on="1"/>
        <pt x="415" y="24" on="0"/>
        <pt x="428" y="24" on="1"/>
        <pt x="474" y="24" on="0"/>
        <pt x="509" y="59" on="1"/>
        <pt x="540" y="90" on="0"/>
        <pt x="562" y="147" on="1"/>
        <pt x="537" y="233" on="0"/>
        <pt x="530" y="348" on="1"/>
        <pt x="528" y="388" on="0"/>
        <pt x="528" y="431" on="1"/>
        <pt x="528" y="591" on="0"/>
        <pt x="558" y="785" on="1"/>
        <pt x="560" y="794" on="0"/>
        <pt x="574" y="806" on="0"/>
        <pt x="583" y="806" on="1"/>
        <pt x="600" y="806" on="0"/>
        <pt x="606" y="790" on="1"/>
        <pt x="628" y="733" on="0"/>
        <pt x="655" y="548" on="0"/>
        <pt x="655" y="446" on="1"/>
        <pt x="655" y="399" on="0"/>
        <pt x="652" y="354" on="1"/>
        <pt x="644" y="232" on="0"/>
        <pt x="614" y="146" on="1"/>
        <pt x="632" y="91" on="0"/>
        <pt x="657" y="50" on="1"/>
        <pt x="670" y="30" on="0"/>
        <pt x="696" y="30" on="1"/>
        <pt x="705" y="30" on="0"/>
        <pt x="715" y="33" on="1"/>
        <pt x="726" y="51" on="1"/>
        <pt x="733" y="64" on="0"/>
        <pt x="748" y="64" on="1"/>
        <pt x="758" y="64" on="0"/>
        <pt x="773" y="49" on="0"/>
        <pt x="773" y="39" on="1"/>
        <pt x="773" y="32" on="0"/>
        <pt x="770" y="27" on="1"/>
        <pt x="754" y="-1" on="1"/>
        <pt x="749" y="-10" on="0"/>
        <pt x="739" y="-13" on="1"/>
        <pt x="717" y="-20" on="0"/>
        <pt x="696" y="-20" on="1"/>
        <pt x="655" y="-20" on="0"/>
        <pt x="628" y="7" on="1"/>
        <pt x="621" y="14" on="0"/>
        <pt x="615" y="24" on="1"/>
        <pt x="599" y="49" on="0"/>
        <pt x="586" y="80" on="1"/>
        <pt x="567" y="46" on="0"/>
        <pt x="544" y="23" on="1"/>
        <pt x="495" y="-26" on="0"/>
        <pt x="428" y="-26" on="1"/>
        <pt x="394" y="-26" on="0"/>
        <pt x="368" y="0" on="1"/>
        <pt x="348" y="20" on="0"/>
        <pt x="333" y="55" on="1"/>
        <pt x="318" y="90" on="0"/>
        <pt x="307" y="142" on="1"/>
        <pt x="303" y="164" on="0"/>
        <pt x="296" y="209" on="0"/>
        <pt x="291" y="255" on="0"/>
        <pt x="289" y="284" on="0"/>
        <pt x="286" y="333" on="0"/>
        <pt x="285" y="341" on="1"/>
        <pt x="283" y="363" on="0"/>
      </contour>
      <contour>
        <pt x="590" y="255" on="1"/>
        <pt x="605" y="340" on="0"/>
        <pt x="605" y="443" on="1"/>
        <pt x="605" y="547" on="0"/>
        <pt x="590" y="644" on="1"/>
        <pt x="578" y="529" on="0"/>
        <pt x="578" y="431" on="1"/>
        <pt x="578" y="334" on="0"/>
      </contour>
    </TTGlyph>
    <TTGlyph name="V" xMin="50" yMin="15" xMax="779" yMax="820">
      <contour>
        <pt x="75" y="658" on="1"/>
        <pt x="65" y="658" on="0"/>
        <pt x="50" y="673" on="0"/>
        <pt x="50" y="683" on="1"/>
        <pt x="50" y="684" on="0"/>
        <pt x="50" y="685" on="1"/>
        <pt x="54" y="734" on="0"/>
        <pt x="125" y="819" on="0"/>
        <pt x="176" y="819" on="1"/>
        <pt x="190" y="819" on="0"/>
        <pt x="198" y="811" on="1"/>
        <pt x="250" y="760" on="0"/>
        <pt x="262" y="672" on="1"/>
        <pt x="297" y="454" on="0"/>
        <pt x="329" y="301" on="1"/>
        <pt x="352" y="188" on="0"/>
        <pt x="371" y="125" on="1"/>
        <pt x="377" y="106" on="0"/>
        <pt x="383" y="91" on="1"/>
        <pt x="389" y="126" on="0"/>
        <pt x="395" y="229" on="1"/>
        <pt x="408" y="430" on="0"/>
        <pt x="431" y="528" on="1"/>
        <pt x="463" y="665" on="0"/>
        <pt x="530" y="732" on="1"/>
        <pt x="597" y="798" on="0"/>
        <pt x="696" y="798" on="1"/>
        <pt x="708" y="798" on="0"/>
        <pt x="716" y="788" on="1"/>
        <pt x="750" y="744" on="0"/>
        <pt x="758" y="731" on="1"/>
        <pt x="778" y="696" on="0"/>
        <pt x="778" y="663" on="1"/>
        <pt x="778" y="659" on="0"/>
        <pt x="778" y="654" on="1"/>
        <pt x="778" y="650" on="0"/>
        <pt x="775" y="598" on="0"/>
        <pt x="772" y="584" on="1"/>
        <pt x="767" y="562" on="0"/>
        <pt x="754" y="549" on="1"/>
        <pt x="734" y="529" on="0"/>
        <pt x="696" y="529" on="1"/>
        <pt x="651" y="529" on="0"/>
        <pt x="631" y="549" on="1"/>
        <pt x="619" y="562" on="0"/>
        <pt x="613" y="590" on="1"/>
        <pt x="609" y="609" on="0"/>
        <pt x="603" y="615" on="1"/>
        <pt x="596" y="622" on="0"/>
        <pt x="596" y="632" on="1"/>
        <pt x="596" y="642" on="0"/>
        <pt x="611" y="657" on="0"/>
        <pt x="621" y="657" on="1"/>
        <pt x="632" y="657" on="0"/>
        <pt x="639" y="649" on="1"/>
        <pt x="655" y="633" on="0"/>
        <pt x="661" y="601" on="1"/>
        <pt x="664" y="587" on="0"/>
        <pt x="667" y="584" on="1"/>
        <pt x="672" y="579" on="0"/>
        <pt x="696" y="579" on="1"/>
        <pt x="713" y="579" on="0"/>
        <pt x="719" y="584" on="1"/>
        <pt x="722" y="588" on="0"/>
        <pt x="724" y="596" on="1"/>
        <pt x="726" y="604" on="0"/>
        <pt x="728" y="653" on="0"/>
        <pt x="728" y="658" on="1"/>
        <pt x="728" y="661" on="0"/>
        <pt x="728" y="663" on="1"/>
        <pt x="728" y="682" on="0"/>
        <pt x="715" y="706" on="1"/>
        <pt x="707" y="719" on="0"/>
        <pt x="684" y="748" on="1"/>
        <pt x="614" y="744" on="0"/>
        <pt x="566" y="696" on="1"/>
        <pt x="509" y="639" on="0"/>
        <pt x="480" y="516" on="1"/>
        <pt x="457" y="422" on="0"/>
        <pt x="445" y="226" on="1"/>
        <pt x="438" y="107" on="0"/>
        <pt x="429" y="69" on="1"/>
        <pt x="426" y="53" on="0"/>
        <pt x="422" y="42" on="1"/>
        <pt x="410" y="15" on="0"/>
        <pt x="387" y="15" on="1"/>
        <pt x="373" y="15" on="0"/>
        <pt x="362" y="27" on="1"/>
        <pt x="352" y="36" on="0"/>
        <pt x="334" y="77" on="0"/>
        <pt x="323" y="111" on="1"/>
        <pt x="304" y="176" on="0"/>
        <pt x="280" y="290" on="1"/>
        <pt x="248" y="444" on="0"/>
        <pt x="212" y="664" on="1"/>
        <pt x="212" y="664" on="0"/>
        <pt x="212" y="665" on="1"/>
        <pt x="204" y="727" on="0"/>
        <pt x="169" y="769" on="1"/>
        <pt x="150" y="766" on="0"/>
        <pt x="132" y="749" on="1"/>
        <pt x="119" y="736" on="0"/>
        <pt x="101" y="697" on="0"/>
        <pt x="100" y="681" on="1"/>
        <pt x="99" y="671" on="0"/>
        <pt x="85" y="658" on="0"/>
      </contour>
    </TTGlyph>
    <TTGlyph name="W" xMin="50" yMin="-42" xMax="865" yMax="813">
      <contour>
        <pt x="85" y="688" on="0"/>
        <pt x="65" y="688" on="0"/>
        <pt x="50" y="703" on="0"/>
        <pt x="50" y="713" on="1"/>
        <pt x="50" y="723" on="0"/>
        <pt x="57" y="730" on="1"/>
        <pt x="59" y="733" on="0"/>
        <pt x="64" y="740" on="1"/>
        <pt x="76" y="757" on="0"/>
        <pt x="86" y="765" on="1"/>
        <pt x="91" y="770" on="0"/>
        <pt x="107" y="788" on="0"/>
        <pt x="122" y="801" on="0"/>
        <pt x="132" y="804" on="1"/>
        <pt x="147" y="810" on="0"/>
        <pt x="174" y="810" on="1"/>
        <pt x="196" y="810" on="0"/>
        <pt x="213" y="792" on="1"/>
        <pt x="221" y="784" on="0"/>
        <pt x="246" y="747" on="0"/>
        <pt x="253" y="740" on="1"/>
        <pt x="264" y="729" on="0"/>
        <pt x="276" y="729" on="1"/>
        <pt x="280" y="729" on="0"/>
        <pt x="283" y="728" on="1"/>
        <pt x="284" y="729" on="0"/>
        <pt x="285" y="730" on="1"/>
        <pt x="291" y="735" on="0"/>
        <pt x="300" y="752" on="0"/>
        <pt x="310" y="778" on="0"/>
        <pt x="312" y="781" on="1"/>
        <pt x="315" y="788" on="0"/>
        <pt x="319" y="792" on="1"/>
        <pt x="324" y="797" on="0"/>
        <pt x="330" y="799" on="1"/>
        <pt x="333" y="800" on="0"/>
        <pt x="338" y="800" on="1"/>
        <pt x="348" y="800" on="0"/>
        <pt x="356" y="793" on="1"/>
        <pt x="360" y="788" on="0"/>
        <pt x="362" y="781" on="1"/>
        <pt x="364" y="775" on="0"/>
        <pt x="364" y="765" on="1"/>
        <pt x="364" y="763" on="0"/>
        <pt x="364" y="761" on="1"/>
        <pt x="362" y="648" on="0"/>
        <pt x="323" y="432" on="1"/>
        <pt x="310" y="359" on="0"/>
        <pt x="296" y="276" on="0"/>
        <pt x="283" y="150" on="0"/>
        <pt x="283" y="98" on="1"/>
        <pt x="283" y="49" on="0"/>
        <pt x="296" y="35" on="1"/>
        <pt x="302" y="29" on="0"/>
        <pt x="316" y="26" on="1"/>
        <pt x="335" y="21" on="0"/>
        <pt x="375" y="21" on="1"/>
        <pt x="399" y="21" on="0"/>
        <pt x="413" y="27" on="1"/>
        <pt x="426" y="32" on="0"/>
        <pt x="442" y="54" on="1"/>
        <pt x="454" y="70" on="0"/>
        <pt x="463" y="78" on="1"/>
        <pt x="470" y="85" on="0"/>
        <pt x="478" y="92" on="1"/>
        <pt x="494" y="178" on="1"/>
        <pt x="496" y="186" on="0"/>
        <pt x="510" y="198" on="0"/>
        <pt x="519" y="198" on="1"/>
        <pt x="529" y="198" on="0"/>
        <pt x="537" y="191" on="1"/>
        <pt x="544" y="184" on="0"/>
        <pt x="544" y="174" on="1"/>
        <pt x="547" y="42" on="1"/>
        <pt x="552" y="24" on="0"/>
        <pt x="557" y="12" on="0"/>
        <pt x="560" y="9" on="1"/>
        <pt x="561" y="8" on="0"/>
        <pt x="563" y="8" on="1"/>
        <pt x="567" y="8" on="0"/>
        <pt x="573" y="10" on="1"/>
        <pt x="577" y="12" on="0"/>
        <pt x="581" y="12" on="1"/>
        <pt x="644" y="16" on="0"/>
        <pt x="683" y="55" on="1"/>
        <pt x="734" y="105" on="0"/>
        <pt x="749" y="218" on="1"/>
        <pt x="756" y="270" on="0"/>
        <pt x="756" y="337" on="1"/>
        <pt x="756" y="376" on="0"/>
        <pt x="749" y="509" on="1"/>
        <pt x="743" y="509" on="0"/>
        <pt x="738" y="509" on="1"/>
        <pt x="729" y="509" on="0"/>
        <pt x="724" y="508" on="1"/>
        <pt x="710" y="506" on="0"/>
        <pt x="694" y="506" on="1"/>
        <pt x="627" y="506" on="0"/>
        <pt x="582" y="551" on="1"/>
        <pt x="544" y="588" on="0"/>
        <pt x="542" y="643" on="1"/>
        <pt x="542" y="643" on="0"/>
        <pt x="542" y="644" on="1"/>
        <pt x="542" y="680" on="0"/>
        <pt x="560" y="720" on="1"/>
        <pt x="575" y="756" on="0"/>
        <pt x="598" y="779" on="1"/>
        <pt x="632" y="813" on="0"/>
        <pt x="675" y="813" on="1"/>
        <pt x="696" y="813" on="0"/>
        <pt x="714" y="795" on="1"/>
        <pt x="731" y="778" on="0"/>
        <pt x="746" y="744" on="1"/>
        <pt x="773" y="681" on="0"/>
        <pt x="791" y="571" on="1"/>
        <pt x="792" y="571" on="0"/>
        <pt x="792" y="571" on="1"/>
        <pt x="823" y="600" on="1"/>
        <pt x="830" y="606" on="0"/>
        <pt x="840" y="606" on="1"/>
        <pt x="850" y="606" on="0"/>
        <pt x="865" y="591" on="0"/>
        <pt x="865" y="581" on="1"/>
        <pt x="865" y="570" on="0"/>
        <pt x="857" y="562" on="1"/>
        <pt x="824" y="532" on="1"/>
        <pt x="822" y="531" on="0"/>
        <pt x="815" y="526" on="1"/>
        <pt x="804" y="519" on="0"/>
        <pt x="799" y="516" on="1"/>
        <pt x="799" y="511" on="0"/>
        <pt x="800" y="499" on="0"/>
        <pt x="801" y="484" on="0"/>
        <pt x="801" y="480" on="1"/>
        <pt x="806" y="387" on="0"/>
        <pt x="806" y="337" on="1"/>
        <pt x="806" y="267" on="0"/>
        <pt x="799" y="212" on="1"/>
        <pt x="781" y="82" on="0"/>
        <pt x="718" y="20" on="1"/>
        <pt x="667" y="-32" on="0"/>
        <pt x="587" y="-38" on="1"/>
        <pt x="574" y="-42" on="0"/>
        <pt x="563" y="-42" on="1"/>
        <pt x="540" y="-42" on="0"/>
        <pt x="524" y="-26" on="1"/>
        <pt x="510" y="-12" on="0"/>
        <pt x="498" y="31" on="1"/>
        <pt x="497" y="34" on="0"/>
        <pt x="497" y="41" on="1"/>
        <pt x="491" y="36" on="0"/>
        <pt x="471" y="9" on="0"/>
        <pt x="464" y="2" on="1"/>
        <pt x="450" y="-11" on="0"/>
        <pt x="433" y="-19" on="1"/>
        <pt x="410" y="-29" on="0"/>
        <pt x="375" y="-29" on="1"/>
        <pt x="332" y="-29" on="0"/>
        <pt x="279" y="-18" on="0"/>
        <pt x="261" y="0" on="1"/>
        <pt x="233" y="28" on="0"/>
        <pt x="233" y="98" on="1"/>
        <pt x="233" y="153" on="0"/>
        <pt x="247" y="284" on="0"/>
        <pt x="260" y="366" on="0"/>
        <pt x="274" y="441" on="1"/>
        <pt x="303" y="604" on="0"/>
        <pt x="310" y="686" on="1"/>
        <pt x="297" y="678" on="0"/>
        <pt x="283" y="678" on="1"/>
        <pt x="278" y="678" on="0"/>
        <pt x="272" y="679" on="1"/>
        <pt x="241" y="680" on="0"/>
        <pt x="218" y="704" on="1"/>
        <pt x="207" y="715" on="0"/>
        <pt x="192" y="737" on="1"/>
        <pt x="182" y="753" on="0"/>
        <pt x="178" y="757" on="1"/>
        <pt x="175" y="759" on="0"/>
        <pt x="174" y="760" on="1"/>
        <pt x="156" y="760" on="0"/>
        <pt x="149" y="758" on="1"/>
        <pt x="146" y="756" on="0"/>
        <pt x="140" y="749" on="1"/>
        <pt x="128" y="736" on="0"/>
        <pt x="118" y="727" on="1"/>
        <pt x="113" y="722" on="0"/>
        <pt x="98" y="700" on="0"/>
        <pt x="93" y="695" on="1"/>
      </contour>
      <contour>
        <pt x="695" y="556" on="1"/>
        <pt x="705" y="556" on="0"/>
        <pt x="716" y="558" on="1"/>
        <pt x="725" y="559" on="0"/>
        <pt x="738" y="559" on="1"/>
        <pt x="740" y="559" on="0"/>
        <pt x="742" y="559" on="1"/>
        <pt x="725" y="666" on="0"/>
        <pt x="700" y="724" on="1"/>
        <pt x="689" y="750" on="0"/>
        <pt x="679" y="760" on="1"/>
        <pt x="676" y="762" on="0"/>
        <pt x="675" y="763" on="1"/>
        <pt x="633" y="763" on="0"/>
        <pt x="606" y="700" on="1"/>
        <pt x="592" y="670" on="0"/>
        <pt x="592" y="645" on="1"/>
        <pt x="594" y="605" on="0"/>
        <pt x="653" y="556" on="0"/>
      </contour>
    </TTGlyph>
    <TTGlyph name="X" xMin="50" yMin="-50" xMax="886" yMax="824">
      <contour>
        <pt x="101" y="531" on="1"/>
        <pt x="86" y="585" on="0"/>
        <pt x="86" y="664" on="1"/>
        <pt x="86" y="668" on="0"/>
        <pt x="86" y="687" on="0"/>
        <pt x="86" y="692" on="1"/>
        <pt x="86" y="695" on="0"/>
        <pt x="87" y="698" on="1"/>
        <pt x="95" y="729" on="0"/>
        <pt x="150" y="775" on="0"/>
        <pt x="183" y="788" on="1"/>
        <pt x="221" y="801" on="0"/>
        <pt x="273" y="801" on="1"/>
        <pt x="335" y="801" on="0"/>
        <pt x="363" y="773" on="1"/>
        <pt x="375" y="760" on="0"/>
        <pt x="388" y="732" on="1"/>
        <pt x="402" y="701" on="0"/>
        <pt x="418" y="687" on="1"/>
        <pt x="425" y="681" on="0"/>
        <pt x="427" y="672" on="1"/>
        <pt x="439" y="588" on="1"/>
        <pt x="439" y="586" on="0"/>
        <pt x="439" y="584" on="1"/>
        <pt x="439" y="583" on="0"/>
        <pt x="439" y="583" on="1"/>
        <pt x="433" y="454" on="1"/>
        <pt x="433" y="450" on="0"/>
        <pt x="431" y="446" on="1"/>
        <pt x="401" y="363" on="1"/>
        <pt x="420" y="374" on="0"/>
        <pt x="436" y="384" on="1"/>
        <pt x="436" y="397" on="0"/>
        <pt x="437" y="411" on="1"/>
        <pt x="437" y="523" on="0"/>
        <pt x="462" y="611" on="1"/>
        <pt x="489" y="705" on="0"/>
        <pt x="542" y="758" on="1"/>
        <pt x="606" y="822" on="0"/>
        <pt x="702" y="822" on="1"/>
        <pt x="705" y="822" on="0"/>
        <pt x="723" y="824" on="0"/>
        <pt x="729" y="824" on="1"/>
        <pt x="753" y="824" on="0"/>
        <pt x="765" y="812" on="1"/>
        <pt x="775" y="802" on="0"/>
        <pt x="775" y="788" on="1"/>
        <pt x="775" y="783" on="0"/>
        <pt x="776" y="759" on="0"/>
        <pt x="776" y="753" on="1"/>
        <pt x="776" y="742" on="0"/>
        <pt x="775" y="733" on="1"/>
        <pt x="765" y="667" on="0"/>
        <pt x="712" y="551" on="0"/>
        <pt x="628" y="459" on="0"/>
        <pt x="543" y="391" on="0"/>
        <pt x="487" y="356" on="1"/>
        <pt x="491" y="288" on="0"/>
        <pt x="543" y="161" on="0"/>
        <pt x="586" y="118" on="1"/>
        <pt x="649" y="55" on="0"/>
        <pt x="733" y="51" on="1"/>
        <pt x="746" y="50" on="0"/>
        <pt x="757" y="50" on="1"/>
        <pt x="805" y="50" on="0"/>
        <pt x="822" y="66" on="1"/>
        <pt x="834" y="78" on="0"/>
        <pt x="836" y="104" on="1"/>
        <pt x="827" y="110" on="0"/>
        <pt x="807" y="122" on="1"/>
        <pt x="776" y="127" on="1"/>
        <pt x="767" y="129" on="0"/>
        <pt x="755" y="143" on="0"/>
        <pt x="755" y="152" on="1"/>
        <pt x="755" y="162" on="0"/>
        <pt x="770" y="177" on="0"/>
        <pt x="780" y="177" on="1"/>
        <pt x="782" y="177" on="0"/>
        <pt x="784" y="177" on="1"/>
        <pt x="820" y="171" on="1"/>
        <pt x="825" y="170" on="0"/>
        <pt x="834" y="164" on="0"/>
        <pt x="855" y="151" on="0"/>
        <pt x="861" y="148" on="1"/>
        <pt x="877" y="137" on="0"/>
        <pt x="882" y="130" on="1"/>
        <pt x="886" y="123" on="0"/>
        <pt x="886" y="116" on="1"/>
        <pt x="886" y="60" on="0"/>
        <pt x="857" y="31" on="1"/>
        <pt x="837" y="11" on="0"/>
        <pt x="805" y="5" on="1"/>
        <pt x="785" y="0" on="0"/>
        <pt x="758" y="0" on="1"/>
        <pt x="747" y="0" on="0"/>
        <pt x="731" y="1" on="1"/>
        <pt x="668" y="4" on="0"/>
        <pt x="562" y="63" on="0"/>
        <pt x="491" y="156" on="0"/>
        <pt x="446" y="267" on="0"/>
        <pt x="439" y="327" on="1"/>
        <pt x="417" y="314" on="0"/>
        <pt x="375" y="290" on="1"/>
        <pt x="368" y="272" on="1"/>
        <pt x="368" y="271" on="0"/>
        <pt x="367" y="270" on="1"/>
        <pt x="319" y="174" on="1"/>
        <pt x="318" y="171" on="0"/>
        <pt x="316" y="169" on="1"/>
        <pt x="306" y="157" on="0"/>
        <pt x="280" y="109" on="1"/>
        <pt x="232" y="20" on="0"/>
        <pt x="200" y="-12" on="1"/>
        <pt x="161" y="-50" on="0"/>
        <pt x="120" y="-50" on="1"/>
        <pt x="104" y="-50" on="0"/>
        <pt x="90" y="-37" on="1"/>
        <pt x="75" y="-21" on="0"/>
        <pt x="63" y="14" on="1"/>
        <pt x="50" y="52" on="0"/>
        <pt x="50" y="74" on="1"/>
        <pt x="50" y="77" on="0"/>
        <pt x="51" y="80" on="1"/>
        <pt x="64" y="135" on="0"/>
        <pt x="106" y="173" on="1"/>
        <pt x="106" y="174" on="1"/>
        <pt x="138" y="201" on="0"/>
        <pt x="221" y="259" on="0"/>
        <pt x="282" y="295" on="0"/>
        <pt x="334" y="325" on="1"/>
        <pt x="383" y="460" on="1"/>
        <pt x="389" y="583" on="1"/>
        <pt x="379" y="656" on="1"/>
        <pt x="359" y="675" on="0"/>
        <pt x="342" y="711" on="1"/>
        <pt x="333" y="732" on="0"/>
        <pt x="327" y="738" on="1"/>
        <pt x="314" y="751" on="0"/>
        <pt x="273" y="751" on="1"/>
        <pt x="230" y="751" on="0"/>
        <pt x="200" y="740" on="1"/>
        <pt x="170" y="730" on="0"/>
        <pt x="151" y="710" on="1"/>
        <pt x="140" y="699" on="0"/>
        <pt x="136" y="688" on="1"/>
        <pt x="136" y="685" on="0"/>
        <pt x="136" y="668" on="0"/>
        <pt x="136" y="664" on="1"/>
        <pt x="136" y="589" on="0"/>
        <pt x="150" y="540" on="1"/>
        <pt x="151" y="537" on="0"/>
        <pt x="151" y="533" on="1"/>
        <pt x="151" y="531" on="0"/>
        <pt x="151" y="528" on="1"/>
        <pt x="151" y="526" on="0"/>
        <pt x="151" y="524" on="1"/>
        <pt x="151" y="514" on="0"/>
        <pt x="136" y="499" on="0"/>
        <pt x="126" y="499" on="1"/>
        <pt x="115" y="499" on="0"/>
        <pt x="100" y="516" on="0"/>
        <pt x="100" y="528" on="1"/>
        <pt x="100" y="530" on="0"/>
      </contour>
      <contour>
        <pt x="725" y="774" on="1"/>
        <pt x="722" y="773" on="0"/>
        <pt x="707" y="772" on="0"/>
        <pt x="702" y="772" on="1"/>
        <pt x="626" y="772" on="0"/>
        <pt x="577" y="723" on="1"/>
        <pt x="533" y="679" on="0"/>
        <pt x="510" y="597" on="1"/>
        <pt x="488" y="518" on="0"/>
        <pt x="487" y="416" on="1"/>
        <pt x="560" y="464" on="0"/>
        <pt x="608" y="511" on="1"/>
        <pt x="707" y="610" on="0"/>
        <pt x="725" y="741" on="1"/>
        <pt x="726" y="745" on="0"/>
        <pt x="726" y="753" on="1"/>
        <pt x="726" y="759" on="0"/>
      </contour>
      <contour>
        <pt x="100" y="72" on="1"/>
        <pt x="103" y="52" on="0"/>
        <pt x="110" y="30" on="1"/>
        <pt x="117" y="11" on="0"/>
        <pt x="125" y="0" on="1"/>
        <pt x="143" y="3" on="0"/>
        <pt x="164" y="24" on="1"/>
        <pt x="191" y="51" on="0"/>
        <pt x="236" y="133" on="1"/>
        <pt x="263" y="183" on="0"/>
        <pt x="276" y="199" on="1"/>
        <pt x="300" y="247" on="1"/>
        <pt x="196" y="186" on="0"/>
        <pt x="140" y="136" on="1"/>
        <pt x="110" y="110" on="0"/>
      </contour>
    </TTGlyph>
    <TTGlyph name="Y" xMin="50" yMin="-18" xMax="691" yMax="804">
      <contour>
        <pt x="257" y="631" on="1"/>
        <pt x="257" y="647" on="0"/>
        <pt x="258" y="703" on="0"/>
        <pt x="258" y="717" on="1"/>
        <pt x="258" y="719" on="0"/>
        <pt x="258" y="722" on="1"/>
        <pt x="241" y="708" on="0"/>
        <pt x="204" y="671" on="1"/>
        <pt x="196" y="664" on="0"/>
        <pt x="186" y="664" on="1"/>
        <pt x="114" y="664" on="0"/>
        <pt x="78" y="700" on="1"/>
        <pt x="50" y="728" on="0"/>
        <pt x="50" y="773" on="1"/>
        <pt x="50" y="779" on="1"/>
        <pt x="50" y="789" on="0"/>
        <pt x="65" y="804" on="0"/>
        <pt x="85" y="804" on="0"/>
        <pt x="100" y="789" on="0"/>
        <pt x="100" y="779" on="1"/>
        <pt x="100" y="773" on="1"/>
        <pt x="100" y="748" on="0"/>
        <pt x="113" y="735" on="1"/>
        <pt x="132" y="716" on="0"/>
        <pt x="176" y="714" on="1"/>
        <pt x="220" y="757" on="0"/>
        <pt x="240" y="770" on="1"/>
        <pt x="250" y="778" on="0"/>
        <pt x="259" y="780" on="1"/>
        <pt x="265" y="782" on="0"/>
        <pt x="271" y="782" on="1"/>
        <pt x="296" y="782" on="0"/>
        <pt x="304" y="756" on="1"/>
        <pt x="308" y="743" on="0"/>
        <pt x="308" y="716" on="1"/>
        <pt x="308" y="703" on="0"/>
        <pt x="307" y="647" on="0"/>
        <pt x="307" y="631" on="1"/>
        <pt x="307" y="629" on="0"/>
        <pt x="307" y="619" on="0"/>
        <pt x="307" y="617" on="1"/>
        <pt x="307" y="617" on="0"/>
        <pt x="307" y="616" on="1"/>
        <pt x="305" y="579" on="0"/>
        <pt x="305" y="555" on="1"/>
        <pt x="305" y="491" on="0"/>
        <pt x="329" y="396" on="0"/>
        <pt x="361" y="361" on="1"/>
        <pt x="362" y="359" on="0"/>
        <pt x="380" y="338" on="0"/>
        <pt x="384" y="334" on="1"/>
        <pt x="392" y="326" on="0"/>
        <pt x="399" y="324" on="1"/>
        <pt x="407" y="321" on="0"/>
        <pt x="420" y="321" on="1"/>
        <pt x="422" y="321" on="0"/>
        <pt x="425" y="321" on="1"/>
        <pt x="437" y="318" on="0"/>
        <pt x="449" y="318" on="1"/>
        <pt x="507" y="318" on="0"/>
        <pt x="552" y="364" on="1"/>
        <pt x="558" y="369" on="0"/>
        <pt x="563" y="375" on="1"/>
        <pt x="541" y="469" on="1"/>
        <pt x="531" y="486" on="0"/>
        <pt x="526" y="544" on="1"/>
        <pt x="523" y="581" on="0"/>
        <pt x="523" y="598" on="1"/>
        <pt x="523" y="636" on="0"/>
        <pt x="533" y="665" on="1"/>
        <pt x="532" y="670" on="0"/>
        <pt x="532" y="675" on="1"/>
        <pt x="532" y="693" on="0"/>
        <pt x="537" y="709" on="1"/>
        <pt x="550" y="752" on="0"/>
        <pt x="584" y="764" on="1"/>
        <pt x="594" y="767" on="0"/>
        <pt x="605" y="767" on="1"/>
        <pt x="613" y="767" on="0"/>
        <pt x="621" y="765" on="1"/>
        <pt x="624" y="765" on="0"/>
        <pt x="640" y="767" on="0"/>
        <pt x="645" y="767" on="1"/>
        <pt x="649" y="767" on="0"/>
        <pt x="652" y="766" on="1"/>
        <pt x="667" y="765" on="0"/>
        <pt x="677" y="755" on="1"/>
        <pt x="688" y="744" on="0"/>
        <pt x="688" y="725" on="1"/>
        <pt x="688" y="716" on="0"/>
        <pt x="690" y="676" on="0"/>
        <pt x="690" y="666" on="1"/>
        <pt x="690" y="648" on="0"/>
        <pt x="688" y="634" on="1"/>
        <pt x="684" y="614" on="0"/>
        <pt x="680" y="573" on="1"/>
        <pt x="675" y="532" on="0"/>
        <pt x="669" y="492" on="0"/>
        <pt x="649" y="424" on="0"/>
        <pt x="634" y="399" on="1"/>
        <pt x="627" y="380" on="0"/>
        <pt x="616" y="363" on="1"/>
        <pt x="625" y="309" on="0"/>
        <pt x="646" y="165" on="1"/>
        <pt x="646" y="164" on="0"/>
        <pt x="646" y="163" on="1"/>
        <pt x="652" y="82" on="1"/>
        <pt x="652" y="81" on="0"/>
        <pt x="652" y="80" on="1"/>
        <pt x="652" y="47" on="1"/>
        <pt x="652" y="41" on="0"/>
        <pt x="649" y="36" on="1"/>
        <pt x="644" y="25" on="0"/>
        <pt x="635" y="17" on="1"/>
        <pt x="615" y="-3" on="0"/>
        <pt x="579" y="-11" on="1"/>
        <pt x="556" y="-16" on="0"/>
        <pt x="502" y="-17" on="1"/>
        <pt x="499" y="-17" on="0"/>
        <pt x="497" y="-17" on="1"/>
        <pt x="422" y="-17" on="0"/>
        <pt x="377" y="28" on="1"/>
        <pt x="335" y="70" on="0"/>
        <pt x="335" y="137" on="1"/>
        <pt x="335" y="149" on="0"/>
        <pt x="341" y="164" on="1"/>
        <pt x="348" y="182" on="0"/>
        <pt x="361" y="194" on="1"/>
        <pt x="377" y="210" on="0"/>
        <pt x="396" y="210" on="1"/>
        <pt x="413" y="210" on="0"/>
        <pt x="427" y="196" on="1"/>
        <pt x="438" y="184" on="0"/>
        <pt x="447" y="165" on="1"/>
        <pt x="457" y="142" on="0"/>
        <pt x="457" y="125" on="1"/>
        <pt x="457" y="119" on="0"/>
        <pt x="455" y="108" on="0"/>
        <pt x="450" y="98" on="0"/>
        <pt x="450" y="97" on="1"/>
        <pt x="447" y="86" on="0"/>
        <pt x="437" y="82" on="1"/>
        <pt x="425" y="76" on="1"/>
        <pt x="420" y="73" on="0"/>
        <pt x="414" y="73" on="1"/>
        <pt x="407" y="73" on="0"/>
        <pt x="401" y="76" on="1"/>
        <pt x="430" y="33" on="0"/>
        <pt x="497" y="33" on="1"/>
        <pt x="585" y="33" on="0"/>
        <pt x="602" y="54" on="1"/>
        <pt x="602" y="79" on="1"/>
        <pt x="596" y="158" on="1"/>
        <pt x="594" y="176" on="0"/>
        <pt x="584" y="240" on="0"/>
        <pt x="576" y="292" on="0"/>
        <pt x="573" y="315" on="1"/>
        <pt x="517" y="268" on="0"/>
        <pt x="449" y="268" on="1"/>
        <pt x="433" y="268" on="0"/>
        <pt x="417" y="271" on="1"/>
        <pt x="392" y="271" on="0"/>
        <pt x="374" y="280" on="1"/>
        <pt x="366" y="284" on="0"/>
        <pt x="351" y="296" on="0"/>
        <pt x="343" y="305" on="0"/>
        <pt x="326" y="324" on="0"/>
        <pt x="323" y="327" on="1"/>
        <pt x="284" y="372" on="0"/>
        <pt x="255" y="482" on="0"/>
        <pt x="255" y="551" on="1"/>
        <pt x="255" y="574" on="0"/>
        <pt x="257" y="617" on="1"/>
        <pt x="257" y="624" on="0"/>
      </contour>
      <contour>
        <pt x="638" y="716" on="1"/>
        <pt x="622" y="715" on="0"/>
        <pt x="618" y="715" on="1"/>
        <pt x="616" y="715" on="0"/>
        <pt x="606" y="717" on="0"/>
        <pt x="604" y="717" on="1"/>
        <pt x="599" y="717" on="0"/>
        <pt x="594" y="713" on="1"/>
        <pt x="588" y="707" on="0"/>
        <pt x="585" y="695" on="1"/>
        <pt x="582" y="686" on="0"/>
        <pt x="582" y="674" on="1"/>
        <pt x="582" y="672" on="0"/>
        <pt x="583" y="664" on="0"/>
        <pt x="583" y="662" on="1"/>
        <pt x="583" y="657" on="0"/>
        <pt x="581" y="653" on="1"/>
        <pt x="573" y="631" on="0"/>
        <pt x="573" y="598" on="1"/>
        <pt x="573" y="580" on="0"/>
        <pt x="579" y="516" on="0"/>
        <pt x="581" y="506" on="1"/>
        <pt x="584" y="493" on="1"/>
        <pt x="587" y="489" on="0"/>
        <pt x="588" y="485" on="1"/>
        <pt x="599" y="439" on="1"/>
        <pt x="619" y="480" on="0"/>
        <pt x="630" y="579" on="1"/>
        <pt x="635" y="621" on="0"/>
        <pt x="638" y="642" on="1"/>
        <pt x="640" y="652" on="0"/>
        <pt x="640" y="666" on="1"/>
        <pt x="640" y="675" on="0"/>
        <pt x="638" y="710" on="0"/>
      </contour>
      <contour>
        <pt x="407" y="125" on="1"/>
        <pt x="407" y="131" on="0"/>
        <pt x="401" y="145" on="1"/>
        <pt x="398" y="151" on="0"/>
        <pt x="395" y="157" on="1"/>
        <pt x="387" y="147" on="0"/>
        <pt x="385" y="137" on="1"/>
        <pt x="385" y="118" on="0"/>
        <pt x="389" y="103" on="1"/>
        <pt x="391" y="110" on="0"/>
        <pt x="396" y="116" on="1"/>
        <pt x="399" y="119" on="0"/>
        <pt x="406" y="122" on="1"/>
        <pt x="406" y="123" on="0"/>
        <pt x="407" y="125" on="0"/>
      </contour>
    </TTGlyph>
    <TTGlyph name="Z" xMin="50" yMin="-48" xMax="430" yMax="816">
      <contour>
        <pt x="349" y="221" on="1"/>
        <pt x="349" y="204" on="0"/>
        <pt x="353" y="128" on="0"/>
        <pt x="353" y="109" on="1"/>
        <pt x="353" y="81" on="0"/>
        <pt x="350" y="60" on="1"/>
        <pt x="343" y="6" on="0"/>
        <pt x="317" y="-21" on="1"/>
        <pt x="290" y="-47" on="0"/>
        <pt x="246" y="-47" on="1"/>
        <pt x="232" y="-47" on="0"/>
        <pt x="217" y="-45" on="1"/>
        <pt x="207" y="-47" on="0"/>
        <pt x="199" y="-47" on="1"/>
        <pt x="174" y="-47" on="0"/>
        <pt x="157" y="-30" on="1"/>
        <pt x="131" y="-4" on="0"/>
        <pt x="131" y="73" on="1"/>
        <pt x="131" y="75" on="0"/>
        <pt x="131" y="77" on="1"/>
        <pt x="131" y="107" on="0"/>
        <pt x="149" y="167" on="0"/>
        <pt x="165" y="201" on="0"/>
        <pt x="182" y="231" on="1"/>
        <pt x="198" y="259" on="0"/>
        <pt x="206" y="274" on="1"/>
        <pt x="207" y="278" on="0"/>
        <pt x="210" y="280" on="1"/>
        <pt x="257" y="329" on="1"/>
        <pt x="224" y="387" on="0"/>
        <pt x="178" y="408" on="1"/>
        <pt x="164" y="415" on="0"/>
        <pt x="164" y="431" on="1"/>
        <pt x="164" y="444" on="0"/>
        <pt x="170" y="460" on="1"/>
        <pt x="176" y="475" on="0"/>
        <pt x="188" y="494" on="1"/>
        <pt x="204" y="520" on="0"/>
        <pt x="287" y="624" on="0"/>
        <pt x="301" y="645" on="1"/>
        <pt x="319" y="671" on="0"/>
        <pt x="324" y="687" on="1"/>
        <pt x="334" y="720" on="0"/>
        <pt x="349" y="758" on="1"/>
        <pt x="286" y="733" on="0"/>
        <pt x="276" y="731" on="1"/>
        <pt x="258" y="726" on="0"/>
        <pt x="246" y="726" on="1"/>
        <pt x="240" y="726" on="0"/>
        <pt x="234" y="727" on="1"/>
        <pt x="208" y="727" on="0"/>
        <pt x="121" y="748" on="0"/>
        <pt x="105" y="750" on="1"/>
        <pt x="110" y="725" on="0"/>
        <pt x="112" y="713" on="1"/>
        <pt x="112" y="712" on="0"/>
        <pt x="112" y="710" on="1"/>
        <pt x="112" y="700" on="0"/>
        <pt x="97" y="685" on="0"/>
        <pt x="87" y="685" on="1"/>
        <pt x="78" y="685" on="0"/>
        <pt x="63" y="698" on="0"/>
        <pt x="62" y="707" on="1"/>
        <pt x="61" y="718" on="0"/>
        <pt x="52" y="762" on="0"/>
        <pt x="50" y="772" on="1"/>
        <pt x="50" y="774" on="0"/>
        <pt x="50" y="776" on="1"/>
        <pt x="50" y="786" on="0"/>
        <pt x="65" y="801" on="0"/>
        <pt x="75" y="801" on="1"/>
        <pt x="77" y="801" on="0"/>
        <pt x="80" y="801" on="1"/>
        <pt x="81" y="801" on="0"/>
        <pt x="88" y="801" on="0"/>
        <pt x="90" y="801" on="1"/>
        <pt x="118" y="801" on="0"/>
        <pt x="169" y="788" on="1"/>
        <pt x="215" y="777" on="0"/>
        <pt x="237" y="777" on="1"/>
        <pt x="238" y="777" on="0"/>
        <pt x="243" y="776" on="0"/>
        <pt x="245" y="776" on="1"/>
        <pt x="253" y="776" on="0"/>
        <pt x="263" y="779" on="1"/>
        <pt x="276" y="783" on="0"/>
        <pt x="342" y="810" on="0"/>
        <pt x="357" y="813" on="1"/>
        <pt x="367" y="816" on="0"/>
        <pt x="374" y="816" on="1"/>
        <pt x="391" y="816" on="0"/>
        <pt x="400" y="806" on="1"/>
        <pt x="410" y="796" on="0"/>
        <pt x="410" y="782" on="1"/>
        <pt x="410" y="773" on="0"/>
        <pt x="406" y="761" on="1"/>
        <pt x="402" y="751" on="0"/>
        <pt x="395" y="738" on="1"/>
        <pt x="381" y="703" on="0"/>
        <pt x="372" y="673" on="1"/>
        <pt x="365" y="649" on="0"/>
        <pt x="343" y="617" on="1"/>
        <pt x="328" y="596" on="0"/>
        <pt x="245" y="492" on="0"/>
        <pt x="230" y="468" on="1"/>
        <pt x="221" y="454" on="0"/>
        <pt x="217" y="444" on="1"/>
        <pt x="261" y="418" on="0"/>
        <pt x="293" y="367" on="1"/>
        <pt x="345" y="421" on="1"/>
        <pt x="345" y="422" on="0"/>
        <pt x="346" y="422" on="1"/>
        <pt x="388" y="461" on="1"/>
        <pt x="395" y="468" on="0"/>
        <pt x="405" y="468" on="1"/>
        <pt x="415" y="468" on="0"/>
        <pt x="430" y="453" on="0"/>
        <pt x="430" y="443" on="1"/>
        <pt x="430" y="432" on="0"/>
        <pt x="422" y="425" on="1"/>
        <pt x="381" y="386" on="1"/>
        <pt x="318" y="320" on="1"/>
        <pt x="336" y="280" on="0"/>
        <pt x="348" y="227" on="1"/>
        <pt x="349" y="224" on="0"/>
      </contour>
      <contour>
        <pt x="213" y="6" on="0"/>
        <pt x="219" y="6" on="0"/>
        <pt x="221" y="5" on="1"/>
        <pt x="236" y="2" on="0"/>
        <pt x="247" y="2" on="1"/>
        <pt x="269" y="2" on="0"/>
        <pt x="281" y="14" on="1"/>
        <pt x="296" y="29" on="0"/>
        <pt x="301" y="66" on="1"/>
        <pt x="303" y="84" on="0"/>
        <pt x="303" y="109" on="1"/>
        <pt x="303" y="127" on="0"/>
        <pt x="299" y="201" on="0"/>
        <pt x="299" y="218" on="1"/>
        <pt x="291" y="252" on="0"/>
        <pt x="280" y="281" on="1"/>
        <pt x="249" y="248" on="1"/>
        <pt x="241" y="234" on="0"/>
        <pt x="226" y="207" on="1"/>
        <pt x="210" y="178" on="0"/>
        <pt x="194" y="147" on="0"/>
        <pt x="181" y="100" on="0"/>
        <pt x="181" y="76" on="1"/>
        <pt x="181" y="17" on="0"/>
        <pt x="192" y="6" on="1"/>
        <pt x="195" y="3" on="0"/>
        <pt x="199" y="3" on="1"/>
        <pt x="200" y="3" on="0"/>
      </contour>
    </TTGlyph>
    <TTGlyph name="a" xMin="-42" yMin="-42" xMax="556" yMax="465">
      <contour>
        <pt x="94" y="183" on="1"/>
        <pt x="94" y="128" on="0"/>
        <pt x="112" y="83" on="1"/>
        <pt x="211" y="119" on="0"/>
        <pt x="272" y="172" on="1"/>
        <pt x="325" y="234" on="0"/>
        <pt x="325" y="311" on="1"/>
        <pt x="325" y="329" on="0"/>
        <pt x="322" y="348" on="1"/>
        <pt x="323" y="355" on="0"/>
        <pt x="323" y="366" on="0"/>
        <pt x="322" y="372" on="1"/>
        <pt x="303" y="378" on="0"/>
        <pt x="276" y="379" on="1"/>
        <pt x="247" y="394" on="0"/>
        <pt x="219" y="394" on="1"/>
        <pt x="184" y="394" on="0"/>
        <pt x="153" y="371" on="1"/>
        <pt x="125" y="335" on="0"/>
        <pt x="94" y="235" on="0"/>
      </contour>
      <contour>
        <pt x="195" y="44" on="1"/>
        <pt x="250" y="44" on="0"/>
        <pt x="298" y="67" on="1"/>
        <pt x="287" y="87" on="0"/>
        <pt x="284" y="112" on="1"/>
        <pt x="244" y="74" on="0"/>
        <pt x="185" y="44" on="1"/>
        <pt x="190" y="44" on="0"/>
      </contour>
      <contour>
        <pt x="415" y="143" on="1"/>
        <pt x="415" y="99" on="0"/>
        <pt x="380" y="65" on="1"/>
        <pt x="378" y="63" on="1"/>
        <pt x="395" y="56" on="0"/>
        <pt x="414" y="56" on="1"/>
        <pt x="420" y="56" on="0"/>
        <pt x="434" y="45" on="1"/>
        <pt x="454" y="29" on="0"/>
        <pt x="465" y="29" on="1"/>
        <pt x="471" y="29" on="1"/>
        <pt x="510" y="47" on="1"/>
        <pt x="516" y="50" on="0"/>
        <pt x="523" y="50" on="1"/>
        <pt x="537" y="50" on="0"/>
        <pt x="556" y="31" on="0"/>
        <pt x="556" y="18" on="1"/>
        <pt x="556" y="-2" on="0"/>
        <pt x="537" y="-11" on="1"/>
        <pt x="471" y="-41" on="1"/>
        <pt x="465" y="-41" on="1"/>
        <pt x="454" y="-41" on="0"/>
        <pt x="434" y="-26" on="1"/>
        <pt x="420" y="-14" on="0"/>
        <pt x="414" y="-14" on="1"/>
        <pt x="374" y="-14" on="0"/>
        <pt x="349" y="11" on="1"/>
        <pt x="337" y="23" on="1"/>
        <pt x="281" y="-27" on="0"/>
        <pt x="195" y="-27" on="1"/>
        <pt x="161" y="-27" on="0"/>
        <pt x="132" y="-17" on="1"/>
        <pt x="131" y="-17" on="0"/>
        <pt x="130" y="-17" on="1"/>
        <pt x="116" y="-17" on="0"/>
        <pt x="106" y="-7" on="1"/>
        <pt x="93" y="6" on="1"/>
        <pt x="48" y="-10" on="0"/>
        <pt x="0" y="-20" on="1"/>
        <pt x="-4" y="-21" on="0"/>
        <pt x="-7" y="-21" on="1"/>
        <pt x="-22" y="-21" on="0"/>
        <pt x="-42" y="-1" on="0"/>
        <pt x="-42" y="13" on="1"/>
        <pt x="-42" y="26" on="0"/>
        <pt x="-26" y="45" on="0"/>
        <pt x="-15" y="47" on="1"/>
        <pt x="25" y="56" on="0"/>
        <pt x="50" y="63" on="1"/>
        <pt x="49" y="65" on="0"/>
        <pt x="49" y="66" on="1"/>
        <pt x="23" y="117" on="0"/>
        <pt x="23" y="183" on="1"/>
        <pt x="23" y="243" on="0"/>
        <pt x="64" y="356" on="0"/>
        <pt x="99" y="390" on="1"/>
        <pt x="134" y="426" on="1"/>
        <pt x="173" y="464" on="0"/>
        <pt x="219" y="464" on="1"/>
        <pt x="247" y="464" on="0"/>
        <pt x="276" y="449" on="1"/>
        <pt x="326" y="448" on="0"/>
        <pt x="345" y="428" on="1"/>
        <pt x="381" y="393" on="1"/>
        <pt x="393" y="380" on="0"/>
        <pt x="393" y="360" on="1"/>
        <pt x="393" y="355" on="0"/>
        <pt x="392" y="348" on="1"/>
        <pt x="395" y="329" on="0"/>
        <pt x="395" y="311" on="1"/>
        <pt x="395" y="274" on="0"/>
        <pt x="383" y="241" on="1"/>
        <pt x="406" y="218" on="1"/>
        <pt x="410" y="214" on="0"/>
        <pt x="412" y="173" on="1"/>
        <pt x="413" y="168" on="0"/>
        <pt x="415" y="150" on="0"/>
      </contour>
    </TTGlyph>
    <TTGlyph name="ampersand" xMin="50" yMin="42" xMax="379" yMax="777">
      <contour>
        <pt x="299" y="547" on="1"/>
        <pt x="299" y="517" on="0"/>
        <pt x="282" y="466" on="0"/>
        <pt x="246" y="418" on="0"/>
        <pt x="220" y="391" on="0"/>
        <pt x="196" y="369" on="1"/>
        <pt x="199" y="361" on="0"/>
        <pt x="228" y="290" on="0"/>
        <pt x="247" y="247" on="0"/>
        <pt x="258" y="232" on="1"/>
        <pt x="295" y="177" on="1"/>
        <pt x="306" y="197" on="0"/>
        <pt x="315" y="218" on="1"/>
        <pt x="329" y="253" on="0"/>
        <pt x="329" y="272" on="1"/>
        <pt x="329" y="282" on="0"/>
        <pt x="344" y="297" on="0"/>
        <pt x="364" y="297" on="0"/>
        <pt x="379" y="282" on="0"/>
        <pt x="379" y="272" on="1"/>
        <pt x="379" y="243" on="0"/>
        <pt x="361" y="199" on="1"/>
        <pt x="346" y="161" on="0"/>
        <pt x="325" y="132" on="1"/>
        <pt x="360" y="81" on="1"/>
        <pt x="364" y="75" on="0"/>
        <pt x="364" y="67" on="1"/>
        <pt x="364" y="57" on="0"/>
        <pt x="350" y="42" on="0"/>
        <pt x="339" y="42" on="1"/>
        <pt x="326" y="42" on="0"/>
        <pt x="319" y="53" on="1"/>
        <pt x="291" y="94" on="1"/>
        <pt x="265" y="73" on="0"/>
        <pt x="237" y="73" on="1"/>
        <pt x="182" y="73" on="0"/>
        <pt x="108" y="90" on="0"/>
        <pt x="85" y="114" on="1"/>
        <pt x="50" y="148" on="0"/>
        <pt x="50" y="215" on="1"/>
        <pt x="50" y="266" on="0"/>
        <pt x="96" y="343" on="0"/>
        <pt x="135" y="381" on="1"/>
        <pt x="133" y="385" on="0"/>
        <pt x="131" y="389" on="1"/>
        <pt x="121" y="407" on="0"/>
        <pt x="115" y="444" on="1"/>
        <pt x="111" y="470" on="0"/>
        <pt x="106" y="481" on="1"/>
        <pt x="104" y="486" on="0"/>
        <pt x="104" y="491" on="1"/>
        <pt x="104" y="644" on="1"/>
        <pt x="104" y="649" on="0"/>
        <pt x="106" y="653" on="1"/>
        <pt x="133" y="722" on="1"/>
        <pt x="136" y="730" on="0"/>
        <pt x="144" y="735" on="1"/>
        <pt x="146" y="736" on="0"/>
        <pt x="163" y="753" on="1"/>
        <pt x="176" y="766" on="0"/>
        <pt x="191" y="772" on="1"/>
        <pt x="206" y="777" on="0"/>
        <pt x="225" y="777" on="1"/>
        <pt x="247" y="777" on="0"/>
        <pt x="263" y="761" on="1"/>
        <pt x="284" y="740" on="0"/>
        <pt x="292" y="689" on="1"/>
        <pt x="297" y="656" on="0"/>
        <pt x="297" y="593" on="1"/>
        <pt x="297" y="571" on="0"/>
        <pt x="298" y="565" on="1"/>
        <pt x="299" y="556" on="0"/>
      </contour>
      <contour>
        <pt x="225" y="727" on="1"/>
        <pt x="215" y="727" on="0"/>
        <pt x="208" y="725" on="1"/>
        <pt x="204" y="723" on="0"/>
        <pt x="199" y="718" on="1"/>
        <pt x="180" y="699" on="0"/>
        <pt x="176" y="697" on="1"/>
        <pt x="154" y="639" on="1"/>
        <pt x="154" y="496" on="1"/>
        <pt x="160" y="481" on="0"/>
        <pt x="164" y="452" on="1"/>
        <pt x="168" y="427" on="0"/>
        <pt x="173" y="416" on="1"/>
        <pt x="184" y="426" on="0"/>
        <pt x="191" y="433" on="1"/>
        <pt x="220" y="462" on="0"/>
        <pt x="249" y="514" on="0"/>
        <pt x="249" y="546" on="1"/>
        <pt x="249" y="553" on="0"/>
        <pt x="247" y="568" on="0"/>
        <pt x="247" y="593" on="1"/>
        <pt x="246" y="683" on="0"/>
        <pt x="234" y="713" on="1"/>
        <pt x="231" y="722" on="0"/>
        <pt x="227" y="726" on="1"/>
        <pt x="226" y="727" on="0"/>
        <pt x="226" y="727" on="1"/>
        <pt x="226" y="727" on="0"/>
      </contour>
      <contour>
        <pt x="100" y="215" on="1"/>
        <pt x="100" y="169" on="0"/>
        <pt x="120" y="149" on="1"/>
        <pt x="133" y="136" on="0"/>
        <pt x="157" y="130" on="1"/>
        <pt x="185" y="123" on="0"/>
        <pt x="237" y="123" on="1"/>
        <pt x="238" y="123" on="0"/>
        <pt x="246" y="126" on="0"/>
        <pt x="258" y="132" on="0"/>
        <pt x="262" y="136" on="1"/>
        <pt x="216" y="204" on="1"/>
        <pt x="209" y="215" on="0"/>
        <pt x="196" y="239" on="0"/>
        <pt x="182" y="269" on="0"/>
        <pt x="175" y="287" on="0"/>
        <pt x="160" y="325" on="0"/>
        <pt x="157" y="332" on="1"/>
        <pt x="100" y="274" on="0"/>
      </contour>
    </TTGlyph>
    <TTGlyph name="asciicircum" xMin="-219" yMin="203" xMax="385" yMax="860">
      <contour>
        <pt x="-148" y="239" on="1"/>
        <pt x="-183" y="204" on="1"/>
        <pt x="-218" y="239" on="1"/>
        <pt x="-183" y="274" on="1"/>
      </contour>
      <contour>
        <pt x="385" y="709" on="1"/>
        <pt x="385" y="696" on="0"/>
        <pt x="367" y="679" on="0"/>
        <pt x="355" y="679" on="1"/>
        <pt x="346" y="679" on="0"/>
        <pt x="339" y="684" on="1"/>
        <pt x="174" y="789" on="1"/>
        <pt x="10" y="684" on="1"/>
        <pt x="3" y="679" on="0"/>
        <pt x="-6" y="679" on="1"/>
        <pt x="-18" y="679" on="0"/>
        <pt x="-36" y="696" on="0"/>
        <pt x="-36" y="709" on="1"/>
        <pt x="-36" y="725" on="0"/>
        <pt x="-22" y="734" on="1"/>
        <pt x="174" y="859" on="1"/>
        <pt x="371" y="734" on="1"/>
        <pt x="385" y="725" on="0"/>
      </contour>
    </TTGlyph>
    <TTGlyph name="asciitilde" xMin="4" yMin="361" xMax="510" yMax="506">
      <contour>
        <pt x="373" y="435" on="1"/>
        <pt x="338" y="435" on="0"/>
        <pt x="258" y="398" on="0"/>
        <pt x="179" y="361" on="0"/>
        <pt x="144" y="361" on="1"/>
        <pt x="119" y="361" on="0"/>
        <pt x="93" y="371" on="1"/>
        <pt x="76" y="371" on="0"/>
        <pt x="56" y="390" on="1"/>
        <pt x="21" y="426" on="1"/>
        <pt x="5" y="442" on="0"/>
        <pt x="5" y="456" on="1"/>
        <pt x="5" y="459" on="1"/>
        <pt x="5" y="473" on="0"/>
        <pt x="25" y="494" on="0"/>
        <pt x="55" y="494" on="0"/>
        <pt x="75" y="473" on="0"/>
        <pt x="75" y="459" on="1"/>
        <pt x="75" y="456" on="1"/>
        <pt x="75" y="451" on="0"/>
        <pt x="78" y="445" on="1"/>
        <pt x="86" y="441" on="0"/>
        <pt x="93" y="441" on="1"/>
        <pt x="119" y="432" on="0"/>
        <pt x="144" y="432" on="1"/>
        <pt x="179" y="432" on="0"/>
        <pt x="258" y="469" on="0"/>
        <pt x="338" y="505" on="0"/>
        <pt x="373" y="505" on="1"/>
        <pt x="374" y="505" on="0"/>
        <pt x="390" y="504" on="1"/>
        <pt x="454" y="467" on="1"/>
        <pt x="501" y="427" on="1"/>
        <pt x="510" y="419" on="0"/>
        <pt x="510" y="407" on="1"/>
        <pt x="510" y="396" on="0"/>
        <pt x="494" y="380" on="0"/>
        <pt x="483" y="380" on="1"/>
        <pt x="473" y="380" on="0"/>
        <pt x="466" y="387" on="1"/>
        <pt x="454" y="396" on="1"/>
        <pt x="390" y="433" on="1"/>
        <pt x="374" y="435" on="0"/>
      </contour>
    </TTGlyph>
    <TTGlyph name="asterisk" xMin="50" yMin="265" xMax="331" yMax="639">
      <contour>
        <pt x="294" y="593" on="0"/>
        <pt x="314" y="593" on="0"/>
        <pt x="329" y="578" on="0"/>
        <pt x="329" y="558" on="0"/>
        <pt x="322" y="551" on="1"/>
        <pt x="95" y="318" on="1"/>
        <pt x="87" y="311" on="0"/>
        <pt x="67" y="311" on="0"/>
        <pt x="52" y="326" on="0"/>
        <pt x="52" y="346" on="0"/>
        <pt x="59" y="353" on="1"/>
        <pt x="286" y="586" on="1"/>
      </contour>
      <contour>
        <pt x="50" y="555" on="0"/>
        <pt x="50" y="575" on="0"/>
        <pt x="65" y="590" on="0"/>
        <pt x="85" y="590" on="0"/>
        <pt x="92" y="583" on="1"/>
        <pt x="324" y="357" on="1"/>
        <pt x="331" y="349" on="0"/>
        <pt x="331" y="329" on="0"/>
        <pt x="316" y="314" on="0"/>
        <pt x="296" y="314" on="0"/>
        <pt x="289" y="321" on="1"/>
        <pt x="57" y="547" on="1"/>
      </contour>
      <contour>
        <pt x="164" y="614" on="1"/>
        <pt x="164" y="624" on="0"/>
        <pt x="179" y="639" on="0"/>
        <pt x="199" y="639" on="0"/>
        <pt x="214" y="624" on="0"/>
        <pt x="214" y="614" on="1"/>
        <pt x="217" y="290" on="1"/>
        <pt x="217" y="280" on="0"/>
        <pt x="202" y="265" on="0"/>
        <pt x="182" y="265" on="0"/>
        <pt x="167" y="280" on="0"/>
        <pt x="167" y="290" on="1"/>
      </contour>
    </TTGlyph>
    <TTGlyph name="at" xMin="50" yMin="-197" xMax="718" yMax="480">
      <contour>
        <pt x="170" y="176" on="1"/>
        <pt x="170" y="179" on="0"/>
        <pt x="170" y="193" on="0"/>
        <pt x="170" y="196" on="1"/>
        <pt x="170" y="310" on="0"/>
        <pt x="209" y="349" on="1"/>
        <pt x="235" y="375" on="0"/>
        <pt x="276" y="375" on="1"/>
        <pt x="312" y="375" on="0"/>
        <pt x="365" y="343" on="1"/>
        <pt x="400" y="321" on="0"/>
        <pt x="417" y="321" on="1"/>
        <pt x="427" y="321" on="0"/>
        <pt x="442" y="306" on="0"/>
        <pt x="442" y="286" on="0"/>
        <pt x="427" y="271" on="0"/>
        <pt x="417" y="271" on="1"/>
        <pt x="402" y="271" on="0"/>
        <pt x="369" y="282" on="0"/>
        <pt x="355" y="290" on="0"/>
        <pt x="339" y="300" on="1"/>
        <pt x="298" y="325" on="0"/>
        <pt x="276" y="325" on="1"/>
        <pt x="256" y="325" on="0"/>
        <pt x="245" y="314" on="1"/>
        <pt x="231" y="300" on="0"/>
        <pt x="225" y="268" on="1"/>
        <pt x="220" y="242" on="0"/>
        <pt x="220" y="193" on="1"/>
        <pt x="220" y="190" on="0"/>
        <pt x="220" y="179" on="0"/>
        <pt x="220" y="176" on="1"/>
        <pt x="220" y="117" on="0"/>
        <pt x="258" y="80" on="1"/>
        <pt x="283" y="54" on="0"/>
        <pt x="364" y="27" on="0"/>
        <pt x="408" y="27" on="1"/>
        <pt x="423" y="27" on="0"/>
        <pt x="433" y="37" on="1"/>
        <pt x="455" y="59" on="0"/>
        <pt x="455" y="110" on="1"/>
        <pt x="455" y="131" on="0"/>
        <pt x="458" y="144" on="1"/>
        <pt x="461" y="159" on="0"/>
        <pt x="469" y="167" on="1"/>
        <pt x="478" y="176" on="0"/>
        <pt x="490" y="176" on="1"/>
        <pt x="505" y="176" on="0"/>
        <pt x="519" y="162" on="1"/>
        <pt x="527" y="153" on="0"/>
        <pt x="547" y="127" on="1"/>
        <pt x="571" y="92" on="0"/>
        <pt x="585" y="79" on="1"/>
        <pt x="600" y="63" on="0"/>
        <pt x="609" y="63" on="1"/>
        <pt x="632" y="63" on="0"/>
        <pt x="645" y="75" on="1"/>
        <pt x="668" y="99" on="0"/>
        <pt x="668" y="185" on="1"/>
        <pt x="668" y="278" on="0"/>
        <pt x="595" y="351" on="1"/>
        <pt x="558" y="388" on="0"/>
        <pt x="462" y="430" on="0"/>
        <pt x="411" y="430" on="1"/>
        <pt x="238" y="430" on="0"/>
        <pt x="161" y="353" on="1"/>
        <pt x="100" y="292" on="0"/>
        <pt x="100" y="179" on="1"/>
        <pt x="100" y="108" on="0"/>
        <pt x="153" y="-29" on="0"/>
        <pt x="200" y="-76" on="1"/>
        <pt x="268" y="-144" on="0"/>
        <pt x="357" y="-144" on="1"/>
        <pt x="357" y="-144" on="0"/>
        <pt x="359" y="-144" on="1"/>
        <pt x="534" y="-147" on="0"/>
        <pt x="636" y="-147" on="1"/>
        <pt x="646" y="-147" on="0"/>
        <pt x="659" y="-136" on="0"/>
        <pt x="659" y="-127" on="1"/>
        <pt x="659" y="-113" on="0"/>
        <pt x="669" y="-102" on="1"/>
        <pt x="671" y="-95" on="0"/>
        <pt x="685" y="-84" on="0"/>
        <pt x="693" y="-84" on="1"/>
        <pt x="703" y="-84" on="0"/>
        <pt x="718" y="-99" on="0"/>
        <pt x="718" y="-109" on="1"/>
        <pt x="718" y="-122" on="0"/>
        <pt x="709" y="-133" on="1"/>
        <pt x="706" y="-160" on="0"/>
        <pt x="664" y="-197" on="0"/>
        <pt x="636" y="-197" on="1"/>
        <pt x="528" y="-197" on="0"/>
        <pt x="357" y="-194" on="1"/>
        <pt x="247" y="-194" on="0"/>
        <pt x="164" y="-111" on="1"/>
        <pt x="110" y="-57" on="0"/>
        <pt x="50" y="98" on="0"/>
        <pt x="50" y="179" on="1"/>
        <pt x="50" y="313" on="0"/>
        <pt x="126" y="389" on="1"/>
        <pt x="217" y="480" on="0"/>
        <pt x="411" y="480" on="1"/>
        <pt x="472" y="480" on="0"/>
        <pt x="587" y="430" on="0"/>
        <pt x="630" y="386" on="1"/>
        <pt x="718" y="299" on="0"/>
        <pt x="718" y="185" on="1"/>
        <pt x="718" y="78" on="0"/>
        <pt x="680" y="40" on="1"/>
        <pt x="653" y="13" on="0"/>
        <pt x="609" y="13" on="1"/>
        <pt x="580" y="13" on="0"/>
        <pt x="549" y="43" on="1"/>
        <pt x="533" y="59" on="0"/>
        <pt x="505" y="99" on="1"/>
        <pt x="502" y="35" on="0"/>
        <pt x="469" y="2" on="1"/>
        <pt x="444" y="-23" on="0"/>
        <pt x="408" y="-23" on="1"/>
        <pt x="290" y="-23" on="0"/>
        <pt x="222" y="44" on="1"/>
        <pt x="170" y="97" on="0"/>
      </contour>
    </TTGlyph>
    <TTGlyph name="b" xMin="-46" yMin="-40" xMax="558" yMax="857">
      <contour>
        <pt x="515" y="227" on="1"/>
        <pt x="515" y="225" on="0"/>
        <pt x="515" y="215" on="0"/>
        <pt x="515" y="213" on="1"/>
        <pt x="515" y="185" on="0"/>
        <pt x="512" y="170" on="1"/>
        <pt x="495" y="89" on="0"/>
        <pt x="453" y="46" on="1"/>
        <pt x="418" y="11" on="1"/>
        <pt x="389" y="-18" on="0"/>
        <pt x="354" y="-18" on="1"/>
        <pt x="322" y="-18" on="0"/>
        <pt x="214" y="4" on="0"/>
        <pt x="198" y="6" on="1"/>
        <pt x="178" y="8" on="0"/>
        <pt x="163" y="23" on="1"/>
        <pt x="128" y="58" on="1"/>
        <pt x="121" y="65" on="0"/>
        <pt x="115" y="75" on="1"/>
        <pt x="104" y="63" on="0"/>
        <pt x="57" y="16" on="1"/>
        <pt x="30" y="-11" on="0"/>
        <pt x="0" y="-33" on="1"/>
        <pt x="-8" y="-39" on="0"/>
        <pt x="-17" y="-39" on="1"/>
        <pt x="-29" y="-39" on="0"/>
        <pt x="-45" y="-22" on="0"/>
        <pt x="-45" y="-11" on="1"/>
        <pt x="-45" y="3" on="0"/>
        <pt x="-34" y="12" on="1"/>
        <pt x="20" y="53" on="0"/>
        <pt x="39" y="70" on="1"/>
        <pt x="65" y="98" on="0"/>
        <pt x="88" y="131" on="1"/>
        <pt x="74" y="165" on="0"/>
        <pt x="64" y="179" on="1"/>
        <pt x="63" y="180" on="0"/>
        <pt x="49" y="233" on="1"/>
        <pt x="34" y="341" on="1"/>
        <pt x="28" y="527" on="1"/>
        <pt x="36" y="608" on="0"/>
        <pt x="46" y="713" on="1"/>
        <pt x="47" y="717" on="0"/>
        <pt x="56" y="742" on="0"/>
        <pt x="61" y="754" on="0"/>
        <pt x="70" y="772" on="0"/>
        <pt x="76" y="779" on="1"/>
        <pt x="79" y="783" on="0"/>
        <pt x="92" y="808" on="0"/>
        <pt x="98" y="813" on="1"/>
        <pt x="133" y="849" on="1"/>
        <pt x="139" y="855" on="0"/>
        <pt x="147" y="856" on="1"/>
        <pt x="165" y="856" on="0"/>
        <pt x="178" y="844" on="1"/>
        <pt x="213" y="809" on="1"/>
        <pt x="221" y="801" on="0"/>
        <pt x="232" y="774" on="0"/>
        <pt x="237" y="755" on="0"/>
        <pt x="244" y="717" on="0"/>
        <pt x="245" y="710" on="1"/>
        <pt x="270" y="599" on="0"/>
        <pt x="270" y="535" on="1"/>
        <pt x="270" y="534" on="0"/>
        <pt x="269" y="526" on="0"/>
        <pt x="269" y="524" on="1"/>
        <pt x="270" y="498" on="0"/>
        <pt x="270" y="491" on="1"/>
        <pt x="270" y="419" on="0"/>
        <pt x="254" y="348" on="1"/>
        <pt x="259" y="355" on="0"/>
        <pt x="264" y="360" on="1"/>
        <pt x="300" y="395" on="1"/>
        <pt x="311" y="406" on="0"/>
        <pt x="318" y="406" on="1"/>
        <pt x="354" y="406" on="0"/>
        <pt x="401" y="392" on="0"/>
        <pt x="421" y="372" on="1"/>
        <pt x="456" y="337" on="1"/>
        <pt x="461" y="332" on="0"/>
        <pt x="467" y="325" on="1"/>
        <pt x="484" y="368" on="1"/>
        <pt x="487" y="410" on="1"/>
        <pt x="488" y="423" on="0"/>
        <pt x="508" y="442" on="0"/>
        <pt x="522" y="442" on="1"/>
        <pt x="537" y="442" on="0"/>
        <pt x="557" y="421" on="0"/>
        <pt x="557" y="407" on="1"/>
        <pt x="557" y="405" on="0"/>
        <pt x="557" y="404" on="1"/>
        <pt x="554" y="368" on="1"/>
        <pt x="524" y="293" on="1"/>
        <pt x="521" y="285" on="0"/>
        <pt x="503" y="270" on="1"/>
        <pt x="515" y="247" on="0"/>
      </contour>
      <contour>
        <pt x="199" y="535" on="1"/>
        <pt x="199" y="599" on="0"/>
        <pt x="175" y="710" on="1"/>
        <pt x="173" y="717" on="0"/>
        <pt x="167" y="750" on="0"/>
        <pt x="162" y="774" on="0"/>
        <pt x="157" y="785" on="1"/>
        <pt x="154" y="785" on="0"/>
        <pt x="151" y="786" on="1"/>
        <pt x="148" y="782" on="0"/>
        <pt x="146" y="779" on="1"/>
        <pt x="141" y="772" on="0"/>
        <pt x="132" y="754" on="0"/>
        <pt x="127" y="742" on="0"/>
        <pt x="118" y="717" on="0"/>
        <pt x="116" y="713" on="1"/>
        <pt x="107" y="608" on="0"/>
        <pt x="98" y="527" on="1"/>
        <pt x="104" y="341" on="1"/>
        <pt x="119" y="233" on="1"/>
        <pt x="121" y="227" on="0"/>
        <pt x="127" y="204" on="0"/>
        <pt x="129" y="199" on="1"/>
        <pt x="200" y="337" on="0"/>
        <pt x="200" y="491" on="1"/>
        <pt x="200" y="498" on="0"/>
        <pt x="199" y="524" on="1"/>
        <pt x="199" y="526" on="0"/>
        <pt x="199" y="534" on="0"/>
      </contour>
      <contour>
        <pt x="445" y="227" on="1"/>
        <pt x="445" y="233" on="0"/>
        <pt x="443" y="240" on="1"/>
        <pt x="431" y="239" on="0"/>
        <pt x="408" y="231" on="1"/>
        <pt x="392" y="224" on="0"/>
        <pt x="354" y="224" on="0"/>
        <pt x="333" y="231" on="1"/>
        <pt x="316" y="231" on="0"/>
        <pt x="304" y="243" on="1"/>
        <pt x="269" y="278" on="1"/>
        <pt x="258" y="289" on="0"/>
        <pt x="246" y="319" on="1"/>
        <pt x="218" y="216" on="0"/>
        <pt x="159" y="131" on="1"/>
        <pt x="174" y="94" on="0"/>
        <pt x="182" y="81" on="1"/>
        <pt x="190" y="77" on="0"/>
        <pt x="198" y="76" on="1"/>
        <pt x="214" y="74" on="0"/>
        <pt x="322" y="52" on="0"/>
        <pt x="354" y="52" on="1"/>
        <pt x="378" y="53" on="0"/>
        <pt x="399" y="67" on="1"/>
        <pt x="429" y="108" on="0"/>
        <pt x="442" y="170" on="1"/>
        <pt x="445" y="185" on="0"/>
        <pt x="445" y="213" on="1"/>
        <pt x="445" y="215" on="0"/>
        <pt x="445" y="225" on="0"/>
      </contour>
      <contour>
        <pt x="354" y="295" on="0"/>
        <pt x="392" y="295" on="0"/>
        <pt x="408" y="301" on="1"/>
        <pt x="410" y="302" on="0"/>
        <pt x="412" y="303" on="1"/>
        <pt x="406" y="313" on="0"/>
        <pt x="403" y="316" on="1"/>
        <pt x="374" y="336" on="0"/>
        <pt x="318" y="336" on="1"/>
        <pt x="318" y="336" on="0"/>
        <pt x="317" y="336" on="1"/>
        <pt x="314" y="330" on="0"/>
        <pt x="314" y="326" on="1"/>
        <pt x="321" y="309" on="0"/>
        <pt x="324" y="302" on="1"/>
        <pt x="328" y="301" on="0"/>
        <pt x="333" y="301" on="1"/>
      </contour>
    </TTGlyph>
    <TTGlyph name="backslash" xMin="102" yMin="61" xMax="410" yMax="711">
      <contour>
        <pt x="409" y="94" on="1"/>
        <pt x="409" y="81" on="0"/>
        <pt x="390" y="62" on="0"/>
        <pt x="377" y="62" on="1"/>
        <pt x="355" y="62" on="0"/>
        <pt x="346" y="82" on="1"/>
        <pt x="105" y="665" on="1"/>
        <pt x="103" y="671" on="0"/>
        <pt x="103" y="677" on="1"/>
        <pt x="103" y="691" on="0"/>
        <pt x="122" y="710" on="0"/>
        <pt x="135" y="710" on="1"/>
        <pt x="157" y="710" on="0"/>
        <pt x="166" y="690" on="1"/>
        <pt x="407" y="107" on="1"/>
        <pt x="409" y="101" on="0"/>
      </contour>
    </TTGlyph>
    <TTGlyph name="bar" xMin="77" yMin="-36" xMax="149" yMax="817">
      <contour>
        <pt x="148" y="0" on="1"/>
        <pt x="148" y="-15" on="0"/>
        <pt x="128" y="-35" on="0"/>
        <pt x="98" y="-35" on="0"/>
        <pt x="78" y="-15" on="0"/>
        <pt x="78" y="0" on="1"/>
        <pt x="78" y="781" on="1"/>
        <pt x="78" y="796" on="0"/>
        <pt x="98" y="816" on="0"/>
        <pt x="128" y="816" on="0"/>
        <pt x="148" y="796" on="0"/>
        <pt x="148" y="781" on="1"/>
      </contour>
    </TTGlyph>
    <TTGlyph name="braceleft" xMin="54" yMin="-8" xMax="256" yMax="821">
      <contour>
        <pt x="118" y="506" on="1"/>
        <pt x="118" y="534" on="0"/>
        <pt x="100" y="659" on="0"/>
        <pt x="100" y="687" on="1"/>
        <pt x="100" y="741" on="0"/>
        <pt x="124" y="764" on="1"/>
        <pt x="160" y="800" on="1"/>
        <pt x="176" y="816" on="0"/>
        <pt x="204" y="820" on="1"/>
        <pt x="207" y="821" on="0"/>
        <pt x="209" y="821" on="1"/>
        <pt x="224" y="821" on="0"/>
        <pt x="244" y="800" on="0"/>
        <pt x="244" y="786" on="1"/>
        <pt x="244" y="773" on="0"/>
        <pt x="228" y="753" on="0"/>
        <pt x="215" y="751" on="1"/>
        <pt x="191" y="748" on="0"/>
        <pt x="181" y="743" on="1"/>
        <pt x="171" y="722" on="0"/>
        <pt x="171" y="687" on="1"/>
        <pt x="171" y="659" on="0"/>
        <pt x="188" y="534" on="0"/>
        <pt x="188" y="506" on="1"/>
        <pt x="188" y="491" on="0"/>
        <pt x="169" y="462" on="0"/>
        <pt x="136" y="428" on="0"/>
        <pt x="131" y="421" on="1"/>
        <pt x="155" y="398" on="1"/>
        <pt x="166" y="387" on="0"/>
        <pt x="177" y="336" on="0"/>
        <pt x="180" y="292" on="0"/>
        <pt x="181" y="247" on="1"/>
        <pt x="184" y="118" on="0"/>
        <pt x="202" y="64" on="1"/>
        <pt x="206" y="63" on="0"/>
        <pt x="211" y="63" on="1"/>
        <pt x="214" y="63" on="0"/>
        <pt x="218" y="64" on="0"/>
        <pt x="220" y="64" on="1"/>
        <pt x="235" y="64" on="0"/>
        <pt x="255" y="43" on="0"/>
        <pt x="255" y="28" on="1"/>
        <pt x="255" y="15" on="0"/>
        <pt x="237" y="-5" on="0"/>
        <pt x="224" y="-6" on="1"/>
        <pt x="214" y="-8" on="0"/>
        <pt x="211" y="-8" on="1"/>
        <pt x="189" y="-8" on="0"/>
        <pt x="178" y="4" on="1"/>
        <pt x="143" y="39" on="1"/>
        <pt x="138" y="44" on="0"/>
        <pt x="136" y="50" on="1"/>
        <pt x="114" y="107" on="0"/>
        <pt x="110" y="247" on="1"/>
        <pt x="108" y="342" on="0"/>
        <pt x="99" y="372" on="1"/>
        <pt x="97" y="372" on="0"/>
        <pt x="94" y="372" on="0"/>
        <pt x="88" y="371" on="0"/>
        <pt x="87" y="371" on="1"/>
        <pt x="74" y="371" on="0"/>
        <pt x="55" y="392" on="0"/>
        <pt x="55" y="407" on="1"/>
        <pt x="55" y="417" on="0"/>
        <pt x="79" y="443" on="1"/>
        <pt x="118" y="483" on="0"/>
      </contour>
    </TTGlyph>
    <TTGlyph name="braceright" xMin="50" yMin="-8" xMax="252" yMax="821">
      <contour>
        <pt x="219" y="371" on="1"/>
        <pt x="218" y="371" on="0"/>
        <pt x="212" y="372" on="0"/>
        <pt x="209" y="372" on="0"/>
        <pt x="207" y="372" on="1"/>
        <pt x="198" y="342" on="0"/>
        <pt x="196" y="247" on="1"/>
        <pt x="192" y="107" on="0"/>
        <pt x="170" y="50" on="1"/>
        <pt x="168" y="44" on="0"/>
        <pt x="163" y="39" on="1"/>
        <pt x="128" y="4" on="1"/>
        <pt x="117" y="-8" on="0"/>
        <pt x="95" y="-8" on="1"/>
        <pt x="92" y="-8" on="0"/>
        <pt x="82" y="-6" on="1"/>
        <pt x="69" y="-5" on="0"/>
        <pt x="51" y="15" on="0"/>
        <pt x="51" y="28" on="1"/>
        <pt x="51" y="43" on="0"/>
        <pt x="72" y="64" on="0"/>
        <pt x="86" y="64" on="1"/>
        <pt x="88" y="64" on="0"/>
        <pt x="92" y="63" on="0"/>
        <pt x="95" y="63" on="1"/>
        <pt x="100" y="63" on="0"/>
        <pt x="104" y="64" on="1"/>
        <pt x="122" y="118" on="0"/>
        <pt x="125" y="247" on="1"/>
        <pt x="126" y="292" on="0"/>
        <pt x="129" y="336" on="0"/>
        <pt x="140" y="387" on="0"/>
        <pt x="151" y="398" on="1"/>
        <pt x="175" y="421" on="1"/>
        <pt x="170" y="428" on="0"/>
        <pt x="137" y="462" on="0"/>
        <pt x="118" y="491" on="0"/>
        <pt x="118" y="506" on="1"/>
        <pt x="118" y="534" on="0"/>
        <pt x="135" y="659" on="0"/>
        <pt x="135" y="687" on="1"/>
        <pt x="135" y="722" on="0"/>
        <pt x="125" y="743" on="1"/>
        <pt x="115" y="748" on="0"/>
        <pt x="91" y="751" on="1"/>
        <pt x="78" y="753" on="0"/>
        <pt x="62" y="773" on="0"/>
        <pt x="62" y="786" on="1"/>
        <pt x="62" y="800" on="0"/>
        <pt x="82" y="821" on="0"/>
        <pt x="96" y="821" on="1"/>
        <pt x="99" y="821" on="0"/>
        <pt x="102" y="820" on="1"/>
        <pt x="130" y="816" on="0"/>
        <pt x="146" y="800" on="1"/>
        <pt x="182" y="764" on="1"/>
        <pt x="206" y="741" on="0"/>
        <pt x="206" y="687" on="1"/>
        <pt x="206" y="659" on="0"/>
        <pt x="188" y="534" on="0"/>
        <pt x="188" y="506" on="1"/>
        <pt x="188" y="483" on="0"/>
        <pt x="227" y="443" on="1"/>
        <pt x="251" y="417" on="0"/>
        <pt x="251" y="407" on="1"/>
        <pt x="251" y="392" on="0"/>
        <pt x="232" y="371" on="0"/>
      </contour>
    </TTGlyph>
    <TTGlyph name="bracketleft" xMin="63" yMin="-238" xMax="237" yMax="854">
      <contour>
        <pt x="134" y="783" on="1"/>
        <pt x="134" y="-167" on="1"/>
        <pt x="201" y="-167" on="1"/>
        <pt x="216" y="-167" on="0"/>
        <pt x="236" y="-187" on="0"/>
        <pt x="236" y="-217" on="0"/>
        <pt x="216" y="-237" on="0"/>
        <pt x="201" y="-237" on="1"/>
        <pt x="99" y="-237" on="1"/>
        <pt x="84" y="-237" on="0"/>
        <pt x="64" y="-217" on="0"/>
        <pt x="64" y="-202" on="1"/>
        <pt x="64" y="818" on="1"/>
        <pt x="64" y="833" on="0"/>
        <pt x="84" y="853" on="0"/>
        <pt x="99" y="853" on="1"/>
        <pt x="201" y="853" on="1"/>
        <pt x="216" y="853" on="0"/>
        <pt x="236" y="833" on="0"/>
        <pt x="236" y="803" on="0"/>
        <pt x="216" y="783" on="0"/>
        <pt x="201" y="783" on="1"/>
      </contour>
    </TTGlyph>
    <TTGlyph name="bracketright" xMin="63" yMin="-238" xMax="237" yMax="854">
      <contour>
        <pt x="201" y="853" on="1"/>
        <pt x="216" y="853" on="0"/>
        <pt x="236" y="832" on="0"/>
        <pt x="236" y="818" on="1"/>
        <pt x="236" y="-202" on="1"/>
        <pt x="236" y="-217" on="0"/>
        <pt x="216" y="-237" on="0"/>
        <pt x="201" y="-237" on="1"/>
        <pt x="99" y="-237" on="1"/>
        <pt x="84" y="-237" on="0"/>
        <pt x="64" y="-217" on="0"/>
        <pt x="64" y="-187" on="0"/>
        <pt x="84" y="-167" on="0"/>
        <pt x="99" y="-167" on="1"/>
        <pt x="166" y="-167" on="1"/>
        <pt x="166" y="783" on="1"/>
        <pt x="99" y="783" on="1"/>
        <pt x="84" y="783" on="0"/>
        <pt x="64" y="803" on="0"/>
        <pt x="64" y="833" on="0"/>
        <pt x="84" y="853" on="0"/>
        <pt x="99" y="853" on="1"/>
      </contour>
    </TTGlyph>
    <TTGlyph name="c" xMin="-44" yMin="-28" xMax="541" yMax="474">
      <contour>
        <pt x="187" y="278" on="1"/>
        <pt x="187" y="258" on="0"/>
        <pt x="189" y="220" on="1"/>
        <pt x="257" y="245" on="0"/>
        <pt x="289" y="269" on="1"/>
        <pt x="299" y="283" on="0"/>
        <pt x="306" y="300" on="1"/>
        <pt x="304" y="301" on="0"/>
        <pt x="303" y="302" on="1"/>
        <pt x="268" y="338" on="1"/>
        <pt x="259" y="347" on="0"/>
        <pt x="259" y="374" on="1"/>
        <pt x="259" y="393" on="0"/>
        <pt x="263" y="402" on="1"/>
        <pt x="261" y="402" on="0"/>
        <pt x="258" y="402" on="1"/>
        <pt x="229" y="395" on="0"/>
        <pt x="208" y="383" on="1"/>
        <pt x="187" y="347" on="0"/>
      </contour>
      <contour>
        <pt x="348" y="43" on="1"/>
        <pt x="495" y="130" on="1"/>
        <pt x="502" y="135" on="0"/>
        <pt x="510" y="135" on="1"/>
        <pt x="523" y="135" on="0"/>
        <pt x="541" y="117" on="0"/>
        <pt x="541" y="104" on="1"/>
        <pt x="541" y="87" on="0"/>
        <pt x="526" y="78" on="1"/>
        <pt x="348" y="-27" on="1"/>
        <pt x="347" y="-27" on="0"/>
        <pt x="300" y="-24" on="1"/>
        <pt x="297" y="-24" on="0"/>
        <pt x="292" y="-24" on="1"/>
        <pt x="252" y="-24" on="0"/>
        <pt x="231" y="-15" on="1"/>
        <pt x="216" y="-9" on="0"/>
        <pt x="198" y="10" on="1"/>
        <pt x="152" y="56" on="0"/>
        <pt x="145" y="65" on="1"/>
        <pt x="126" y="127" on="1"/>
        <pt x="43" y="95" on="0"/>
        <pt x="0" y="56" on="1"/>
        <pt x="-8" y="49" on="0"/>
        <pt x="-18" y="49" on="1"/>
        <pt x="-28" y="49" on="0"/>
        <pt x="-44" y="65" on="0"/>
        <pt x="-44" y="76" on="1"/>
        <pt x="-44" y="87" on="0"/>
        <pt x="-35" y="95" on="1"/>
        <pt x="0" y="127" on="1"/>
        <pt x="41" y="165" on="0"/>
        <pt x="119" y="195" on="1"/>
        <pt x="116" y="264" on="0"/>
        <pt x="116" y="278" on="1"/>
        <pt x="116" y="366" on="0"/>
        <pt x="153" y="403" on="1"/>
        <pt x="188" y="438" on="1"/>
        <pt x="213" y="463" on="0"/>
        <pt x="258" y="472" on="1"/>
        <pt x="271" y="472" on="0"/>
        <pt x="314" y="474" on="0"/>
        <pt x="325" y="474" on="1"/>
        <pt x="358" y="474" on="0"/>
        <pt x="370" y="461" on="1"/>
        <pt x="406" y="426" on="1"/>
        <pt x="417" y="414" on="0"/>
        <pt x="425" y="383" on="1"/>
        <pt x="427" y="378" on="0"/>
        <pt x="427" y="374" on="1"/>
        <pt x="427" y="363" on="0"/>
        <pt x="418" y="355" on="1"/>
        <pt x="383" y="319" on="1"/>
        <pt x="382" y="319" on="0"/>
        <pt x="382" y="318" on="1"/>
        <pt x="372" y="279" on="0"/>
        <pt x="344" y="250" on="1"/>
        <pt x="309" y="215" on="1"/>
        <pt x="275" y="182" on="0"/>
        <pt x="191" y="151" on="1"/>
        <pt x="191" y="150" on="0"/>
        <pt x="191" y="148" on="0"/>
        <pt x="191" y="146" on="0"/>
        <pt x="191" y="146" on="1"/>
        <pt x="215" y="65" on="1"/>
        <pt x="224" y="59" on="0"/>
        <pt x="231" y="55" on="1"/>
        <pt x="252" y="46" on="0"/>
        <pt x="292" y="46" on="1"/>
        <pt x="300" y="46" on="1"/>
        <pt x="347" y="43" on="0"/>
      </contour>
    </TTGlyph>
    <TTGlyph name="colon" xMin="50" yMin="4" xMax="100" yMax="464">
      <contour>
        <pt x="50" y="429" on="0"/>
        <pt x="50" y="449" on="0"/>
        <pt x="65" y="464" on="0"/>
        <pt x="85" y="464" on="0"/>
        <pt x="100" y="449" on="0"/>
        <pt x="100" y="429" on="0"/>
        <pt x="85" y="414" on="0"/>
        <pt x="65" y="414" on="0"/>
      </contour>
      <contour>
        <pt x="50" y="19" on="0"/>
        <pt x="50" y="39" on="0"/>
        <pt x="65" y="54" on="0"/>
        <pt x="85" y="54" on="0"/>
        <pt x="100" y="39" on="0"/>
        <pt x="100" y="19" on="0"/>
        <pt x="85" y="4" on="0"/>
        <pt x="65" y="4" on="0"/>
      </contour>
    </TTGlyph>
    <TTGlyph name="comma" xMin="50" yMin="-89" xMax="136" yMax="51">
      <contour>
        <pt x="77" y="26" on="1"/>
        <pt x="77" y="36" on="0"/>
        <pt x="92" y="51" on="0"/>
        <pt x="102" y="51" on="1"/>
        <pt x="118" y="51" on="0"/>
        <pt x="125" y="36" on="1"/>
        <pt x="136" y="11" on="0"/>
        <pt x="136" y="-25" on="0"/>
        <pt x="124" y="-45" on="1"/>
        <pt x="114" y="-60" on="0"/>
        <pt x="99" y="-75" on="1"/>
        <pt x="95" y="-80" on="0"/>
        <pt x="91" y="-83" on="1"/>
        <pt x="84" y="-89" on="0"/>
        <pt x="75" y="-89" on="1"/>
        <pt x="65" y="-89" on="0"/>
        <pt x="50" y="-74" on="0"/>
        <pt x="50" y="-64" on="1"/>
        <pt x="50" y="-53" on="0"/>
        <pt x="59" y="-45" on="1"/>
        <pt x="72" y="-33" on="0"/>
        <pt x="81" y="-19" on="1"/>
        <pt x="86" y="-11" on="0"/>
        <pt x="86" y="-7" on="1"/>
        <pt x="86" y="-4" on="0"/>
        <pt x="83" y="4" on="1"/>
        <pt x="79" y="16" on="1"/>
        <pt x="77" y="21" on="0"/>
      </contour>
    </TTGlyph>
    <TTGlyph name="d" xMin="-46" yMin="-41" xMax="657" yMax="807">
      <contour>
        <pt x="240" y="366" on="1"/>
        <pt x="202" y="366" on="0"/>
        <pt x="177" y="352" on="1"/>
        <pt x="161" y="324" on="0"/>
        <pt x="152" y="249" on="0"/>
        <pt x="152" y="191" on="1"/>
        <pt x="157" y="174" on="0"/>
        <pt x="162" y="157" on="1"/>
        <pt x="268" y="169" on="0"/>
        <pt x="308" y="193" on="1"/>
        <pt x="322" y="218" on="0"/>
        <pt x="322" y="253" on="1"/>
        <pt x="322" y="270" on="0"/>
        <pt x="319" y="290" on="1"/>
        <pt x="311" y="336" on="0"/>
        <pt x="302" y="355" on="1"/>
        <pt x="279" y="366" on="0"/>
      </contour>
      <contour>
        <pt x="254" y="31" on="1"/>
        <pt x="259" y="31" on="0"/>
        <pt x="264" y="31" on="1"/>
        <pt x="325" y="40" on="0"/>
        <pt x="369" y="75" on="1"/>
        <pt x="384" y="93" on="0"/>
        <pt x="395" y="116" on="1"/>
        <pt x="383" y="146" on="0"/>
        <pt x="372" y="183" on="1"/>
        <pt x="368" y="178" on="0"/>
        <pt x="363" y="174" on="1"/>
        <pt x="328" y="139" on="1"/>
        <pt x="292" y="103" on="0"/>
        <pt x="188" y="90" on="1"/>
        <pt x="201" y="63" on="0"/>
        <pt x="215" y="43" on="1"/>
        <pt x="234" y="31" on="0"/>
      </contour>
      <contour>
        <pt x="390" y="593" on="1"/>
        <pt x="395" y="416" on="1"/>
        <pt x="397" y="407" on="0"/>
        <pt x="403" y="359" on="0"/>
        <pt x="405" y="344" on="0"/>
        <pt x="411" y="308" on="0"/>
        <pt x="416" y="285" on="0"/>
        <pt x="424" y="250" on="0"/>
        <pt x="429" y="232" on="1"/>
        <pt x="433" y="264" on="0"/>
        <pt x="433" y="299" on="1"/>
        <pt x="430" y="398" on="0"/>
      </contour>
      <contour>
        <pt x="362" y="807" on="1"/>
        <pt x="371" y="807" on="0"/>
        <pt x="379" y="799" on="1"/>
        <pt x="414" y="763" on="1"/>
        <pt x="433" y="744" on="0"/>
        <pt x="440" y="701" on="1"/>
        <pt x="446" y="665" on="0"/>
        <pt x="482" y="494" on="0"/>
        <pt x="502" y="362" on="0"/>
        <pt x="503" y="299" on="1"/>
        <pt x="503" y="191" on="0"/>
        <pt x="466" y="116" on="1"/>
        <pt x="484" y="73" on="0"/>
        <pt x="502" y="46" on="1"/>
        <pt x="512" y="40" on="0"/>
        <pt x="522" y="40" on="1"/>
        <pt x="536" y="40" on="0"/>
        <pt x="561" y="49" on="1"/>
        <pt x="597" y="120" on="1"/>
        <pt x="606" y="137" on="0"/>
        <pt x="625" y="137" on="1"/>
        <pt x="638" y="137" on="0"/>
        <pt x="657" y="119" on="0"/>
        <pt x="657" y="106" on="1"/>
        <pt x="657" y="98" on="0"/>
        <pt x="653" y="92" on="1"/>
        <pt x="617" y="20" on="1"/>
        <pt x="602" y="-10" on="0"/>
        <pt x="582" y="-15" on="1"/>
        <pt x="576" y="-17" on="0"/>
        <pt x="552" y="-25" on="0"/>
        <pt x="532" y="-30" on="0"/>
        <pt x="522" y="-30" on="1"/>
        <pt x="503" y="-30" on="0"/>
        <pt x="484" y="-11" on="1"/>
        <pt x="449" y="24" on="1"/>
        <pt x="437" y="36" on="0"/>
        <pt x="424" y="57" on="1"/>
        <pt x="424" y="56" on="0"/>
        <pt x="388" y="20" on="1"/>
        <pt x="339" y="-29" on="0"/>
        <pt x="264" y="-39" on="1"/>
        <pt x="259" y="-40" on="0"/>
        <pt x="254" y="-40" on="1"/>
        <pt x="224" y="-40" on="0"/>
        <pt x="197" y="-13" on="1"/>
        <pt x="161" y="23" on="1"/>
        <pt x="140" y="44" on="0"/>
        <pt x="121" y="82" on="1"/>
        <pt x="39" y="73" on="0"/>
        <pt x="0" y="56" on="1"/>
        <pt x="-6" y="54" on="0"/>
        <pt x="-13" y="54" on="1"/>
        <pt x="-26" y="54" on="0"/>
        <pt x="-45" y="73" on="0"/>
        <pt x="-45" y="86" on="1"/>
        <pt x="-45" y="108" on="0"/>
        <pt x="-25" y="116" on="1"/>
        <pt x="0" y="127" on="1"/>
        <pt x="34" y="141" on="0"/>
        <pt x="94" y="149" on="1"/>
        <pt x="87" y="170" on="0"/>
        <pt x="82" y="191" on="1"/>
        <pt x="82" y="236" on="0"/>
        <pt x="85" y="290" on="0"/>
        <pt x="104" y="354" on="0"/>
        <pt x="122" y="372" on="1"/>
        <pt x="157" y="407" on="1"/>
        <pt x="186" y="436" on="0"/>
        <pt x="240" y="436" on="1"/>
        <pt x="298" y="436" on="0"/>
        <pt x="322" y="412" on="1"/>
        <pt x="326" y="408" on="1"/>
        <pt x="325" y="416" on="1"/>
        <pt x="319" y="629" on="1"/>
        <pt x="334" y="770" on="1"/>
        <pt x="335" y="785" on="0"/>
        <pt x="352" y="807" on="0"/>
      </contour>
    </TTGlyph>
    <TTGlyph name="dollar" xMin="50" yMin="-26" xMax="302" yMax="828">
      <contour>
        <pt x="271" y="635" on="1"/>
        <pt x="271" y="625" on="0"/>
        <pt x="256" y="610" on="0"/>
        <pt x="246" y="610" on="1"/>
        <pt x="240" y="610" on="0"/>
        <pt x="234" y="613" on="1"/>
        <pt x="224" y="619" on="0"/>
        <pt x="214" y="627" on="1"/>
        <pt x="214" y="611" on="1"/>
        <pt x="214" y="601" on="0"/>
        <pt x="199" y="586" on="0"/>
        <pt x="179" y="586" on="0"/>
        <pt x="164" y="601" on="0"/>
        <pt x="164" y="611" on="1"/>
        <pt x="164" y="644" on="1"/>
        <pt x="157" y="639" on="0"/>
        <pt x="151" y="633" on="1"/>
        <pt x="116" y="598" on="0"/>
        <pt x="116" y="547" on="1"/>
        <pt x="116" y="529" on="0"/>
        <pt x="121" y="513" on="1"/>
        <pt x="136" y="495" on="0"/>
        <pt x="179" y="458" on="1"/>
        <pt x="207" y="434" on="0"/>
        <pt x="235" y="408" on="0"/>
        <pt x="275" y="359" on="0"/>
        <pt x="286" y="335" on="1"/>
        <pt x="301" y="302" on="0"/>
        <pt x="301" y="265" on="1"/>
        <pt x="301" y="237" on="0"/>
        <pt x="292" y="208" on="1"/>
        <pt x="290" y="171" on="0"/>
        <pt x="265" y="146" on="1"/>
        <pt x="237" y="118" on="0"/>
        <pt x="191" y="109" on="1"/>
        <pt x="186" y="108" on="0"/>
        <pt x="181" y="108" on="1"/>
        <pt x="181" y="-1" on="1"/>
        <pt x="181" y="-11" on="0"/>
        <pt x="166" y="-26" on="0"/>
        <pt x="146" y="-26" on="0"/>
        <pt x="131" y="-11" on="0"/>
        <pt x="131" y="-1" on="1"/>
        <pt x="131" y="112" on="1"/>
        <pt x="114" y="118" on="0"/>
        <pt x="90" y="140" on="1"/>
        <pt x="80" y="149" on="0"/>
        <pt x="74" y="154" on="1"/>
        <pt x="68" y="159" on="0"/>
        <pt x="66" y="166" on="1"/>
        <pt x="51" y="220" on="1"/>
        <pt x="50" y="224" on="0"/>
        <pt x="50" y="227" on="1"/>
        <pt x="50" y="237" on="0"/>
        <pt x="65" y="252" on="0"/>
        <pt x="75" y="252" on="1"/>
        <pt x="83" y="252" on="0"/>
        <pt x="97" y="241" on="0"/>
        <pt x="99" y="234" on="1"/>
        <pt x="112" y="187" on="1"/>
        <pt x="116" y="184" on="0"/>
        <pt x="123" y="177" on="1"/>
        <pt x="128" y="173" on="0"/>
        <pt x="131" y="170" on="1"/>
        <pt x="131" y="203" on="1"/>
        <pt x="131" y="213" on="0"/>
        <pt x="146" y="228" on="0"/>
        <pt x="166" y="228" on="0"/>
        <pt x="181" y="213" on="0"/>
        <pt x="181" y="203" on="1"/>
        <pt x="181" y="158" on="1"/>
        <pt x="181" y="159" on="0"/>
        <pt x="181" y="159" on="1"/>
        <pt x="213" y="164" on="0"/>
        <pt x="229" y="181" on="1"/>
        <pt x="242" y="194" on="0"/>
        <pt x="242" y="212" on="1"/>
        <pt x="242" y="216" on="0"/>
        <pt x="243" y="220" on="1"/>
        <pt x="252" y="244" on="0"/>
        <pt x="252" y="266" on="1"/>
        <pt x="252" y="290" on="0"/>
        <pt x="241" y="314" on="1"/>
        <pt x="232" y="333" on="0"/>
        <pt x="196" y="376" on="0"/>
        <pt x="171" y="399" on="0"/>
        <pt x="146" y="420" on="1"/>
        <pt x="98" y="462" on="0"/>
        <pt x="80" y="484" on="1"/>
        <pt x="77" y="487" on="0"/>
        <pt x="76" y="491" on="1"/>
        <pt x="65" y="518" on="0"/>
        <pt x="65" y="547" on="1"/>
        <pt x="65" y="618" on="0"/>
        <pt x="115" y="668" on="1"/>
        <pt x="137" y="690" on="0"/>
        <pt x="164" y="701" on="1"/>
        <pt x="164" y="803" on="1"/>
        <pt x="164" y="813" on="0"/>
        <pt x="179" y="828" on="0"/>
        <pt x="199" y="828" on="0"/>
        <pt x="214" y="813" on="0"/>
        <pt x="214" y="803" on="1"/>
        <pt x="214" y="697" on="1"/>
        <pt x="217" y="694" on="0"/>
        <pt x="237" y="674" on="1"/>
        <pt x="250" y="661" on="0"/>
        <pt x="258" y="657" on="1"/>
        <pt x="271" y="650" on="0"/>
      </contour>
    </TTGlyph>
    <TTGlyph name="e" xMin="-39" yMin="-42" xMax="581" yMax="449">
      <contour>
        <pt x="169" y="163" on="1"/>
        <pt x="265" y="194" on="0"/>
        <pt x="325" y="245" on="1"/>
        <pt x="370" y="299" on="0"/>
        <pt x="378" y="367" on="1"/>
        <pt x="341" y="378" on="0"/>
        <pt x="297" y="378" on="1"/>
        <pt x="298" y="378" on="0"/>
        <pt x="298" y="378" on="1"/>
        <pt x="296" y="378" on="0"/>
        <pt x="267" y="367" on="0"/>
        <pt x="228" y="348" on="0"/>
        <pt x="217" y="338" on="1"/>
        <pt x="176" y="290" on="0"/>
        <pt x="176" y="257" on="1"/>
        <pt x="169" y="169" on="0"/>
      </contour>
      <contour>
        <pt x="106" y="257" on="1"/>
        <pt x="106" y="277" on="0"/>
        <pt x="138" y="331" on="0"/>
        <pt x="163" y="357" on="1"/>
        <pt x="199" y="392" on="1"/>
        <pt x="255" y="448" on="0"/>
        <pt x="297" y="448" on="1"/>
        <pt x="323" y="448" on="0"/>
        <pt x="394" y="436" on="0"/>
        <pt x="408" y="422" on="1"/>
        <pt x="443" y="387" on="1"/>
        <pt x="449" y="381" on="0"/>
        <pt x="449" y="374" on="1"/>
        <pt x="442" y="290" on="0"/>
        <pt x="379" y="227" on="1"/>
        <pt x="344" y="192" on="1"/>
        <pt x="281" y="129" on="0"/>
        <pt x="169" y="92" on="1"/>
        <pt x="172" y="71" on="0"/>
        <pt x="183" y="54" on="1"/>
        <pt x="221" y="29" on="0"/>
        <pt x="273" y="29" on="1"/>
        <pt x="287" y="29" on="0"/>
        <pt x="300" y="31" on="1"/>
        <pt x="344" y="38" on="0"/>
        <pt x="409" y="60" on="0"/>
        <pt x="446" y="82" on="0"/>
        <pt x="483" y="108" on="1"/>
        <pt x="497" y="118" on="0"/>
        <pt x="505" y="123" on="1"/>
        <pt x="529" y="155" on="1"/>
        <pt x="537" y="168" on="0"/>
        <pt x="552" y="168" on="1"/>
        <pt x="564" y="168" on="0"/>
        <pt x="581" y="151" on="0"/>
        <pt x="581" y="139" on="1"/>
        <pt x="581" y="130" on="0"/>
        <pt x="575" y="122" on="1"/>
        <pt x="561" y="101" on="1"/>
        <pt x="544" y="79" on="0"/>
        <pt x="525" y="66" on="1"/>
        <pt x="509" y="55" on="0"/>
        <pt x="483" y="37" on="1"/>
        <pt x="446" y="11" on="0"/>
        <pt x="409" y="-11" on="0"/>
        <pt x="344" y="-33" on="0"/>
        <pt x="300" y="-39" on="1"/>
        <pt x="287" y="-41" on="0"/>
        <pt x="273" y="-41" on="1"/>
        <pt x="204" y="-41" on="0"/>
        <pt x="163" y="-1" on="1"/>
        <pt x="128" y="35" on="1"/>
        <pt x="111" y="52" on="0"/>
        <pt x="103" y="74" on="1"/>
        <pt x="52" y="62" on="0"/>
        <pt x="0" y="57" on="1"/>
        <pt x="-2" y="56" on="0"/>
        <pt x="-3" y="56" on="1"/>
        <pt x="-18" y="56" on="0"/>
        <pt x="-39" y="77" on="0"/>
        <pt x="-39" y="92" on="1"/>
        <pt x="-39" y="105" on="0"/>
        <pt x="-20" y="125" on="0"/>
        <pt x="-7" y="127" on="1"/>
        <pt x="50" y="132" on="0"/>
        <pt x="99" y="143" on="1"/>
        <pt x="98" y="152" on="0"/>
        <pt x="98" y="162" on="1"/>
        <pt x="98" y="169" on="0"/>
      </contour>
    </TTGlyph>
    <TTGlyph name="eight" xMin="50" yMin="-25" xMax="216" yMax="801">
      <contour>
        <pt x="100" y="263" on="0"/>
        <pt x="100" y="125" on="0"/>
        <pt x="113" y="73" on="1"/>
        <pt x="122" y="40" on="0"/>
        <pt x="133" y="27" on="1"/>
        <pt x="144" y="40" on="0"/>
        <pt x="153" y="73" on="1"/>
        <pt x="166" y="125" on="0"/>
        <pt x="166" y="263" on="0"/>
        <pt x="153" y="315" on="1"/>
        <pt x="144" y="348" on="0"/>
        <pt x="133" y="361" on="1"/>
        <pt x="122" y="348" on="0"/>
        <pt x="113" y="315" on="1"/>
      </contour>
      <contour>
        <pt x="100" y="651" on="0"/>
        <pt x="100" y="513" on="0"/>
        <pt x="113" y="461" on="1"/>
        <pt x="122" y="428" on="0"/>
        <pt x="133" y="415" on="1"/>
        <pt x="144" y="428" on="0"/>
        <pt x="153" y="461" on="1"/>
        <pt x="166" y="513" on="0"/>
        <pt x="166" y="651" on="0"/>
        <pt x="153" y="703" on="1"/>
        <pt x="144" y="736" on="0"/>
        <pt x="133" y="749" on="1"/>
        <pt x="122" y="736" on="0"/>
        <pt x="113" y="703" on="1"/>
      </contour>
      <contour>
        <pt x="50" y="118" on="0"/>
        <pt x="50" y="270" on="0"/>
        <pt x="65" y="328" on="1"/>
        <pt x="76" y="368" on="0"/>
        <pt x="90" y="388" on="1"/>
        <pt x="76" y="408" on="0"/>
        <pt x="65" y="448" on="1"/>
        <pt x="50" y="506" on="0"/>
        <pt x="50" y="658" on="0"/>
        <pt x="65" y="716" on="1"/>
        <pt x="78" y="765" on="0"/>
        <pt x="99" y="786" on="1"/>
        <pt x="114" y="801" on="0"/>
        <pt x="152" y="801" on="0"/>
        <pt x="167" y="786" on="1"/>
        <pt x="188" y="765" on="0"/>
        <pt x="201" y="716" on="1"/>
        <pt x="216" y="658" on="0"/>
        <pt x="216" y="506" on="0"/>
        <pt x="201" y="448" on="1"/>
        <pt x="190" y="408" on="0"/>
        <pt x="175" y="388" on="1"/>
        <pt x="190" y="368" on="0"/>
        <pt x="201" y="328" on="1"/>
        <pt x="216" y="270" on="0"/>
        <pt x="216" y="118" on="0"/>
        <pt x="201" y="60" on="1"/>
        <pt x="188" y="11" on="0"/>
        <pt x="167" y="-10" on="1"/>
        <pt x="152" y="-25" on="0"/>
        <pt x="114" y="-25" on="0"/>
        <pt x="99" y="-10" on="1"/>
        <pt x="78" y="11" on="0"/>
        <pt x="65" y="60" on="1"/>
      </contour>
    </TTGlyph>
    <TTGlyph name="equal" xMin="50" yMin="347" xMax="448" yMax="497">
      <contour>
        <pt x="75" y="347" on="1"/>
        <pt x="65" y="347" on="0"/>
        <pt x="50" y="362" on="0"/>
        <pt x="50" y="382" on="0"/>
        <pt x="65" y="397" on="0"/>
        <pt x="75" y="397" on="1"/>
        <pt x="423" y="397" on="1"/>
        <pt x="433" y="397" on="0"/>
        <pt x="448" y="382" on="0"/>
        <pt x="448" y="362" on="0"/>
        <pt x="433" y="347" on="0"/>
        <pt x="423" y="347" on="1"/>
      </contour>
      <contour>
        <pt x="75" y="447" on="1"/>
        <pt x="65" y="447" on="0"/>
        <pt x="50" y="462" on="0"/>
        <pt x="50" y="482" on="0"/>
        <pt x="65" y="497" on="0"/>
        <pt x="75" y="497" on="1"/>
        <pt x="423" y="497" on="1"/>
        <pt x="433" y="497" on="0"/>
        <pt x="448" y="482" on="0"/>
        <pt x="448" y="462" on="0"/>
        <pt x="433" y="447" on="0"/>
        <pt x="423" y="447" on="1"/>
      </contour>
    </TTGlyph>
    <TTGlyph name="exclam" xMin="50" yMin="112" xMax="109" yMax="837">
      <contour>
        <pt x="50" y="812" on="1"/>
        <pt x="50" y="822" on="0"/>
        <pt x="65" y="837" on="0"/>
        <pt x="85" y="837" on="0"/>
        <pt x="100" y="822" on="0"/>
        <pt x="100" y="812" on="1"/>
        <pt x="106" y="323" on="1"/>
        <pt x="106" y="313" on="0"/>
        <pt x="91" y="298" on="0"/>
        <pt x="71" y="298" on="0"/>
        <pt x="56" y="313" on="0"/>
        <pt x="56" y="323" on="1"/>
      </contour>
      <contour>
        <pt x="59" y="203" on="1"/>
        <pt x="59" y="213" on="0"/>
        <pt x="74" y="228" on="0"/>
        <pt x="94" y="228" on="0"/>
        <pt x="109" y="213" on="0"/>
        <pt x="109" y="203" on="1"/>
        <pt x="109" y="137" on="1"/>
        <pt x="109" y="127" on="0"/>
        <pt x="94" y="112" on="0"/>
        <pt x="74" y="112" on="0"/>
        <pt x="59" y="127" on="0"/>
        <pt x="59" y="137" on="1"/>
      </contour>
    </TTGlyph>
    <TTGlyph name="f" xMin="-49" yMin="-60" xMax="430" yMax="744">
      <contour>
        <pt x="237" y="637" on="1"/>
        <pt x="237" y="626" on="0"/>
        <pt x="234" y="581" on="0"/>
        <pt x="234" y="571" on="1"/>
        <pt x="234" y="567" on="0"/>
        <pt x="234" y="564" on="1"/>
        <pt x="237" y="531" on="0"/>
        <pt x="237" y="500" on="1"/>
        <pt x="237" y="370" on="0"/>
        <pt x="192" y="268" on="1"/>
        <pt x="196" y="265" on="0"/>
        <pt x="200" y="261" on="1"/>
        <pt x="235" y="225" on="1"/>
        <pt x="248" y="213" on="0"/>
        <pt x="264" y="184" on="1"/>
        <pt x="271" y="170" on="0"/>
        <pt x="275" y="156" on="1"/>
        <pt x="327" y="143" on="1"/>
        <pt x="400" y="132" on="1"/>
        <pt x="413" y="130" on="0"/>
        <pt x="429" y="110" on="0"/>
        <pt x="429" y="97" on="1"/>
        <pt x="429" y="83" on="0"/>
        <pt x="409" y="62" on="0"/>
        <pt x="395" y="62" on="1"/>
        <pt x="392" y="62" on="0"/>
        <pt x="389" y="63" on="1"/>
        <pt x="327" y="73" on="1"/>
        <pt x="280" y="84" on="1"/>
        <pt x="280" y="38" on="0"/>
        <pt x="266" y="18" on="1"/>
        <pt x="256" y="-5" on="0"/>
        <pt x="247" y="-14" on="1"/>
        <pt x="212" y="-49" on="1"/>
        <pt x="202" y="-59" on="0"/>
        <pt x="189" y="-59" on="1"/>
        <pt x="181" y="-59" on="0"/>
        <pt x="175" y="-53" on="1"/>
        <pt x="140" y="-18" on="1"/>
        <pt x="135" y="-13" on="0"/>
        <pt x="128" y="2" on="0"/>
        <pt x="124" y="14" on="0"/>
        <pt x="119" y="34" on="0"/>
        <pt x="118" y="38" on="1"/>
        <pt x="104" y="81" on="0"/>
        <pt x="99" y="134" on="1"/>
        <pt x="72" y="107" on="1"/>
        <pt x="39" y="74" on="0"/>
        <pt x="-3" y="49" on="1"/>
        <pt x="-10" y="44" on="0"/>
        <pt x="-19" y="44" on="1"/>
        <pt x="-31" y="44" on="0"/>
        <pt x="-49" y="62" on="0"/>
        <pt x="-49" y="75" on="1"/>
        <pt x="-49" y="92" on="0"/>
        <pt x="-34" y="100" on="1"/>
        <pt x="-3" y="119" on="1"/>
        <pt x="28" y="138" on="0"/>
        <pt x="54" y="161" on="1"/>
        <pt x="76" y="186" on="0"/>
        <pt x="94" y="216" on="1"/>
        <pt x="94" y="218" on="0"/>
        <pt x="94" y="219" on="1"/>
        <pt x="94" y="223" on="0"/>
        <pt x="94" y="228" on="1"/>
        <pt x="94" y="233" on="0"/>
        <pt x="94" y="238" on="1"/>
        <pt x="94" y="239" on="0"/>
        <pt x="94" y="242" on="0"/>
        <pt x="94" y="243" on="1"/>
        <pt x="94" y="246" on="0"/>
        <pt x="95" y="247" on="1"/>
        <pt x="96" y="291" on="0"/>
        <pt x="96" y="299" on="1"/>
        <pt x="96" y="320" on="0"/>
        <pt x="94" y="403" on="0"/>
        <pt x="94" y="423" on="1"/>
        <pt x="94" y="512" on="0"/>
        <pt x="106" y="572" on="1"/>
        <pt x="106" y="573" on="0"/>
        <pt x="106" y="573" on="1"/>
        <pt x="106" y="578" on="0"/>
        <pt x="105" y="596" on="0"/>
        <pt x="105" y="600" on="1"/>
        <pt x="105" y="616" on="0"/>
        <pt x="108" y="626" on="1"/>
        <pt x="113" y="686" on="0"/>
        <pt x="132" y="708" on="1"/>
        <pt x="161" y="743" on="0"/>
        <pt x="167" y="743" on="1"/>
        <pt x="179" y="743" on="0"/>
        <pt x="186" y="736" on="1"/>
        <pt x="221" y="700" on="1"/>
        <pt x="237" y="685" on="0"/>
      </contour>
      <contour>
        <pt x="194" y="15" on="1"/>
        <pt x="195" y="17" on="0"/>
        <pt x="196" y="18" on="1"/>
        <pt x="209" y="38" on="0"/>
        <pt x="209" y="89" on="1"/>
        <pt x="209" y="102" on="0"/>
        <pt x="209" y="108" on="1"/>
        <pt x="202" y="111" on="0"/>
        <pt x="185" y="128" on="1"/>
        <pt x="182" y="131" on="0"/>
        <pt x="170" y="140" on="0"/>
        <pt x="169" y="140" on="1"/>
        <pt x="174" y="84" on="0"/>
        <pt x="188" y="38" on="1"/>
        <pt x="189" y="34" on="0"/>
        <pt x="193" y="19" on="0"/>
      </contour>
      <contour>
        <pt x="182" y="203" on="1"/>
        <pt x="180" y="204" on="0"/>
        <pt x="177" y="205" on="1"/>
        <pt x="181" y="202" on="0"/>
        <pt x="184" y="200" on="1"/>
        <pt x="183" y="202" on="0"/>
      </contour>
    </TTGlyph>
    <TTGlyph name="five" xMin="50" yMin="-236" xMax="460" yMax="436">
      <contour>
        <pt x="135" y="213" on="1"/>
        <pt x="142" y="214" on="0"/>
        <pt x="226" y="231" on="0"/>
        <pt x="251" y="231" on="1"/>
        <pt x="286" y="231" on="0"/>
        <pt x="319" y="217" on="1"/>
        <pt x="347" y="205" on="0"/>
        <pt x="367" y="185" on="1"/>
        <pt x="382" y="169" on="0"/>
        <pt x="406" y="124" on="0"/>
        <pt x="417" y="93" on="0"/>
        <pt x="426" y="63" on="1"/>
        <pt x="442" y="9" on="0"/>
        <pt x="442" y="-28" on="1"/>
        <pt x="442" y="-71" on="0"/>
        <pt x="422" y="-116" on="1"/>
        <pt x="409" y="-144" on="0"/>
        <pt x="390" y="-164" on="1"/>
        <pt x="364" y="-190" on="0"/>
        <pt x="301" y="-216" on="1"/>
        <pt x="268" y="-230" on="0"/>
        <pt x="239" y="-234" on="1"/>
        <pt x="227" y="-235" on="0"/>
        <pt x="214" y="-235" on="1"/>
        <pt x="188" y="-235" on="0"/>
        <pt x="160" y="-230" on="1"/>
        <pt x="128" y="-223" on="0"/>
        <pt x="91" y="-193" on="1"/>
        <pt x="73" y="-179" on="0"/>
        <pt x="62" y="-172" on="1"/>
        <pt x="50" y="-165" on="0"/>
        <pt x="50" y="-151" on="1"/>
        <pt x="50" y="-141" on="0"/>
        <pt x="65" y="-126" on="0"/>
        <pt x="75" y="-126" on="1"/>
        <pt x="82" y="-126" on="0"/>
        <pt x="88" y="-130" on="1"/>
        <pt x="102" y="-138" on="0"/>
        <pt x="122" y="-154" on="1"/>
        <pt x="150" y="-176" on="0"/>
        <pt x="170" y="-180" on="1"/>
        <pt x="195" y="-185" on="0"/>
        <pt x="214" y="-185" on="1"/>
        <pt x="223" y="-185" on="0"/>
        <pt x="233" y="-184" on="1"/>
        <pt x="255" y="-181" on="0"/>
        <pt x="281" y="-170" on="1"/>
        <pt x="335" y="-147" on="0"/>
        <pt x="354" y="-128" on="1"/>
        <pt x="367" y="-115" on="0"/>
        <pt x="376" y="-96" on="1"/>
        <pt x="392" y="-60" on="0"/>
        <pt x="392" y="-28" on="1"/>
        <pt x="392" y="3" on="0"/>
        <pt x="378" y="50" on="1"/>
        <pt x="354" y="126" on="0"/>
        <pt x="331" y="150" on="1"/>
        <pt x="318" y="163" on="0"/>
        <pt x="299" y="171" on="1"/>
        <pt x="275" y="182" on="0"/>
        <pt x="251" y="182" on="1"/>
        <pt x="231" y="182" on="0"/>
        <pt x="189" y="172" on="1"/>
        <pt x="141" y="162" on="0"/>
        <pt x="112" y="160" on="1"/>
        <pt x="112" y="160" on="0"/>
        <pt x="111" y="160" on="1"/>
        <pt x="101" y="160" on="0"/>
        <pt x="93" y="167" on="1"/>
        <pt x="86" y="174" on="0"/>
        <pt x="86" y="184" on="1"/>
        <pt x="80" y="410" on="1"/>
        <pt x="80" y="411" on="0"/>
        <pt x="80" y="411" on="1"/>
        <pt x="80" y="421" on="0"/>
        <pt x="95" y="436" on="0"/>
        <pt x="105" y="436" on="1"/>
        <pt x="435" y="436" on="1"/>
        <pt x="445" y="436" on="0"/>
        <pt x="460" y="421" on="0"/>
        <pt x="460" y="401" on="0"/>
        <pt x="445" y="386" on="0"/>
        <pt x="435" y="386" on="1"/>
        <pt x="131" y="386" on="1"/>
      </contour>
    </TTGlyph>
    <TTGlyph name="four" xMin="50" yMin="-230" xMax="420" yMax="436">
      <contour>
        <pt x="291" y="436" on="1"/>
        <pt x="301" y="436" on="0"/>
        <pt x="316" y="421" on="0"/>
        <pt x="316" y="411" on="1"/>
        <pt x="316" y="405" on="0"/>
        <pt x="313" y="399" on="1"/>
        <pt x="116" y="25" on="1"/>
        <pt x="395" y="25" on="1"/>
        <pt x="405" y="25" on="0"/>
        <pt x="420" y="10" on="0"/>
        <pt x="420" y="-10" on="0"/>
        <pt x="405" y="-25" on="0"/>
        <pt x="395" y="-25" on="1"/>
        <pt x="75" y="-25" on="1"/>
        <pt x="65" y="-25" on="0"/>
        <pt x="50" y="-10" on="0"/>
        <pt x="50" y="0" on="1"/>
        <pt x="50" y="6" on="0"/>
        <pt x="53" y="12" on="1"/>
        <pt x="269" y="423" on="1"/>
        <pt x="276" y="436" on="0"/>
      </contour>
      <contour>
        <pt x="316" y="-205" on="1"/>
        <pt x="316" y="-215" on="0"/>
        <pt x="301" y="-230" on="0"/>
        <pt x="281" y="-230" on="0"/>
        <pt x="266" y="-215" on="0"/>
        <pt x="266" y="-205" on="1"/>
        <pt x="266" y="411" on="1"/>
        <pt x="266" y="421" on="0"/>
        <pt x="281" y="436" on="0"/>
        <pt x="301" y="436" on="0"/>
        <pt x="316" y="421" on="0"/>
        <pt x="316" y="411" on="1"/>
      </contour>
      <contour>
        <pt x="314" y="-209" on="0"/>
        <pt x="314" y="-189" on="0"/>
        <pt x="329" y="-174" on="0"/>
        <pt x="349" y="-174" on="0"/>
        <pt x="364" y="-189" on="0"/>
        <pt x="364" y="-209" on="0"/>
        <pt x="349" y="-224" on="0"/>
        <pt x="329" y="-224" on="0"/>
      </contour>
    </TTGlyph>
</ttFont>
